<?xml version="1.0" encoding="utf-8"?>
<!-- Generator: Adobe Illustrator 18.1.1, SVG Export Plug-In . SVG Version: 6.00 Build 0)  -->
<svg version="1.1" id="Layer_1" xmlns="http://www.w3.org/2000/svg" xmlns:xlink="http://www.w3.org/1999/xlink" x="0px" y="0px"
	 viewBox="0 0 20 20" enable-background="new 0 0 20 20" xml:space="preserve">
<g>
	<path fill="#FFFFFF" d="M11.53,0.08c-1.63,0-3.18,0.32-4.62,0.96C5.58,1.62,4.39,2.46,3.37,3.52C2.41,4.53,1.65,5.69,1.12,6.97
		c-0.52,1.26-0.8,2.6-0.8,3.88c0,1.31,0.21,2.54,0.63,3.65c0.41,1.1,1.01,2.07,1.78,2.88c0.77,0.81,1.69,1.43,2.73,1.86
		c1.04,0.43,2.17,0.65,3.36,0.65c0.88,0,1.75-0.12,2.58-0.35c0.86-0.24,1.64-0.59,2.31-1.03c1.59-1.05,2.47-2.57,2.47-4.27
		c0-1.19-0.5-2.25-1.41-2.99c-0.46-0.37-1-0.64-1.6-0.82c0.72-0.2,1.39-0.54,1.96-1c0.06-0.05,0.12-0.1,0.18-0.15
		c0.05,0.06,0.11,0.13,0.16,0.18c0.39,0.39,0.94,0.61,1.53,0.61c0.81,0,1.55-0.42,2.04-1.14c0.41-0.61,0.63-1.41,0.63-2.3
		c0-0.88-0.19-1.74-0.57-2.53c-0.38-0.8-0.94-1.51-1.65-2.11C15.97,0.74,13.92,0.08,11.53,0.08L11.53,0.08z"/>
</g>
<g>
	<path fill="#EA00FF" d="M11.53,1.35c-6.05,0-9.93,4.97-9.93,9.5c0,4.73,3.08,7.77,7.23,7.77c3.06,0,6.09-1.66,6.09-4.38
		c0-1.65-1.37-2.75-3.41-2.75c-0.48,0-1.03,0.08-1.6,0.24c-0.24-0.22-0.51-0.43-0.76-0.64c-0.93-0.75-1.89-1.52-1.89-2.64
		c0-1.89,2.25-3.63,4.75-3.63c1.38,0,2.13,0.69,2.13,1.57c0,1.16-1.29,2.17-2.77,2.17c-1.04,0-1.45-0.33-1.64-0.49
		C9.64,8,9.57,7.94,9.47,7.94c-0.06,0-0.12,0.03-0.17,0.07C9.25,8.06,9.19,8.16,9.26,8.32c0.11,0.27,0.77,1.06,2.3,1.06
		c2.17,0,3.91-1.46,3.91-3.13c0-1.41-1.23-2.7-3.41-2.7c-4.12,0-6.44,2.34-6.44,4.96c0,1.71,1.28,2.65,2.39,3.52
		c0.12,0.09,0.23,0.18,0.34,0.27c-0.68,0.32-1.3,0.72-1.76,1.12c-0.61,0.54-0.93,1.32-0.93,1.82c0,0.75,0.71,1.54,2.08,1.54
		c1.79,0,3.3-1.42,3.3-3.01c0-0.47-0.16-0.91-0.49-1.35c0.34-0.07,0.66-0.1,0.93-0.1c1.19,0,2.03,0.8,2.03,1.94
		c0,2-2.1,3.44-4.62,3.44c-3.43,0-5.85-2.55-5.85-6.77c0-4.47,3.85-8.67,8.26-8.67c3.4,0,5.66,1.77,5.66,4.06
		c0,0.5-0.12,1.21-0.7,1.68c-0.05,0.04-0.08,0.11-0.08,0.17c0,0.19,0.23,0.62,0.82,0.62c0.76,0,1.39-0.83,1.39-2.17
		C18.4,3.87,15.99,1.35,11.53,1.35z M9.72,14.12c0,0.57-0.6,1.62-1.76,1.62c-0.61,0-1-0.33-1-0.84c0-0.66,0.82-1.44,2.1-2
		C9.52,13.35,9.72,13.73,9.72,14.12z"/>
</g>
</svg>
