<?xml version="1.0" encoding="utf-8"?>
<!-- Generator: Adobe Illustrator 16.0.0, SVG Export Plug-In . SVG Version: 6.00 Build 0)  -->
<!DOCTYPE svg PUBLIC "-//W3C//DTD SVG 1.1//EN" "http://www.w3.org/Graphics/SVG/1.1/DTD/svg11.dtd">
<svg version="1.1" id="Layer_1" xmlns="http://www.w3.org/2000/svg" xmlns:xlink="http://www.w3.org/1999/xlink" x="0px" y="0px"
	 width="2510.59px" height="917.816px" viewBox="0 1550.897 2510.59 917.816" enable-background="new 0 1550.897 2510.59 917.816"
	 xml:space="preserve">
<g>
	<path fill="#FFFFFF" d="M801.812,1834.441c-109.952,0-193.666,79.965-193.666,192.417c0,112.451,83.089,192.416,193.666,192.416
		c51.853,0,94.334-23.115,109.952-43.731v39.358h86.213v-375.462h-86.213v39.357C895.521,1857.557,853.04,1834.441,801.812,1834.441
		 M804.936,2138.685c-63.722,0-113.7-51.228-113.7-112.451s49.354-112.451,113.7-112.451c62.474,0,109.953,51.228,109.953,112.451
		S867.409,2138.685,804.936,2138.685 M1546.489,1834.441c-50.604,0-88.712,19.992-113.701,43.731v-39.358h-84.338v572.252
		l84.338-9.371v-226.776c24.364,25.614,65.597,43.731,113.701,43.731c114.95,0,191.167-75.593,191.167-192.417
		C1737.656,1908.785,1661.439,1834.441,1546.489,1834.441 M1542.74,2138.685c-66.846,0-111.201-48.104-111.201-112.451
		c0-64.972,43.73-112.451,111.201-112.451s111.827,47.479,111.827,112.451S1609.587,2138.685,1542.74,2138.685 M2386.125,1834.441
		c-54.352,0-81.215,19.367-99.332,43.731v-39.358h-84.963v375.462h84.963v-206.785c0-55.601,37.483-93.085,91.835-93.085h7.497
		V1834.441L2386.125,1834.441z M1962.559,1834.441c-109.328,0-195.54,85.588-195.54,192.417
		c0,106.828,86.212,192.416,198.039,192.416c91.835,0,166.178-49.979,189.293-118.073h-99.957
		c-12.494,24.364-44.355,40.607-89.336,40.607c-55.601,0-99.332-38.109-108.702-85.588h299.869
		c1.25-9.371,2.499-18.742,2.499-28.738C2158.099,1919.404,2071.887,1834.441,1962.559,1834.441 M1860.104,1980.628
		c12.494-39.358,54.352-70.595,102.455-70.595c48.729,0,90.586,31.236,102.455,70.595H1860.104z M1177.899,1908.16
		c-17.493,0-34.985,8.121-34.985,28.737c0,23.739,24.364,31.86,69.97,48.104c63.098,22.491,93.085,53.728,93.085,111.202
		c0,59.35-50.604,121.822-136.191,121.822c-87.462,0-132.442-64.348-135.566-118.074h81.84c4.998,23.74,22.49,43.106,53.727,43.106
		s49.979-21.241,49.979-46.854c0-17.492-6.247-36.234-59.35-49.979c-57.475-15.618-98.707-46.854-98.707-108.703
		c0-56.225,49.979-103.08,115.575-103.08c57.476,0,94.334,39.358,109.952,66.846l-68.72,32.486
		C1208.511,1916.906,1194.768,1908.16,1177.899,1908.16"/>
	<path fill="#FFFFFF" d="M353.882,1680.758c-153.684,0-272.382,119.948-272.382,268.634s118.698,268.634,272.382,268.634
		c96.833,0,188.668-52.478,230.524-128.069l-79.965-43.731c-30.611,54.977-84.963,86.213-150.56,86.213
		c-49.354,0-95.584-19.367-126.82-53.103c-33.735-35.609-51.853-82.464-51.853-130.568c0-48.104,18.117-94.334,51.853-130.567
		c31.236-33.736,77.467-53.103,126.82-53.103c51.853,0,83.089,18.117,104.954,33.735c22.49,16.867,48.104,33.11,88.087,33.11
		c75.593,0,108.078-60.599,114.95-92.46l-83.089-17.492c-0.625,3.124-6.247,26.238-31.861,26.238
		c-11.245,0-18.117-4.373-36.234-18.116C481.326,1710.745,440.719,1680.759,353.882,1680.758"/>
</g>
</svg>
