<?xml version="1.0" encoding="utf-8"?>
<!-- Generator: Adobe Illustrator 16.0.0, SVG Export Plug-In . SVG Version: 6.00 Build 0)  -->
<!DOCTYPE svg PUBLIC "-//W3C//DTD SVG 1.1//EN" "http://www.w3.org/Graphics/SVG/1.1/DTD/svg11.dtd">
<svg version="1.1" id="Layer_1" xmlns="http://www.w3.org/2000/svg" xmlns:xlink="http://www.w3.org/1999/xlink" x="0px" y="0px"
	 width="1192px" height="1232px" viewBox="0 0 1192 1232" enable-background="new 0 0 1192 1232" xml:space="preserve">
<path fill="#FFFFFF" d="M264.248,1010.711v18.434c0,1.691-1.356,3.209-3.222,3.209h-46.832v24.355h38.547
	c1.691,0,3.209,1.518,3.209,3.209v18.436c0,1.691-1.518,3.209-3.209,3.209h-38.547v41.084c0,1.691-1.518,3.223-3.209,3.223h-19.951
	c-1.866,0-3.223-1.529-3.223-3.223v-111.936c0-1.68,1.355-3.209,3.223-3.209h69.992
	C262.891,1007.502,264.248,1009.031,264.248,1010.711z M399.813,1007.502h-20.797c-1.853,0-3.209,1.529-3.209,3.209v68.486
	c0,11.828-8.955,21.309-21.133,21.309c-12.003,0-20.797-9.479-20.797-21.309v-68.486c0-1.68-1.342-3.209-3.208-3.209h-20.798
	c-1.691,0-3.209,1.529-3.209,3.209v69.83c0,25.711,21.469,47.02,48.013,47.02c26.72,0,48.362-21.309,48.362-47.02v-69.83
	C403.037,1009.031,401.505,1007.502,399.813,1007.502z M554.002,1007.502h-20.287c-1.865,0-3.209,1.529-3.209,3.209v60.027h-0.174
	l-67.468-64.93h-4.216c-1.692,0-3.224,1.355-3.224,3.047l0.175,113.789c0,1.693,1.518,3.225,3.209,3.225h20.112
	c1.866,0,3.224-1.531,3.224-3.225v-63.062h0.16l66.797,67.133c0.334,0.336,1.691,0.846,2.201,0.846h2.699
	c1.692,0,3.223-1.355,3.223-3.047v-113.803C557.225,1009.031,555.695,1007.502,554.002,1007.502z M649.518,1053.998
	c-13.373-5.398-18.447-10.139-18.447-16.396c0-4.562,4.564-8.619,10.66-8.619c10.311,0,22.664,9.291,24.182,10.139
	c1.516,1.182,4.564-0.336,5.746-2.189l8.619-13.021c0.672-1.184,1.021-4.23-1.008-5.412c-5.074-3.719-18.607-12.688-36.197-12.688
	c-26.033,0-39.043,16.916-39.043,33.646c0,20.301,18.26,31.619,32.801,37.363c11.492,4.578,17.414,9.979,17.414,17.094
	c0,5.906-4.9,10.137-11.668,10.137c-11.156,0-23.334-8.969-24.006-9.305c-1.182-0.832-4.391-1.182-5.746,1.021l-7.949,14.029
	c-1.355,2.363-0.846,3.049,0.846,4.74c3.881,3.881,16.061,13.021,38.037,13.021c24.854,0,39.904-17.588,39.904-35.002
	C683.662,1069.559,662.689,1059.246,649.518,1053.998z M753.129,1007.502h-20.287c-1.678,0-3.209,1.529-3.209,3.209v111.936
	c0,1.691,1.531,3.223,3.209,3.223h20.287c1.691,0,3.223-1.529,3.223-3.223v-111.936
	C756.352,1009.031,754.82,1007.502,753.129,1007.502z M880.104,1007.502h-71.859c-1.691,0-3.223,1.529-3.223,3.209v18.434
	c0,1.691,1.531,3.209,3.223,3.209H845.1v0.35l-44.979,86.908v3.035c0,1.691,1.529,3.223,3.209,3.223h73.389
	c1.867,0,3.209-1.529,3.209-3.223v-18.422c0-1.691-1.342-3.221-3.209-3.221h-36.855v-0.336l43.449-87.756v-2.201
	C883.312,1009.031,881.795,1007.502,880.104,1007.502z M1000.98,1007.502h-70.006c-1.865,0-3.221,1.529-3.221,3.209v111.936
	c0,1.691,1.354,3.223,3.221,3.223h70.006c1.854,0,3.209-1.529,3.209-3.223v-18.422c0-1.691-1.355-3.221-3.209-3.221h-46.844v-22.826
	h38.561c1.691,0,3.209-1.355,3.209-3.209v-18.436c0-1.689-1.518-3.209-3.209-3.209h-38.561v-20.971h46.844
	c1.854,0,3.209-1.518,3.209-3.209v-18.436C1004.189,1009.031,1002.834,1007.502,1000.98,1007.502z M1019.791,126.246v803.973
	c0,12.043-9.773,21.805-21.805,21.805H194.013c-12.043,0-21.805-9.762-21.805-21.805V126.246c0-12.03,9.761-21.806,21.805-21.806
	h803.973C1010.018,104.441,1019.791,114.215,1019.791,126.246z M975.096,168.646c0-10.781-8.729-19.509-19.496-19.509H236.401
	c-10.769,0-19.496,8.728-19.496,19.509v719.186c0,10.77,8.728,19.496,19.496,19.496H955.6c10.768,0,19.494-8.729,19.494-19.496
	V168.646H975.096z M353.909,488.638h45.126c3.812,0,7.264-3.438,7.264-7.264v-83.62h87.15c3.827,0,7.276-3.45,7.276-7.264v-41.676
	c0-3.812-3.451-7.264-7.276-7.264h-87.15v-45.771h105.895c4.216,0,7.264-3.451,7.264-7.264v-41.674c0-3.826-3.048-7.25-7.264-7.25
	H353.909c-4.189,0-7.264,3.424-7.264,7.25v234.533C346.645,485.2,349.719,488.638,353.909,488.638z M840.791,239.591h-45.879
	c-4.203,0-7.264,3.424-7.264,7.25V360.16h-0.389L646.242,235.751h-9.547c-3.84,0-7.277,3.061-7.277,6.888l0.391,238.735
	c0,3.826,3.438,7.264,7.264,7.264h45.488c4.201,0,7.266-3.438,7.266-7.264V361.167h0.389l139.486,129.377
	c0.766,0.778,3.828,1.92,4.969,1.92h6.123c3.84,0,7.275-3.074,7.275-6.888V246.841C848.068,243.015,844.631,239.591,840.791,239.591
	z M445.731,667.223c-29.887-11.305-41.245-18.555-41.245-31.619c0-9.52,10.217-17.992,23.857-17.992
	c23.054,0,50.686,16.783,54.095,18.557c3.41,2.457,10.218-0.727,12.862-4.592l19.294-27.176c1.518-2.456,2.27-8.808-2.269-11.29
	c-11.359-7.762-41.622-26.465-80.976-26.465c-58.271,0-87.405,35.299-87.405,70.22c0,42.348,40.87,65.99,73.416,77.994
	c25.739,9.52,38.963,18.193,38.963,33.016c0,12.354-10.982,21.174-26.101,21.174c-24.974,0-52.216-16.084-53.732-16.783
	c-2.659-1.771-9.842-2.471-12.863,2.109l-17.79,29.295c-3.021,4.941-1.893,6.338,1.894,9.883
	c8.699,8.123,35.955,27.174,85.137,27.174c55.625,0,89.286-36.707,89.286-73.053C522.156,699.688,475.244,678.152,445.731,667.223z
	 M831.311,762.014h-98.697v-0.779l98.256-179.847v-4.968c0-3.826-3.451-7.265-7.266-7.265H645.771c-3.84,0-7.264,3.438-7.264,7.265
	v41.676c0,3.812,3.424,7.25,7.264,7.25h98.697v0.779L642.764,804.062v6.891c0,3.811,3.465,7.25,7.264,7.25h181.283
	c4.203,0,7.264-3.439,7.264-7.25v-41.678C838.574,765.449,835.514,762.014,831.311,762.014z"/>
</svg>
