<?xml version="1.0" encoding="utf-8"?>
<!-- Generator: Adobe Illustrator 16.0.0, SVG Export Plug-In . SVG Version: 6.00 Build 0)  -->
<!DOCTYPE svg PUBLIC "-//W3C//DTD SVG 1.1//EN" "http://www.w3.org/Graphics/SVG/1.1/DTD/svg11.dtd">
<svg version="1.1" id="Layer_1" xmlns="http://www.w3.org/2000/svg" xmlns:xlink="http://www.w3.org/1999/xlink" x="0px" y="0px"
	 width="1192px" height="1232px" viewBox="667.795 -160.592 1192 1232" enable-background="new 667.795 -160.592 1192 1232"
	 xml:space="preserve">
<path fill="#323232" d="M923.542,853.618v18.435c0,1.691-1.356,3.209-3.222,3.209h-46.832v24.355h38.547
	c1.692,0,3.209,1.517,3.209,3.209v18.435c0,1.691-1.517,3.209-3.209,3.209h-38.547v41.084c0,1.692-1.517,3.223-3.209,3.223h-19.951
	c-1.866,0-3.223-1.53-3.223-3.223V853.618c0-1.679,1.356-3.209,3.223-3.209h69.992C922.186,850.409,923.542,851.939,923.542,853.618
	z M1059.108,850.409h-20.797c-1.853,0-3.209,1.53-3.209,3.209v68.488c0,11.828-8.956,21.308-21.133,21.308
	c-12.003,0-20.797-9.479-20.797-21.308v-68.488c0-1.679-1.342-3.209-3.208-3.209h-20.798c-1.691,0-3.209,1.53-3.209,3.209v69.83
	c0,25.712,21.469,47.02,48.013,47.02c26.719,0,48.362-21.308,48.362-47.02v-69.83C1062.331,851.939,1060.8,850.409,1059.108,850.409
	z M1213.297,850.409h-20.287c-1.866,0-3.209,1.53-3.209,3.209v60.029h-0.174l-67.468-64.93h-4.216c-1.692,0-3.223,1.355-3.223,3.047
	l0.175,113.789c0,1.692,1.517,3.223,3.209,3.223h20.112c1.866,0,3.223-1.53,3.223-3.223V902.49h0.161l66.796,67.132
	c0.335,0.336,1.692,0.846,2.202,0.846h2.699c1.692,0,3.223-1.355,3.223-3.047V853.618
	C1216.52,851.939,1214.989,850.409,1213.297,850.409z M1308.812,896.905c-13.373-5.398-18.447-10.138-18.447-16.395
	c0-4.564,4.564-8.619,10.66-8.619c10.311,0,22.664,9.291,24.181,10.137c1.517,1.182,4.565-0.336,5.747-2.188l8.619-13.023
	c0.672-1.182,1.021-4.229-1.007-5.411c-5.075-3.719-18.608-12.688-36.198-12.688c-26.033,0-39.043,16.917-39.043,33.646
	c0,20.301,18.26,31.619,32.801,37.365c11.492,4.578,17.414,9.977,17.414,17.092c0,5.908-4.9,10.137-11.668,10.137
	c-11.157,0-23.335-8.969-24.006-9.304c-1.182-0.833-4.391-1.182-5.747,1.021l-7.948,14.03c-1.356,2.363-0.846,3.048,0.846,4.739
	c3.881,3.881,16.059,13.023,38.037,13.023c24.852,0,39.903-17.588,39.903-35.002
	C1342.956,912.466,1321.984,902.154,1308.812,896.905z M1412.424,850.409h-20.287c-1.678,0-3.209,1.53-3.209,3.209v111.936
	c0,1.692,1.531,3.223,3.209,3.223h20.287c1.691,0,3.223-1.53,3.223-3.223V853.618
	C1415.646,851.939,1414.115,850.409,1412.424,850.409z M1539.398,850.409h-71.859c-1.691,0-3.222,1.53-3.222,3.209v18.435
	c0,1.691,1.53,3.209,3.222,3.209h36.855v0.349l-44.979,86.909v3.034c0,1.692,1.531,3.223,3.209,3.223h73.389
	c1.867,0,3.209-1.53,3.209-3.223v-18.421c0-1.691-1.342-3.222-3.209-3.222h-36.855v-0.336l43.449-87.755v-2.202
	C1542.607,851.939,1541.09,850.409,1539.398,850.409z M1660.275,850.409h-70.005c-1.866,0-3.222,1.53-3.222,3.209v111.936
	c0,1.692,1.355,3.223,3.222,3.223h70.005c1.854,0,3.209-1.53,3.209-3.223v-18.421c0-1.691-1.355-3.222-3.209-3.222h-46.844v-22.825
	h38.561c1.691,0,3.209-1.356,3.209-3.209v-18.435c0-1.691-1.518-3.209-3.209-3.209h-38.561v-20.972h46.844
	c1.854,0,3.209-1.518,3.209-3.209v-18.435C1663.484,851.939,1662.129,850.409,1660.275,850.409z M1679.086-30.847v803.974
	c0,12.043-9.773,21.804-21.805,21.804H853.308c-12.043,0-21.805-9.761-21.805-21.804V-30.847c0-12.03,9.761-21.805,21.805-21.805
	h803.973C1669.312-52.651,1679.086-42.877,1679.086-30.847z M1634.39,11.554c0-10.781-8.728-19.509-19.495-19.509H895.695
	c-10.768,0-19.496,8.728-19.496,19.509v719.186c0,10.769,8.728,19.495,19.496,19.495h719.199c10.768,0,19.495-8.727,19.495-19.495
	V11.554z M1013.203,331.546h45.126c3.813,0,7.264-3.438,7.264-7.264v-83.62h87.15c3.827,0,7.277-3.45,7.277-7.264v-41.676
	c0-3.813-3.451-7.264-7.277-7.264h-87.15v-45.771h105.894c4.216,0,7.264-3.451,7.264-7.264V89.749c0-3.826-3.048-7.25-7.264-7.25
	h-158.284c-4.189,0-7.264,3.424-7.264,7.25v234.533C1005.939,328.108,1009.014,331.546,1013.203,331.546z M1500.086,82.499h-45.879
	c-4.203,0-7.264,3.424-7.264,7.25v113.319h-0.389L1305.537,78.659h-9.547c-3.84,0-7.277,3.061-7.277,6.888l0.39,238.735
	c0,3.826,3.437,7.264,7.264,7.264h45.489c4.201,0,7.264-3.438,7.264-7.264V204.075h0.389l139.487,129.377
	c0.765,0.778,3.827,1.92,4.968,1.92h6.123c3.84,0,7.276-3.074,7.276-6.888V89.749C1507.362,85.923,1503.926,82.499,1500.086,82.499z
	 M1105.026,510.13c-29.887-11.305-41.246-18.555-41.246-31.619c0-9.52,10.217-17.991,23.858-17.991
	c23.053,0,50.685,16.783,54.095,18.556c3.41,2.457,10.217-0.726,12.862-4.592l19.294-27.176c1.517-2.457,2.269-8.808-2.269-11.291
	c-11.359-7.761-41.622-26.464-80.975-26.464c-58.271,0-87.406,35.298-87.406,70.22c0,42.348,40.87,65.991,73.416,77.994
	c25.739,9.52,38.963,18.193,38.963,33.016c0,12.353-10.982,21.174-26.101,21.174c-24.973,0-52.215-16.085-53.732-16.783
	c-2.659-1.772-9.842-2.471-12.863,2.108l-17.79,29.296c-3.021,4.941-1.893,6.338,1.893,9.882c8.7,8.123,35.956,27.175,85.137,27.175
	c55.625,0,89.286-36.707,89.286-73.053C1181.45,542.595,1134.538,521.06,1105.026,510.13z M1490.605,604.921h-98.697v-0.779
	l98.255-179.847v-4.968c0-3.826-3.45-7.264-7.264-7.264h-177.833c-3.84,0-7.264,3.438-7.264,7.264v41.676
	c0,3.812,3.424,7.25,7.264,7.25h98.697v0.779l-101.705,177.939v6.889c0,3.812,3.465,7.25,7.264,7.25h181.283
	c4.203,0,7.264-3.438,7.264-7.25v-41.676C1497.869,608.357,1494.809,604.921,1490.605,604.921z"/>
</svg>
