<?xml version="1.0" encoding="utf-8"?>
<!-- Generator: Adobe Illustrator 16.0.0, SVG Export Plug-In . SVG Version: 6.00 Build 0)  -->
<!DOCTYPE svg PUBLIC "-//W3C//DTD SVG 1.1//EN" "http://www.w3.org/Graphics/SVG/1.1/DTD/svg11.dtd">
<svg version="1.1" id="Layer_1" xmlns:sketch="http://www.bohemiancoding.com/sketch/ns"
	 xmlns="http://www.w3.org/2000/svg" xmlns:xlink="http://www.w3.org/1999/xlink" x="0px" y="0px" width="627.5px" height="293.5px"
	 viewBox="-50 -7.5 627.5 293.5" enable-background="new -50 -7.5 627.5 293.5" xml:space="preserve">
<title>oddbird_logo</title>
<description>Created with Sketch.</description>
<g id="Page-1" sketch:type="MSPage">
	<g id="oddbird_logo" sketch:type="MSLayerGroup">
		<path id="egg" sketch:type="MSShapeGroup" fill="#FF8B3D" d="M448.796,88.439c-13.164-5.766-51.014-23.045-68.297-17.284
			c-11.78,3.923-25.514,32.843-34.562,41.138c-0.92,0.854-2.053,1.811-3.326,2.827c-24.642-46.938-72.544-73.379-104.399-64.495
			c-21.712,6.049-41.645,30.938-50.699,63.333c-15.674-9.388-23.868-25.23-37.572-39.349c-10.959-11.293-25.481-6.601-38.175-0.744
			c-25.027,11.546-57.986,28.7-56.86,55.52c14.745-10.605,28.966-7.511,33.586,11.734c0.897,3.638,9.25-12.416,18.944-16.117
			c11.102-4.236,23.414,5.992,25.676,17.171c0.534,1.97,10.172-12.077,19.768-7.494c6.908,3.3,11.021,17.911,13.476,16.28
			c7.009-4.65,11.739-9.874,16.772-13.801c-1.685,16.464-0.564,33.994,4.333,51.458c0.272,0.982,0.583,1.94,0.874,2.914
			c3.326-30.966,20.537-56.563,39.657-61.899c27.047-7.539,70.159,20.236,82.974,65.89c9.519,33.943,2.909,67.252-14.676,85.911
			c2.114-0.359,4.218-0.795,6.311-1.384c45.816-12.859,68.525-74.638,50.746-137.992c-0.349-1.222-0.729-2.409-1.102-3.613
			c11.038,6.093,16.499,15.87,16.909,14.181c4.194-19.399,27.598-19.956,42.835-6.026c1.484,1.275,1.974-15.004,8.016-17.221
			c9.352-3.438,19.804,1.786,29.62,7.611c1.775,1.045,1.301-7.766,1.156-8.87c-0.568-4.228-0.246-8.757,4.511-10.195
			c7.397-2.233,15.728,1.581,22.519,3.128C475.75,106.331,461.373,93.934,448.796,88.439L448.796,88.439L448.796,88.439z"/>
		<g id="bird" transform="translate(85.000000, 1.000000)" sketch:type="MSShapeGroup">
			<path id="Shape" fill="#FF8B3D" d="M397.276,73.184h2.897c7.663,0,9.048-1.383,9.048-9.18V11.09c0-7.785-1.385-9.172-9.048-9.172
				h-2.897v-6.278h24.129c1.757,0,4.276,0,7.542-0.129c4.397-0.123,9.045-0.123,11.692-0.123c16.962,0,27.142,3.641,35.312,12.822
				c6.91,7.662,10.555,17.966,10.555,29.907c0,15.207-6.279,28.28-16.968,35.563c-6.157,4.152-12.689,5.782-22.745,5.782H397.27
				v-6.279H397.276L397.276,73.184z M436.616,73.305c12.318,0,18.981-2.639,23.751-9.301c4.15-5.904,6.538-15.329,6.538-25.886
				c0-15.336-4.903-26.39-13.948-31.921c-6.151-3.648-9.798-4.274-25.639-4.274v63.211
				C427.318,71.795,428.953,73.305,436.616,73.305L436.616,73.305L436.616,73.305z"/>
			<path id="Shape_1_" fill="#FF8B3D" d="M313.204,11.09v51.724c5.876,0.895,12.101,2.484,18.25,4.407
				c-0.086-0.94-0.152-1.97-0.152-3.224V41.5c1.384-0.116,2.009-0.116,2.641-0.116c6.287,0,9.926,3.519,18.852,18.351
				c8.293,13.698,8.539,14.075,14.331,19.728h22.622v-5.782h-0.879c-5.028,0-6.291-1.003-12.191-10.051
				c-13.7-20.861-15.584-22.494-28.399-24.377c7.536-0.504,11.053-1.383,14.572-3.771c6.538-4.275,9.93-10.808,9.93-18.852
				c0-13.062-8.293-20.983-21.869-20.983H301.14v6.281h3.018C311.829,1.922,313.204,3.306,313.204,11.09L313.204,11.09
				L313.204,11.09z M331.302,1.922h7.916c5.162,0,6.917,0.375,9.426,2.011c3.897,2.509,6.038,7.409,6.038,14.075
				c0,11.563-5.281,16.844-16.715,16.844h-6.659V1.922H331.302L331.302,1.922z"/>
			<path id="Shape_2_" fill="#FF8B3D" d="M278.489,64.004V11.09c0-4.778,0.251-6.028,1.51-7.287
				c1.386-1.386,3.517-1.885,7.542-1.885h2.766v-6.278h-41.734v6.281h2.771c4.021,0,6.155,0.626,7.542,1.885
				c1.25,1.259,1.505,2.513,1.505,7.287V64c0,7.792-1.382,9.18-9.047,9.18h-2.771v6.28h26.91c1.9-2.562,3.839-4.986,5.807-7.141
				C279.03,71.233,278.489,68.868,278.489,64.004z"/>
			<path id="Shape_3_" fill="#FF8B3D" d="M177.46,3.807c1.256,1.259,1.512,2.516,1.512,7.287v30.992
				c6.028,1.074,12.086,2.911,18.097,5.373v-7.956h4.399c7.791,0,9.928,0.498,12.694,2.639c3.645,2.892,5.653,8.166,5.653,14.825
				c0,1.038-0.066,2.061-0.165,3.057c4.912,3.474,9.7,7.341,14.261,11.604c3.425-3.956,5.263-9.095,5.263-15.04
				c0-12.69-6.911-19.727-21.873-22.498c4.65-0.371,6.661-0.998,9.302-2.633c5.154-3.271,8.165-8.924,8.165-15.331
				c0-11.689-9.173-20.486-21.362-20.486h-45.999v6.281h2.517C173.942,1.922,176.08,2.427,177.46,3.807L177.46,3.807L177.46,3.807z
				 M197.068,3.179h2.389c8.043,0,9.802,0.246,12.444,2.257c3.141,2.261,4.65,6.035,4.65,11.94c0,5.023-1.131,9.298-3.02,11.812
				c-2.258,2.891-5.283,3.897-12.572,3.897h-3.892V3.179L197.068,3.179z"/>
		</g>
		<g id="odd" sketch:type="MSShapeGroup">
			<path id="Shape_4_" fill="#FF8B3D" d="M166.546,12.09V65c0,7.224-1.253,8.924-7.539,9.134c1.872,2.105,3.642,4.222,5.354,6.326
				h29.823c1.287-2.169,2.636-4.261,4.021-6.28c-1.342,0.081-2.759,0.121-4.268,0.121c-7.66,0-9.295-1.509-9.295-8.168V2.922
				c15.831,0,19.478,0.626,25.639,4.274c9.049,5.532,13.945,16.585,13.945,31.921c0,3.665-0.304,7.174-0.851,10.46
				c4.204-2.514,8.535-4.45,12.957-5.687c2.36-0.657,4.812-1.148,7.333-1.474c0.068-1.097,0.173-2.18,0.173-3.303
				c0-11.94-3.645-22.244-10.558-29.906c-8.172-9.175-18.35-12.813-35.313-12.813c-2.639,0-7.289,0-11.687,0.119
				c-3.271,0.129-5.784,0.129-7.542,0.129h-24.131v6.281h2.892C165.164,2.922,166.546,4.306,166.546,12.09L166.546,12.09
				L166.546,12.09z"/>
			<path id="Shape_5_" fill="#FF8B3D" d="M94.818,74.261c-6.326-0.22-7.793-1.946-7.793-8.128V2.922
				c15.832,0,19.476,0.626,25.636,4.274c9.049,5.532,13.949,16.585,13.949,31.921c0,9.248-1.831,17.627-5.075,23.53
				c3.914-1.129,8.024-1.912,12.135-1.912c2.484,0,4.852,0.305,7.12,0.845c3.478-6.459,5.429-14.118,5.429-22.466
				c0-11.94-3.646-22.244-10.56-29.906c-8.17-9.181-18.348-12.822-35.311-12.822c-2.642,0-7.293,0-11.691,0.122
				c-3.277,0.13-5.789,0.13-7.548,0.13H56.983v6.281h2.891c7.667,0,9.049,1.384,9.049,9.172v52.908c0,7.791-1.382,9.179-9.049,9.179
				h-2.891v6.28h26.61C87.393,78.18,91.186,76.113,94.818,74.261L94.818,74.261L94.818,74.261z"/>
			<path id="Shape_6_" fill="#FF8B3D" d="M-30.686,7.572C-21.266-1.979-9.953-6.5,4.125-6.5c25.764,0,44.991,18.842,44.991,43.984
				c0,26.77-19.476,46.127-46.245,46.127c-26.518,0-45.871-18.847-45.871-44.491C-43.001,26.67-38.733,15.864-30.686,7.572
				L-30.686,7.572L-30.686,7.572z M3.117,75.81c8.295,0,15.207-3.267,19.231-8.8c4.148-5.772,7.037-17.842,7.037-29.282
				c0-12.193-3.136-23.5-8.042-29.283C17.321,3.921,10.411,1.032,3.246,1.032c-17.094,0-26.522,13.066-26.522,36.576
				C-23.276,62.361-13.975,75.81,3.117,75.81L3.117,75.81L3.117,75.81z"/>
		</g>
	</g>
</g>
</svg>
