<?xml version="1.0" encoding="utf-8"?>
<!-- Generator: Adobe Illustrator 16.0.0, SVG Export Plug-In . SVG Version: 6.00 Build 0)  -->
<!DOCTYPE svg PUBLIC "-//W3C//DTD SVG 1.1//EN" "http://www.w3.org/Graphics/SVG/1.1/DTD/svg11.dtd">
<svg version="1.1" id="Layer_1" xmlns="http://www.w3.org/2000/svg" xmlns:xlink="http://www.w3.org/1999/xlink" x="0px" y="0px"
	 width="560px" height="139.478px" viewBox="0 404.594 560 139.478" enable-background="new 0 404.594 560 139.478"
	 xml:space="preserve">
<g>
	<path fill="#FFFFFF" d="M355.55,493.289c0-0.021,0.003-0.043,0.003-0.064s-0.003-0.047-0.003-0.065v-77.234h-9.544v51.975
		c-7.231-8.401-17.887-13.81-29.581-13.81c-21.681,0-38.86,18.137-38.86,39.681c0,20.995,17.865,38.582,38.86,38.582
		c21.334,0,39.008-17.608,39.125-38.915h0.003v-0.148H355.55z M316.558,523.763c-16.498,0-29.449-13.908-29.449-30.137
		c0-16.495,12.54-30.946,29.449-30.946c16.318,0,29.377,13.828,29.448,29.995v0.284C345.935,509.67,333.685,523.763,316.558,523.763
		z"/>
	<path fill="#FFFFFF" d="M198.182,531.671c-20.917,0-38.715-17.52-38.715-38.438c0-21.461,17.115-39.529,38.715-39.529
		c21.189,0,38.98,17.797,38.98,38.986C237.162,514.013,219.503,531.671,198.182,531.671z M198.314,462.267
		c-16.837,0-29.335,14.396-29.335,30.828c0,16.167,12.902,30.022,29.335,30.022c17.115,0,29.341-14.124,29.341-30.834
		C227.655,476.119,214.614,462.267,198.314,462.267z"/>
	<path fill="#FFFFFF" d="M256.373,486.44v43.465h-9.507v-74.294h9.507v10.732h0.271c4.074-9.507,11.278-11.954,20.917-12.637v10.057
		C264.524,464.847,256.373,473.128,256.373,486.44z"/>
	<path fill="#FFFFFF" d="M402.604,531.671c-20.918,0-38.715-17.52-38.715-38.438c0-21.461,17.115-39.529,38.715-39.529
		c21.183,0,38.979,17.797,38.979,38.986C441.584,514.013,423.926,531.671,402.604,531.671z M402.737,462.267
		c-16.844,0-29.341,14.396-29.341,30.828c0,16.167,12.907,30.022,29.341,30.022c17.114,0,29.341-14.124,29.341-30.834
		C432.074,476.119,419.037,462.267,402.737,462.267z"/>
	<path fill="#FFFFFF" d="M461.116,486.44v43.465h-9.507v-74.294h9.507v10.732h0.271c4.074-9.507,11.272-11.954,20.917-12.637v10.057
		C469.265,464.847,461.116,473.128,461.116,486.44z"/>
	<path fill="#FFFFFF" d="M521.02,531.671c-20.917,0-38.715-17.52-38.715-38.438c0-21.461,17.115-39.529,38.715-39.529
		c21.184,0,38.98,17.797,38.98,38.986C560,514.013,542.342,531.671,521.02,531.671z M521.152,462.267
		c-16.843,0-29.341,14.396-29.341,30.828c0,16.167,12.908,30.022,29.341,30.022c17.115,0,29.341-14.124,29.341-30.834
		C550.493,476.119,537.453,462.267,521.152,462.267z"/>
</g>
<path fill="#6CB33F" d="M120.536,473.131l-17.513-30.548c-4.271-7.451-14.797-13.568-23.384-13.596l-35.214-0.108
	c-8.59-0.027-19.149,6.028-23.467,13.454L3.263,472.77c-4.315,7.427-4.355,19.6-0.081,27.051l17.51,30.548
	c4.271,7.454,14.794,13.571,23.384,13.596l35.202,0.108c8.59,0.027,19.152-6.028,23.47-13.451l17.704-30.446
	C124.771,492.752,124.808,480.582,120.536,473.131z M97.017,491.872l-11.67,20.066l-14.148-17.054
	c-1.831-2.2-2.318-1.889-1.093,0.697c0,0,6.914,14.578,7.963,22.328c-1.534,0.611-3.118,0.985-4.587,0.979l-23.464-0.07
	c-4.296-0.013-9.556-3.074-11.692-6.8l-11.667-20.359c-0.756-1.317-1.229-2.938-1.445-4.636c0.275,0.003,0.553,0,0.843-0.019
	l27.248-1.95c2.855-0.204,2.855-0.516-0.003-0.688l-27.421-1.664c-0.219-0.013-0.429-0.006-0.639-0.006
	c0.231-1.676,0.707-3.266,1.46-4.562l11.794-20.284c2.157-3.714,7.438-6.741,11.732-6.729l23.47,0.07
	c1.247,0.003,2.571,0.287,3.883,0.747c-0.154,0.234-0.302,0.47-0.42,0.737l-9.973,22.601c-1.154,2.62-0.744,2.852,0.914,0.519
	c0,0,10.862-15.27,16.47-18.992c0.302,0.386,0.586,0.778,0.821,1.186l11.67,20.359C99.196,482.072,99.177,488.159,97.017,491.872z"
	/>
</svg>
