<?xml version="1.0" encoding="utf-8"?>
<!-- Generator: Adobe Illustrator 16.0.0, SVG Export Plug-In . SVG Version: 6.00 Build 0)  -->
<!DOCTYPE svg PUBLIC "-//W3C//DTD SVG 1.1//EN" "http://www.w3.org/Graphics/SVG/1.1/DTD/svg11.dtd">
<svg version="1.1" id="Layer_1" xmlns="http://www.w3.org/2000/svg" xmlns:xlink="http://www.w3.org/1999/xlink" x="0px" y="0px"
	 width="792px" height="612px" viewBox="0 0 792 612" enable-background="new 0 0 792 612" xml:space="preserve">
<g>
	<g>
		<path fill="#009DDC" d="M335.451,108.438c23.288-24.258,55.706-39.312,91.561-39.312c47.655,0,89.241,26.574,111.379,66.031
			c19.25-8.602,40.55-13.385,62.957-13.385c85.963,0,155.652,70.298,155.652,157.019c0,86.72-69.689,157.021-155.652,157.021
			c-10.492,0-20.747-1.054-30.663-3.054c-19.495,34.776-56.661,58.277-99.309,58.277c-17.852,0-34.74-4.121-49.778-11.458
			c-19.764,46.502-65.825,79.104-119.497,79.104c-55.901,0-103.545-35.37-121.823-84.973c-7.994,1.69-16.28,2.58-24.771,2.58
			c-66.555,0-120.506-54.517-120.506-121.762c0-45.074,24.237-84.418,60.259-105.473c-7.416-17.07-11.536-35.897-11.536-55.692
			c0-77.344,62.782-140.044,140.23-140.044C269.422,53.319,309.831,74.937,335.451,108.438z"/>
	</g>
	<g>
		<g>
			<path fill="#FFFFFF" d="M139.573,315.389c-0.456,1.184,0.162,1.43,0.308,1.64c1.354,0.981,2.734,1.69,4.124,2.487
				c7.36,3.899,14.318,5.043,21.586,5.043c14.811,0,24.012-7.875,24.012-20.553v-0.251c0-11.724-10.384-15.983-20.118-19.057
				l-1.272-0.413c-7.338-2.383-13.678-4.44-13.678-9.278v-0.25c0-4.138,3.707-7.184,9.444-7.184c6.38,0,13.941,2.122,18.818,4.814
				c0,0,1.437,0.928,1.959-0.46c0.283-0.748,2.752-7.384,3.01-8.104c0.281-0.78-0.212-1.361-0.718-1.671
				c-5.569-3.386-13.258-5.695-21.219-5.695l-1.478,0.006c-13.556,0-23.021,8.192-23.021,19.927v0.25
				c0,12.364,10.439,16.381,20.222,19.177l1.57,0.484c7.125,2.186,13.275,4.073,13.275,9.087v0.25c0,4.588-4,7.996-10.438,7.996
				c-2.499,0-10.464-0.041-19.074-5.487c-1.043-0.604-1.64-1.044-2.443-1.535c-0.423-0.259-1.483-0.723-1.945,0.669L139.573,315.389
				z"/>
			<path fill="#FFFFFF" d="M356.39,315.389c-0.454,1.184,0.163,1.43,0.31,1.64c1.354,0.981,2.732,1.69,4.123,2.487
				c7.36,3.899,14.317,5.043,21.585,5.043c14.812,0,24.014-7.875,24.014-20.553v-0.251c0-11.724-10.386-15.983-20.118-19.057
				l-1.271-0.413c-7.341-2.383-13.679-4.44-13.679-9.278v-0.25c0-4.138,3.708-7.184,9.444-7.184c6.379,0,13.941,2.122,18.816,4.814
				c0,0,1.436,0.928,1.962-0.46c0.282-0.748,2.75-7.384,3.011-8.104c0.28-0.78-0.214-1.361-0.719-1.671
				c-5.57-3.386-13.262-5.695-21.219-5.695l-1.477,0.006c-13.555,0-23.023,8.192-23.023,19.927v0.25
				c0,12.364,10.439,16.381,20.222,19.177l1.571,0.484c7.123,2.186,13.275,4.073,13.275,9.087v0.25c0,4.588-4,7.996-10.437,7.996
				c-2.499,0-10.464-0.041-19.078-5.487c-1.042-0.604-1.651-1.026-2.442-1.535c-0.269-0.173-1.518-0.658-1.945,0.669L356.39,315.389
				z"/>
			<path fill="#FFFFFF" d="M516.77,277.262c-1.216-4.107-3.11-7.724-5.627-10.74c-2.522-3.024-5.717-5.453-9.495-7.218
				c-3.775-1.763-8.233-2.655-13.249-2.655s-9.479,0.892-13.256,2.655s-6.973,4.192-9.497,7.222
				c-2.517,3.023-4.408,6.637-5.625,10.736c-1.204,4.08-1.817,8.548-1.817,13.285c0,4.74,0.615,9.211,1.817,13.285
				c1.215,4.101,3.104,7.714,5.627,10.743c2.528,3.027,5.725,5.437,9.501,7.156c3.78,1.72,8.238,2.594,13.25,2.594
				s9.466-0.874,13.243-2.594c3.778-1.72,6.977-4.131,9.501-7.156c2.517-3.021,4.409-6.634,5.627-10.743
				c1.209-4.082,1.817-8.549,1.817-13.285C518.587,285.815,517.977,281.345,516.77,277.262 M504.403,290.546
				c0,7.165-1.336,12.82-3.966,16.802c-2.609,3.954-6.55,5.878-12.041,5.878c-5.496,0-9.415-1.919-11.982-5.874
				c-2.592-3.986-3.905-9.642-3.905-16.806c0-7.159,1.312-12.793,3.903-16.742c2.567-3.913,6.486-5.813,11.984-5.813
				c5.491,0,9.432,1.902,12.043,5.817C503.069,277.753,504.403,283.387,504.403,290.546"/>
			<path fill="#FFFFFF" d="M618.285,311.312c-0.407-1.205-1.576-0.749-1.576-0.749c-1.798,0.688-3.71,1.32-5.75,1.64
				c-2.059,0.323-4.339,0.485-6.777,0.485c-5.976,0-10.736-1.782-14.137-5.298c-3.412-3.52-5.333-9.206-5.312-16.901
				c0.023-6.998,1.714-12.263,4.746-16.282c3.012-3.99,7.603-6.034,13.714-6.034c5.102,0,8.993,0.59,13.073,1.867
				c0,0,0.965,0.426,1.432-0.854c1.085-3.002,1.888-5.142,3.041-8.445c0.329-0.941-0.474-1.342-0.77-1.458
				c-1.602-0.624-5.388-1.647-8.243-2.08c-2.676-0.405-5.798-0.624-9.276-0.624c-5.193,0-9.823,0.891-13.78,2.652
				c-3.952,1.761-7.303,4.189-9.957,7.213c-2.652,3.025-4.677,6.639-6.013,10.738c-1.342,4.083-2.02,8.562-2.02,13.308
				c0,10.258,2.768,18.539,8.227,24.608c5.474,6.092,13.689,9.184,24.411,9.184c6.332,0,12.826-1.28,17.506-3.122
				c0,0,0.893-0.431,0.503-1.469L618.285,311.312z"/>
			<path fill="#FFFFFF" d="M681.535,274.931c-1.05-3.964-3.648-7.966-5.351-9.797c-2.695-2.899-5.329-4.93-7.948-6.053
				c-3.412-1.464-7.507-2.433-11.986-2.433c-5.224,0-9.969,0.88-13.819,2.683c-3.853,1.807-7.092,4.282-9.634,7.353
				c-2.545,3.068-4.45,6.725-5.669,10.866c-1.218,4.12-1.835,8.613-1.835,13.353c0,4.825,0.637,9.324,1.9,13.362
				c1.269,4.08,3.308,7.66,6.06,10.637c2.752,2.986,6.293,5.335,10.525,6.97c4.211,1.628,9.322,2.475,15.188,2.459
				c12.088-0.038,18.451-2.734,21.078-4.188c0.464-0.257,0.902-0.707,0.354-1.998l-2.736-7.662
				c-0.419-1.144-1.575-0.727-1.575-0.727c-2.998,1.118-7.248,3.114-17.182,3.095c-6.485-0.012-11.295-1.93-14.317-4.926
				c-3.089-3.061-4.606-7.563-4.867-13.918l41.841,0.032c0,0,1.103-0.013,1.216-1.089
				C682.83,292.508,684.222,284.355,681.535,274.931z M639.916,283.68c0.591-3.985,1.684-7.292,3.38-9.875
				c2.568-3.913,6.474-6.069,11.969-6.069c5.492,0,9.117,2.16,11.729,6.075c1.723,2.583,2.476,6.03,2.772,9.875L639.916,283.68z"/>
			<path fill="#FFFFFF" d="M346.381,274.931c-1.048-3.964-3.645-7.966-5.351-9.797c-2.693-2.899-5.329-4.93-7.946-6.053
				c-3.414-1.464-7.509-2.433-11.984-2.433c-5.224,0-9.971,0.88-13.82,2.683c-3.852,1.807-7.092,4.282-9.634,7.353
				c-2.542,3.068-4.448,6.725-5.668,10.866c-1.216,4.12-1.835,8.613-1.835,13.353c0,4.825,0.639,9.324,1.9,13.362
				c1.271,4.08,3.312,7.66,6.063,10.637c2.752,2.986,6.291,5.335,10.523,6.97c4.213,1.628,9.323,2.475,15.19,2.459
				c12.09-0.038,18.452-2.734,21.076-4.188c0.464-0.257,0.903-0.707,0.354-1.998l-2.736-7.662c-0.419-1.144-1.577-0.727-1.577-0.727
				c-2.998,1.118-7.249,3.114-17.184,3.095c-6.483-0.012-11.293-1.93-14.315-4.926c-3.089-3.061-4.608-7.563-4.865-13.918
				l41.841,0.032c0,0,1.103-0.013,1.214-1.089C347.678,292.508,349.069,284.355,346.381,274.931z M304.762,283.68
				c0.591-3.985,1.685-7.292,3.38-9.875c2.566-3.913,6.471-6.069,11.967-6.069s9.117,2.16,11.73,6.075
				c1.722,2.583,2.476,6.03,2.771,9.875L304.762,283.68z"/>
			<path fill="#FFFFFF" d="M230.96,281.674c-1.7-0.125-3.899-0.187-6.534-0.187c-3.584,0-7.053,0.445-10.305,1.322
				c-3.269,0.88-6.21,2.247-8.738,4.053c-2.543,1.826-4.587,4.144-6.068,6.899c-1.487,2.759-2.241,6.007-2.241,9.645
				c0,3.71,0.646,6.926,1.919,9.554c1.278,2.643,3.115,4.846,5.458,6.55c2.326,1.696,5.194,2.938,8.523,3.693
				c3.285,0.75,7.014,1.133,11.08,1.133c4.297,0,8.573-0.361,12.713-1.061c4.109-0.699,9.141-1.723,10.537-2.048
				c1.395-0.319,2.934-0.742,2.934-0.742c1.036-0.263,0.956-1.371,0.956-1.371l-0.02-38.269c0-8.397-2.239-14.613-6.651-18.475
				c-4.389-3.84-10.856-5.787-19.219-5.787c-3.142,0-8.188,0.426-11.217,1.033c0,0-9.134,1.769-12.899,4.719
				c0,0-0.826,0.509-0.376,1.665l2.962,7.958c0.369,1.031,1.372,0.679,1.372,0.679s0.317-0.125,0.688-0.346
				c8.049-4.375,18.235-4.245,18.235-4.245c4.522,0,8.001,0.911,10.339,2.705c2.288,1.753,3.445,4.393,3.445,9.97v1.771
				C234.264,281.973,230.96,281.674,230.96,281.674z M214.306,311.082c-1.639-1.309-1.865-1.634-2.414-2.481
				c-0.831-1.283-1.253-3.11-1.253-5.443c0-3.676,1.219-6.323,3.734-8.103c-0.024,0.008,3.611-3.133,12.138-3.022
				c5.997,0.078,11.364,0.964,11.364,0.964v19.025h0.002c0,0-5.318,1.142-11.303,1.502
				C218.061,314.039,214.282,311.074,214.306,311.082z"/>
			<path fill="#FFFFFF" d="M568.489,260.114c0.321-0.947-0.353-1.402-0.625-1.506c-0.715-0.273-4.275-1.025-7.016-1.196
				c-5.259-0.323-8.177,0.561-10.791,1.739c-2.596,1.169-5.473,3.058-7.07,5.215l-0.004-5.1c0-0.7-0.5-1.269-1.201-1.269h-10.73
				c-0.699,0-1.199,0.568-1.199,1.269v62.427c0,0.699,0.566,1.268,1.268,1.268h10.997c0.699,0,1.268-0.568,1.268-1.268v-31.189
				c0-4.188,0.462-8.359,1.381-10.984c0.908-2.597,2.141-4.669,3.668-6.157c1.525-1.482,3.267-2.524,5.169-3.107
				c1.946-0.595,4.097-0.789,5.615-0.789c2.188,0,4.597,0.559,4.597,0.559c0.809,0.09,1.255-0.404,1.527-1.129
				C566.064,266.987,568.102,261.251,568.489,260.114z"/>
			<path fill="#FFFFFF" d="M465.289,231.185c-1.336-0.415-2.548-0.688-4.135-0.983c-1.609-0.291-3.52-0.442-5.688-0.442
				c-7.565,0-13.531,2.143-17.723,6.364c-4.16,4.193-6.99,10.579-8.408,18.98l-0.513,2.832h-9.501c0,0-1.16-0.042-1.402,1.219
				l-1.558,8.702c-0.111,0.833,0.247,1.353,1.365,1.351h9.244l-9.385,52.374c-0.73,4.219-1.571,7.686-2.505,10.315
				c-0.921,2.595-1.814,4.54-2.921,5.952c-1.065,1.367-2.077,2.374-3.827,2.957c-1.445,0.486-3.105,0.709-4.923,0.709
				c-1.013,0-2.364-0.168-3.354-0.368c-0.995-0.197-1.516-0.419-2.26-0.732c0,0-1.085-0.413-1.512,0.672
				c-0.349,0.888-2.811,7.668-3.106,8.506c-0.292,0.827,0.125,1.48,0.646,1.669c1.232,0.438,2.148,0.723,3.825,1.12
				c2.329,0.549,4.291,0.582,6.131,0.582c3.85,0,7.361-0.543,10.271-1.593c2.93-1.06,5.479-2.9,7.734-5.394
				c2.437-2.699,3.968-5.516,5.438-9.362c1.451-3.814,2.689-8.545,3.679-14.061l9.426-53.346h13.782c0,0,1.16,0.042,1.402-1.219
				l1.56-8.7c0.109-0.834-0.247-1.354-1.365-1.35h-13.381c0.068-0.304,0.678-5.006,2.213-9.438c0.654-1.892,1.885-3.416,2.935-4.465
				c1.027-1.029,2.209-1.763,3.504-2.18c1.327-0.43,2.84-0.645,4.49-0.645c1.262,0,2.499,0.147,3.438,0.346
				c1.297,0.276,1.802,0.421,2.139,0.523c1.367,0.416,1.547,0.012,1.815-0.646l3.2-8.79
				C466.388,231.702,465.583,231.298,465.289,231.185z"/>
			<path fill="#FFFFFF" d="M278.335,321.693c0,0.699-0.501,1.268-1.199,1.268h-11.099c-0.701,0-1.202-0.568-1.202-1.268v-89.316
				c0-0.7,0.501-1.267,1.202-1.267h11.099c0.699,0,1.199,0.567,1.199,1.267V321.693z"/>
		</g>
	</g>
</g>
</svg>
