<?xml version="1.0" encoding="utf-8"?>
<!-- Generator: Adobe Illustrator 16.0.0, SVG Export Plug-In . SVG Version: 6.00 Build 0)  -->
<!DOCTYPE svg PUBLIC "-//W3C//DTD SVG 1.1//EN" "http://www.w3.org/Graphics/SVG/1.1/DTD/svg11.dtd">
<svg version="1.1" id="Layer_1" xmlns="http://www.w3.org/2000/svg" xmlns:xlink="http://www.w3.org/1999/xlink" x="0px" y="0px"
	 width="792px" height="612px" viewBox="0 0 792 612" enable-background="new 0 0 792 612" xml:space="preserve">
<g>
	<g>
		<circle fill-rule="evenodd" clip-rule="evenodd" fill="#79B542" cx="395.998" cy="248.896" r="191.841"/>
		<circle fill-rule="evenodd" clip-rule="evenodd" fill="#7AB642" cx="395.998" cy="247.515" r="188.592"/>
		<circle fill-rule="evenodd" clip-rule="evenodd" fill="#7BB642" cx="395.998" cy="246.135" r="185.343"/>
		<circle fill-rule="evenodd" clip-rule="evenodd" fill="#7CB742" cx="395.998" cy="244.755" r="182.094"/>
		<circle fill-rule="evenodd" clip-rule="evenodd" fill="#7DB842" cx="395.997" cy="243.375" r="178.845"/>
		<circle fill-rule="evenodd" clip-rule="evenodd" fill="#7EB842" cx="395.998" cy="241.994" r="175.596"/>
		<circle fill-rule="evenodd" clip-rule="evenodd" fill="#7FB942" cx="395.998" cy="240.614" r="172.347"/>
		<circle fill-rule="evenodd" clip-rule="evenodd" fill="#80BA41" cx="395.998" cy="239.233" r="169.098"/>
		<circle fill-rule="evenodd" clip-rule="evenodd" fill="#81BA41" cx="395.997" cy="237.853" r="165.848"/>
		<circle fill-rule="evenodd" clip-rule="evenodd" fill="#82BB41" cx="395.997" cy="236.473" r="162.599"/>
		<circle fill-rule="evenodd" clip-rule="evenodd" fill="#83BC41" cx="395.998" cy="235.092" r="159.351"/>
		<circle fill-rule="evenodd" clip-rule="evenodd" fill="#84BC41" cx="395.998" cy="233.711" r="156.101"/>
		<circle fill-rule="evenodd" clip-rule="evenodd" fill="#85BD41" cx="395.998" cy="232.331" r="152.852"/>
		<circle fill-rule="evenodd" clip-rule="evenodd" fill="#86BE41" cx="395.998" cy="230.951" r="149.603"/>
		<circle fill-rule="evenodd" clip-rule="evenodd" fill="#87BE41" cx="395.998" cy="229.571" r="146.354"/>
		<circle fill-rule="evenodd" clip-rule="evenodd" fill="#88BF41" cx="395.998" cy="228.19" r="143.105"/>
		<circle fill-rule="evenodd" clip-rule="evenodd" fill="#89C041" cx="395.998" cy="226.81" r="139.856"/>
		<circle fill-rule="evenodd" clip-rule="evenodd" fill="#8AC041" cx="395.998" cy="225.43" r="136.607"/>
		<circle fill-rule="evenodd" clip-rule="evenodd" fill="#8BC141" cx="395.998" cy="224.049" r="133.358"/>
		<circle fill-rule="evenodd" clip-rule="evenodd" fill="#8CC241" cx="395.998" cy="222.668" r="130.109"/>
		<circle fill-rule="evenodd" clip-rule="evenodd" fill="#8DC241" cx="395.998" cy="221.288" r="126.86"/>
		<circle fill-rule="evenodd" clip-rule="evenodd" fill="#8DC340" cx="395.998" cy="219.908" r="123.611"/>
		<circle fill-rule="evenodd" clip-rule="evenodd" fill="#8EC340" cx="395.998" cy="218.527" r="120.362"/>
		<circle fill-rule="evenodd" clip-rule="evenodd" fill="#8FC440" cx="395.998" cy="217.147" r="117.113"/>
		<circle fill-rule="evenodd" clip-rule="evenodd" fill="#90C540" cx="395.998" cy="215.767" r="113.863"/>
		<circle fill-rule="evenodd" clip-rule="evenodd" fill="#91C540" cx="395.998" cy="214.386" r="110.614"/>
		<circle fill-rule="evenodd" clip-rule="evenodd" fill="#92C640" cx="395.998" cy="213.006" r="107.365"/>
		<circle fill-rule="evenodd" clip-rule="evenodd" fill="#93C740" cx="395.998" cy="211.625" r="104.116"/>
		<circle fill-rule="evenodd" clip-rule="evenodd" fill="#94C740" cx="395.998" cy="210.245" r="100.867"/>
		<circle fill-rule="evenodd" clip-rule="evenodd" fill="#95C840" cx="395.998" cy="208.864" r="97.618"/>
		<circle fill-rule="evenodd" clip-rule="evenodd" fill="#96C940" cx="395.997" cy="207.484" r="94.369"/>
		<circle fill-rule="evenodd" clip-rule="evenodd" fill="#97C940" cx="395.998" cy="206.104" r="91.12"/>
		<circle fill-rule="evenodd" clip-rule="evenodd" fill="#98CA40" cx="395.998" cy="204.724" r="87.871"/>
		<circle fill-rule="evenodd" clip-rule="evenodd" fill="#99CB40" cx="395.998" cy="203.343" r="84.622"/>
		<circle fill-rule="evenodd" clip-rule="evenodd" fill="#9ACB40" cx="395.998" cy="201.962" r="81.373"/>
		<circle fill-rule="evenodd" clip-rule="evenodd" fill="#9BCC3F" cx="395.998" cy="200.583" r="78.124"/>
		<circle fill-rule="evenodd" clip-rule="evenodd" fill="#9CCD3F" cx="395.998" cy="199.202" r="74.875"/>
		<circle fill-rule="evenodd" clip-rule="evenodd" fill="#9DCD3F" cx="395.998" cy="197.821" r="71.625"/>
		<circle fill-rule="evenodd" clip-rule="evenodd" fill="#9ECE3F" cx="395.998" cy="196.441" r="68.376"/>
		<circle fill-rule="evenodd" clip-rule="evenodd" fill="#9FCF3F" cx="395.998" cy="195.061" r="65.127"/>
		<circle fill-rule="evenodd" clip-rule="evenodd" fill="#A0CF3F" cx="395.998" cy="193.68" r="61.878"/>
		<circle fill-rule="evenodd" clip-rule="evenodd" fill="#A1D03F" cx="395.998" cy="192.3" r="58.629"/>
	</g>
	<g>
		<g>
			<path fill-rule="evenodd" clip-rule="evenodd" fill="#7BA43E" d="M536.198,210.26c-0.056,13.891-14.621,22.396-26.82,15.495
				c-8.272-4.682-16.74-8.924-25.562-12.461c-17.525-7.025-35.688-11.753-54.25-15.028c-12.922-2.279-25.941-3.788-39.032-4.574
				c-13.61-0.817-27.23-0.914-40.862-0.209c-15.617,0.809-31.112,2.523-46.402,5.827c-5.642,1.218-11.219,2.755-16.798,4.246
				c-3.421,0.915-6.793,1.031-10.202,0.034c-7.459-2.183-12.603-8.866-12.824-16.693c-0.214-7.603,4.476-14.67,11.846-17.1
				c5.395-1.778,10.933-3.176,16.473-4.457c13.715-3.17,27.623-5.13,41.642-6.41c14.884-1.359,29.796-1.796,44.718-1.369
				c36.762,1.053,72.809,6.428,107.695,18.472c14.224,4.91,27.913,11.005,40.926,18.598c4.639,2.707,7.753,6.521,8.938,11.797
				C535.965,207.68,536.032,208.981,536.198,210.26z"/>
			<path fill-rule="evenodd" clip-rule="evenodd" fill="#7BA43E" d="M362.542,253.107c-21.912,0.092-44.358,2.808-66.281,9.314
				c-3.574,1.06-7.158,1.132-10.659-0.286c-5.696-2.308-9.402-8.017-9.202-14.057c0.209-6.301,4.052-11.788,10.125-13.643
				c6.181-1.887,12.455-3.523,18.765-4.924c15.532-3.45,31.275-5.274,47.183-5.878c34.221-1.298,67.652,3.128,100.265,13.582
				c16.491,5.285,32.268,12.206,47.168,21.067c0.741,0.441,1.478,0.892,2.214,1.342c7.771,4.748,8.698,14.306,4.992,20.396
				c-4.237,6.964-13.05,9.13-20.375,4.999c-4.132-2.331-8.216-4.76-12.44-6.914c-19.363-9.87-39.896-16.269-61.2-20.301
				C396.693,254.699,380.137,253.182,362.542,253.107z"/>
			<path fill-rule="evenodd" clip-rule="evenodd" fill="#7BA43E" d="M365.968,285.604c25.224,0.266,49.898,3.675,73.845,11.75
				c13.209,4.455,25.822,10.218,37.803,17.354c1.037,0.617,2.09,1.227,3.048,1.954c4.835,3.671,6.089,10.317,2.979,15.549
				c-3.019,5.076-9.42,7.116-14.895,4.7c-1.1-0.485-2.129-1.138-3.167-1.753c-20.304-12.036-42.212-19.489-65.499-23.056
				c-14.291-2.188-28.661-2.947-43.09-2.38c-18.666,0.733-37.097,3.324-55.332,7.36c-1.841,0.408-3.736,0.778-5.611,0.799
				c-5.646,0.061-10.412-3.943-11.402-9.373c-1.05-5.749,1.798-11.138,7.072-13.258c1.113-0.447,2.301-0.733,3.476-0.998
				c14.916-3.349,29.972-5.881,45.205-7.17C348.903,286.365,357.444,286.083,365.968,285.604z"/>
		</g>
	</g>
	<g>
		<path fill-rule="evenodd" clip-rule="evenodd" d="M536.198,211.297c-0.056,13.89-14.621,22.396-26.82,15.494
			c-8.272-4.681-16.74-8.924-25.562-12.46c-17.525-7.025-35.688-11.754-54.25-15.028c-12.922-2.279-25.941-3.789-39.032-4.575
			c-13.61-0.818-27.23-0.914-40.862-0.208c-15.617,0.808-31.112,2.523-46.402,5.826c-5.642,1.219-11.219,2.755-16.798,4.246
			c-3.421,0.915-6.793,1.031-10.202,0.033c-7.459-2.182-12.603-8.866-12.824-16.692c-0.214-7.603,4.476-14.671,11.846-17.1
			c5.395-1.779,10.933-3.177,16.473-4.457c13.715-3.171,27.623-5.131,41.642-6.41c14.884-1.358,29.796-1.796,44.718-1.369
			c36.762,1.053,72.809,6.428,107.695,18.472c14.224,4.911,27.913,11.005,40.926,18.597c4.639,2.707,7.753,6.521,8.938,11.798
			C535.965,208.717,536.032,210.018,536.198,211.297z"/>
		<path fill-rule="evenodd" clip-rule="evenodd" d="M362.542,254.144c-21.912,0.092-44.358,2.809-66.281,9.314
			c-3.574,1.061-7.158,1.131-10.659-0.286c-5.696-2.308-9.402-8.017-9.202-14.056c0.209-6.301,4.052-11.789,10.125-13.643
			c6.181-1.887,12.455-3.523,18.765-4.925c15.532-3.449,31.275-5.274,47.183-5.878c34.221-1.298,67.652,3.129,100.265,13.582
			c16.491,5.285,32.268,12.206,47.168,21.068c0.741,0.441,1.478,0.892,2.214,1.341c7.771,4.748,8.698,14.307,4.992,20.396
			c-4.237,6.963-13.05,9.129-20.375,4.998c-4.132-2.331-8.216-4.76-12.44-6.914c-19.363-9.87-39.896-16.268-61.2-20.301
			C396.693,255.735,380.137,254.218,362.542,254.144z"/>
		<path fill-rule="evenodd" clip-rule="evenodd" d="M365.968,286.641c25.224,0.266,49.898,3.675,73.845,11.751
			c13.209,4.454,25.822,10.218,37.803,17.354c1.037,0.616,2.09,1.225,3.048,1.953c4.835,3.672,6.089,10.317,2.979,15.549
			c-3.019,5.076-9.42,7.117-14.895,4.699c-1.1-0.483-2.129-1.136-3.167-1.751c-20.304-12.036-42.212-19.49-65.499-23.056
			c-14.291-2.188-28.661-2.947-43.09-2.381c-18.666,0.734-37.097,3.324-55.332,7.361c-1.841,0.408-3.736,0.777-5.611,0.799
			c-5.646,0.061-10.412-3.943-11.402-9.373c-1.05-5.75,1.798-11.139,7.072-13.258c1.113-0.448,2.301-0.734,3.476-0.998
			c14.916-3.349,29.972-5.881,45.205-7.17C348.903,287.402,357.444,287.12,365.968,286.641z"/>
	</g>
	<g>
		<path fill="#FFFFFF" d="M234.938,529.064l8.82-10.744c6.105,5.126,12.502,8.378,20.255,8.378c6.105,0,9.788-2.463,9.788-6.505
			v-0.197c0-3.845-2.326-5.815-13.665-8.772c-13.665-3.548-22.484-7.394-22.484-21.093v-0.197c0-12.52,9.885-20.798,23.744-20.798
			c9.885,0,18.317,3.153,25.198,8.772l-7.754,11.434c-6.008-4.238-11.92-6.802-17.638-6.802s-8.722,2.661-8.722,6.013v0.197
			c0,4.535,2.907,6.013,14.634,9.067c13.761,3.648,21.515,8.675,21.515,20.7v0.197c0,13.701-10.273,21.39-24.907,21.39
			C253.449,540.104,243.08,536.456,234.938,529.064z"/>
		<path fill="#FFFFFF" d="M413.685,524.145v-25.542h-6.485v-12.03h6.485v-13.756h13.49v13.756h13.554v12.03h-13.554v23.597
			c0,4.339,2.701,5.343,6.008,5.343c2.725,0,5.211-0.908,7.352-2.091v11.501c-3.113,1.871-6.712,3.055-11.674,3.055
			C419.813,540.007,413.685,536.361,413.685,524.145z"/>
		<rect x="445.966" y="486.973" fill="#FFFFFF" width="13.317" height="52.158"/>
		<path fill="#FFFFFF" d="M484.419,486.879V484.3c0-3.925,3.007-5.689,6.455-5.689c2.561,0,4.628,0.489,6.796,1.275v-11.841
			c-2.758-0.883-5.91-1.473-10.639-1.473c-5.318,0-8.824,1.374-11.583,4.121c-2.759,2.746-4.467,6.965-4.467,12.752v3.336h-6.507
			v11.73h6.206v40.36h13.861v-40.347h10.81l16.246,39.793c-1.359,3.192-3.635,4.79-6.127,4.79c-1.918,0-4.989-1.101-6.908-2.268
			l-4.872,10.337c3.738,2.236,8.945,3.58,14.217,3.58c9.321,0,13.777-7.99,15.364-12.09l21.465-55.677l-13.852-0.019l-12.534,35.511
			l-13.745-35.62h-7.054L484.419,486.879z"/>
		<circle fill="#FFFFFF" cx="452.625" cy="472.17" r="8.349"/>
		<g>
			<path fill="#FFFFFF" d="M546.026,494.946V494.9c0-4.494,3.649-8.26,8.281-8.26c4.631,0,8.236,3.72,8.236,8.214v0.046
				c0,4.494-3.651,8.258-8.282,8.258S546.026,499.439,546.026,494.946z M561.586,494.9v-0.046c0-4.038-3.126-7.302-7.278-7.302
				c-4.176,0-7.323,3.311-7.323,7.348v0.046c0,4.038,3.125,7.3,7.277,7.3C558.438,502.246,561.586,498.938,561.586,494.9z
				 M550.886,490.27h3.901c1.186,0,2.098,0.342,2.715,0.958c0.479,0.479,0.729,1.141,0.729,1.916v0.046
				c0,1.414-0.775,2.305-1.894,2.715l2.146,3.148h-2.26l-1.87-2.829h-1.528v2.829h-1.939V490.27z M554.765,494.559
				c0.98,0,1.505-0.525,1.505-1.255v-0.046c0-0.844-0.593-1.277-1.551-1.277h-1.894v2.578H554.765z"/>
		</g>
		<path fill="#FFFFFF" d="M378.903,485.728c-15.873,0-27.917,12.226-27.917,27.286v0.195c0,15.062,11.949,27.09,27.727,27.09
			c15.873,0,27.657-12.226,27.657-27.285v-0.195C406.37,497.758,394.681,485.728,378.903,485.728z M378.678,528.706
			c-8.028,0-14.537-6.976-14.537-15.582s6.509-15.582,14.537-15.582c8.028,0,14.537,6.976,14.537,15.582
			S386.707,528.706,378.678,528.706z"/>
		<path fill="#FFFFFF" d="M323.748,485.741c-8.559,0-13.778,3.082-17.331,7.946v-6.973h-13.3v67.727h13.558v-22.123
			c3.458,4.186,8.258,7.786,16.035,7.786c12.194,0,24.466-9.536,24.466-26.956v-0.193
			C347.177,495.537,335.416,485.741,323.748,485.741z M320,528.351c-7.585,0-13.734-6.904-13.734-15.421s6.149-15.42,13.734-15.42
			s13.733,6.903,13.733,15.42S327.584,528.351,320,528.351z"/>
	</g>
</g>
</svg>
