<?xml version="1.0" encoding="utf-8"?>
<!-- Generator: Adobe Illustrator 16.0.0, SVG Export Plug-In . SVG Version: 6.00 Build 0)  -->
<!DOCTYPE svg PUBLIC "-//W3C//DTD SVG 1.1//EN" "http://www.w3.org/Graphics/SVG/1.1/DTD/svg11.dtd">
<svg version="1.1" id="Stripe_Logo_1_" xmlns="http://www.w3.org/2000/svg" xmlns:xlink="http://www.w3.org/1999/xlink" x="0px"
	 y="0px" width="540px" height="250px" viewBox="0 0 540 250" enable-background="new 0 0 540 250" xml:space="preserve">
<path id="Stripe_Logo" fill="#FFFFFF" d="M439.708,119.521c0.934-14.8,4.934-21.733,12.533-21.733
	c7.467,0,11.333,7.067,11.866,21.733H439.708z M495.175,128.321c0-16.534-3.601-29.601-10.667-38.8
	c-7.2-9.333-18-14.133-31.733-14.133c-28.133,0-45.6,20.8-45.6,54.134c0,18.666,4.667,32.666,13.866,41.6
	c8.267,8,20.134,12,35.467,12c14.134,0,27.2-3.334,35.467-8.8l-3.6-22.667c-8.134,4.4-17.601,6.8-28.268,6.8
	c-6.399,0-10.8-1.333-14-4.133c-3.466-2.934-5.466-7.733-6.133-14.534h54.8C494.908,138.188,495.175,130.721,495.175,128.321z
	 M362.908,150.721c-2.667,5.066-6.801,7.733-11.601,7.733c-3.333,0-6.267-0.667-8.933-2v-49.333
	c5.6-5.867,10.666-6.534,12.533-6.534c8.399,0,12.533,9.067,12.533,26.8C367.441,137.521,365.975,145.388,362.908,150.721z
	 M390.375,86.721c-5.867-7.6-14-11.333-24.4-11.333c-9.6,0-18,4-25.867,12.4l-1.732-10.4h-29.067v142.134l33.067-5.467v-33.334
	c5.066,1.601,10.267,2.4,14.933,2.4c8.267,0,20.267-2.134,29.601-12.267c8.934-9.733,13.467-24.8,13.467-44.667
	C400.375,108.587,397.041,95.254,390.375,86.721z M263.092,77.388h33.2v103.733h-33.2V77.388z M279.759,67.121
	c9.6,0,17.333-7.867,17.333-17.467c0-9.733-7.733-17.467-17.333-17.467c-9.733,0-17.467,7.733-17.467,17.467
	C262.292,59.254,270.025,67.121,279.759,67.121z M248.825,75.955c-9.333,0-16.8,4.9-19.733,13.7l-2-12.267h-28.933v103.733h33.067
	v-67.333c4.133-5.067,10-6.899,18-6.899c1.733,0,3.6,0,5.866,0.4V76.755C252.825,76.222,250.825,75.955,248.825,75.955z
	 M185.41,101.921l4-24.533h-21.118V47.605l-28.393,4.672l-4.099,25.11l-9.986,1.62l-3.738,22.913h13.683v48.134
	c0,12.533,3.2,21.199,9.733,26.533c5.466,4.399,13.333,6.533,24.4,6.533c8.533,0,13.733-1.467,17.333-2.4v-26
	c-2,0.533-6.534,1.467-9.6,1.467c-6.534,0-9.333-3.333-9.333-10.934v-43.333H185.41z M90.692,116.454
	c-9.733-3.6-15.066-6.4-15.066-10.8c0-3.733,3.066-5.867,8.533-5.867c10,0,20.267,3.867,27.333,7.333l4-24.667
	c-5.6-2.667-17.067-7.066-32.934-7.066c-11.2,0-20.533,2.933-27.2,8.4c-6.934,5.733-10.534,14-10.534,24
	c0,18.133,11.067,25.867,29.067,32.4c11.6,4.134,15.467,7.066,15.467,11.6c0,4.4-3.733,6.934-10.534,6.934
	c-8.4,0-22.267-4.133-31.333-9.467l-4,24.934c7.733,4.4,22.133,8.934,37.066,8.934c11.867,0,21.733-2.8,28.4-8.134
	c7.467-5.866,11.333-14.533,11.333-25.733C120.292,130.721,108.958,122.987,90.692,116.454L90.692,116.454z"/>
</svg>
