<?xml version="1.0" encoding="utf-8"?>
<!-- Generator: Adobe Illustrator 19.1.0, SVG Export Plug-In . SVG Version: 6.00 Build 0)  -->
<svg version="1.1" id="Layer_1" xmlns="http://www.w3.org/2000/svg" xmlns:xlink="http://www.w3.org/1999/xlink" x="0px" y="0px"
	 viewBox="98 114.9 792 612" style="enable-background:new 98 114.9 792 612;" xml:space="preserve">
<style type="text/css">
	.st0{fill:#FFFFFF;}
</style>
<path class="st0" d="M810.9,460.6l0.2,0c14,0,23.8-9.7,24-23.6c0.1-6.9-1.9-13.2-5.6-17.7c-3.9-4.8-9.3-7.4-15.7-7.4h-0.1
	c-8.6,0-16.6,6.5-24.4,20l-0.6,1.1l-0.4-1.2c-2-5.8-3.7-10.6-4.8-13.4c-0.7-2-1.1-2.9-1.1-3.2c-0.4-1.5-1.6-2.4-3.2-2.4
	c-1,0-2.1,0.3-3.1,1c-1,0.6-1.6,1.4-1.8,2.4l-0.1,0.2c-7.8,24.5-14.3,36.3-19.8,36.3c-0.8,0-1.4-0.3-1.9-0.8
	c-1.4-1.6-1.1-5.4-0.6-10.6c0.4-3.8,0.8-8.2,0.6-12.8c-0.3-8.9-5.2-14.2-13-14.2c-9.9,0-16.3,10.5-19.3,16.8l-0.9,1.9l-0.2-2.1
	c-0.7-7.8-3.3-17.1-11.6-17.1c-9.6,0-16.9,11.3-21.4,20.8l-1.2,2.5l0.1-2.8c0.5-12.6,1-20.1,1.3-22.2c0.3-2.1,0.2-3.5-0.5-4.3
	c-0.6-0.7-1.9-1-3.6-0.9c-3.1,0.2-4.7,2.1-7,8.3c-3.9,10.3-13.8,34.3-21.7,34.3c-1.6,0-2.8-0.5-3.7-1.6c-3.3-3.8-2-14.1-0.2-28.3
	l0.1-1.1c0.9-6.7-0.6-8.2-4.3-8.8c-0.4-0.1-0.8-0.1-1.1-0.1c-2.9,0-4.3,2.8-7,10.6c-4.9,13.8-11.1,28.4-18.4,28.4
	c-0.3,0-0.5,0-0.8-0.1c-3.9-0.7-3.8-6.4-3.7-13.7c0.1-3.9,0.1-8.4-0.5-12.4c-1.1-7.2-5.3-11.7-11.1-11.8
	c-11.5,0-19.2,14.7-22.8,23.5l-0.8,2l-0.3-2.1c-0.5-3.8-1.1-9.8-1.4-17l0-0.2l0.1-0.2c21.5-27.1,31.2-46.6,31.3-63.4
	c0.1-10.7-4.9-17.1-13.2-17.2c-6.1,0-20.6,5.1-25.7,52.2c-0.9,8.7-1.5,17.7-1.5,26.6l0,0.2l-0.1,0.1c-9.8,14.2-30.8,38.7-51.4,38.7
	c-18.6,0-33.4-15-33.4-41.6c0-35.6,25.2-57.4,44.1-57.4l0.2,0c4.1,0,7.6,1.2,10.2,3.3c2.7,2.2,4.1,5.3,4,9c0,4.9-1.6,7.4-3.2,9.9
	c-0.4,0.6-0.8,1.3-1.2,1.9c-0.4,0.7-0.7,1.6-0.2,2.5c0.5,0.8,1.8,1.4,3.3,1.4c4.5,0,11.3-6.5,11.4-16.4c0.1-10.3-8.6-20.9-24.1-20.9
	c-23.4,0-54.9,25.7-54.9,67.4c0,29.5,18.5,49.9,43.5,49.9c17.8,0,35.4-12.7,50.9-34l1-1.3l0.1,1.6c0.3,7.8,0.9,13.9,1.3,18.4
	c0.3,2.9,0.5,5,0.5,6.1c0,2.5,0.4,4.3,1.3,5.3c0.9,1.1,2.2,1.6,4.3,1.6c3.5,0,4.2-2.4,5.6-8.3l0.4-1.7c1.7-7.1,8.1-30.4,17.6-30.4
	c1.6,0,2.8,0.5,3.6,1.4c2.1,2.2,1.9,6.8,1.6,12.2c-0.2,3.3-0.3,6.8,0,10.1c0.9,9,4.8,13.4,11.9,13.5c7.3,0,14.9-7.9,18.9-15.2
	l0.8-1.4l0.3,1.5c0.7,3.9,4.1,16.8,14.5,16.8c9.4,0,17.5-9.9,26.4-30.3l1.2-2.7l-0.1,2.9c-0.2,7.7-0.6,17.2-0.6,24.5
	c0,5.7,0.6,7.8,3.2,7.8c0.2,0,0.4,0,0.6,0c2.5,0,4.2-1.5,5.1-4.5c6.7-23.2,12.4-34.1,18.1-34.1c5.6,0,6.1,10.3,6.6,28.3l0,1.3
	c0.1,6.3,0.4,9.1,4.3,9.1c3,0,3.7-2.3,5.3-8.1c0.3-1.1,0.6-2.3,1-3.6c5.4-18.7,9.8-26.3,15.4-26.3c4.8,0,5,4.9,5.1,6.6
	c0.2,3.5-0.2,7.1-0.5,10.6c-0.3,3.2-0.6,6.6-0.5,9.7c0.3,7.3,4.3,11.4,11.3,11.4c9,0,17.2-10.6,24.4-31.5l0.5-1.5l0.6,1.4
	c1.3,3.3,3,7.7,4.6,13l0.1,0.2l-0.1,0.2c-6.9,15.4-11.8,32.5-11.9,41.7c-0.1,12.1,5.4,19.9,13.9,20h0.1c4.6,0,15.5-1.9,15.7-19.1
	c0.1-7.1-1.6-17.1-5-29.7l-0.4-1.4l1.2,0.8C801.2,459,806,460.5,810.9,460.6z M577.7,402.1c0.2-4.3,0.6-8.5,1.1-12.5
	c3.3-25.7,10.3-43.6,17-43.6h0c3.2,0,4.8,2.4,4.7,7.1c-0.1,11.6-7.4,28.2-21.8,49.3l-1.1,1.7L577.7,402.1z M790.2,494.3
	c-1.1,1.4-2.5,2.1-4.4,2.1c-2.1,0-3.7-0.8-4.8-2.2c-3-4.1-2.2-13.6,2.8-31c0.6-2.1,1.2-4.2,1.9-6.2l0.6-1.7l0.5,1.8
	C792.6,477.1,793.7,489.6,790.2,494.3z M792,443l-0.1-0.2l-0.2-0.7l0.1-0.2c6.6-13.6,14.1-21.4,20.7-21.4h0.1
	c7.4,0.1,12.6,6.7,12.5,16.2c0,6.3-2.8,10-5.2,11.9c-2.7,2.2-6.2,3.5-9.7,3.5C801.5,452.2,795.5,447.2,792,443z"/>
<path class="st0" d="M371.5,458.3c10.2-0.8,18.3-14.7,21.3-20.6l0.8-1.5l0.3,1.7c1.4,8.3,6,22.3,20.1,22.4h0.1
	c6.1,0,13.1-3.7,20.1-10.8l0.5-0.5l0.4,0.6c4.7,7.9,11.1,12.1,17.8,11.8c9.9-0.5,16-7.6,16.5-12.4c0.1-1.2-0.2-2.4-0.9-3.2
	c-0.9-1-2.2-1.1-3.1-0.2l-0.5,0.4c-2.3,2.2-6.6,6.4-11.3,6.6c-5.7,0.3-10-3.2-12.7-10.3l-0.1-0.3l0.2-0.3
	c15.8-20.7,26.9-52.2,25.8-73.4c-0.5-9.8-3.4-21.5-14-21.5c-0.3,0-0.5,0-0.8,0c-4.1,0.2-7.8,2.2-11.1,5.8
	c-9.9,11.1-15.1,38.4-13.2,69.6c0.4,6.5,1.5,12.5,3.3,18l0.1,0.3l-0.2,0.2c-5.9,6.9-11.7,10.6-16.3,10.6c-11.2,0-10.8-18.7-9.9-34.3
	c0.2-3.4,0.5-5.5-0.5-6.7c-0.7-0.9-1.9-1.3-3.6-1.3l-0.2,0c-4,0-4.8,0.8-6.8,6.7c-4.2,12.3-12.6,32.8-21,32.8
	c-2.3,0-4.1-0.8-5.3-2.4c-4.1-5.2-1-18.2,1.5-28.6c0.4-1.9,0.9-3.7,1.2-5.3c0.5-2.5,0.4-4.3-0.5-5.4c-0.9-1.1-2.6-1.5-4.9-1.3
	c-3.6,0.3-5.9,1.8-7,8.6l-0.2,1.4l-0.8-1c-1.6-2.3-4.6-5.1-10.3-5.1c-0.5,0-1,0-1.5,0.1c-6.1,0.5-13,4.7-18,11
	c-5.9,7.4-8.7,16.7-7.9,26.3c0,0.5,0.1,1,0.2,1.5l0,0.3l-0.2,0.2c-3.5,3.9-7.1,5.8-10.7,5.8c-5.5,0-8.7-4.1-8.7-11
	c0-11.5,7.8-46.1,7.8-58.6c0-13.3-5.9-20.6-16.3-20.7l-0.2,0c-15.1,0-26.8,17.1-38,52.2c-1,3.2-2.1,6.9-3.1,10.2l-1.6,5.3l0.5-5.5
	c1-12.2,1.8-24.2,2.1-35.4c0.6-17-1.7-27.9-7-33.4c-2.9-3-6.6-4.4-11.5-4.5h-0.1c-18.4,0-27.3,31.1-33.7,53
	c-1.9,6.6-5.8,21.6-8.3,31.8l1.5-2.5c1.1-12.9,4.4-45.1,4.2-62.5c-0.2-18.7-6.5-27.1-20.2-27.2H175c-7.4,0-12.5,3.7-15.4,6.7
	c-4.8,4.9-7.8,12.1-7.6,18.3c0.1,3.8,2.4,7.1,4.2,7.1c1.1,0,1.8-1.5,2.1-2.4c4.3-14.1,9.8-20.9,16.8-20.9c2.9,0,5.1,0.9,6.8,2.6
	c5.5,5.9,4.5,21.9,2.7,51c-0.6,9.4-1.3,20-1.8,32c-0.1,2.1-0.2,4.1-0.3,6c-0.5,8.4-1,15,2.2,15.5c4.1,0.6,6.8-1,8.2-5.1
	c2-6.1,6.6-22.7,15.5-53c8.5-29.1,14.9-39.7,23.2-39.7c9.5,0,10.2,16.3,8.5,50.7c-0.4,7.3-0.9,15.6-1.2,24.6
	c-0.1,1.3-0.1,2.5-0.2,3.7c-0.4,7.4-0.7,13.3,1.5,15.6c0.7,0.7,1.6,1,2.8,1.1c4.1,0,5.4-3.6,7.4-9.6c0.4-1.1,0.7-2.2,1.2-3.4
	c14.1-38.9,24.5-72.7,38.5-72.7c4.2,0,7.5,3.4,7.5,10.1c0,15.4-7.5,45-7.5,60.1c0,5.4,1.6,10.2,4.5,13.6c3,3.5,7.2,5.4,12.2,5.4h0.1
	c4.7,0,9.6-2.3,14.5-6.8l0.5-0.4l0.4,0.5c3.3,4.4,8.5,6.7,14.2,6.3c8.7-0.7,16-8.4,18.7-15.7l0.5-1.4l0.5,1.4
	C357.8,452.5,362.2,459.1,371.5,458.3z M451.7,356.6l0.1,0c1,0,1.9,0.5,2.6,1.5c3.5,4.7,3.5,21.7-2.4,41.1
	c-3.4,11.1-8,21.6-13.2,30.3l-0.8,1.4l-0.2-1.6c-0.6-4.7-0.9-9.6-1.1-13.7C435.1,386.2,444,357,451.7,356.6z M355.1,425.2
	c-3,12.3-8.9,27.1-19.4,27.9c-0.3,0-0.6,0-0.9,0c-4.4,0-6.8-2.9-7.3-8.5c-0.6-7.1,2.5-15.3,7.8-21.1c3.4-3.7,7.2-5.7,10.7-5.7h0.1
	c4.5,0,7.6,3.6,9,6.9l0.1,0.2L355.1,425.2z"/>
</svg>
