<svg xmlns="http://www.w3.org/2000/svg" xmlns:xlink="http://www.w3.org/1999/xlink" version="1.1" id="Layer_1" x="0px" y="0px" width="612px" height="117.6px" viewBox="0 675.5 612 117.6" enable-background="new 0 675.5 612 117.6" xml:space="preserve"><g><path fill="#FFFFFF" d="M102.9 783.8c-4.8-0.5-8.5-1.4-12-4.2c-3.2-2.6-5.7-6.9-7.7-12.4c-4.3-11.9-8.6-26.5-10.7-33.9 c27.9-9.7 40.8-22.4 40.8-36.4c0-12.9-10.6-21.4-34-18.4c-10.3 1.3-17.9 2.6-25.9 4.2c-30 5.8-41.3 18.8-41.3 32.1 c0 9 7.9 15.3 17.1 15.3c6.3 0 6.9-3.5 5-4.9c-3.9-3-6.3-5.8-6.3-10.8c0-7.8 5.9-17.9 27.5-22.7c1.4-0.3 2.5-0.5 3.7-0.8 c-3.6 10.2-10 28.1-15.8 43.4C10.4 747.5 0 765.7 0 778.3c0 9.4 7.4 14.8 16.1 14.8c13.4 0 23.8-8.9 32.2-29 c3.1-7.3 6.5-15.9 9.7-24.8c2.1 7.8 6 21.5 10.2 32.5c2.4 6.4 4.6 10.9 7.8 14.2c3.9 3.9 9.3 5.9 15.6 5.9c7.5 0 12-2.5 13.1-4.3 C106.3 785.5 105.5 784 102.9 783.8z M33.3 759.5c-7.3 15-11.8 21.3-17.5 22.3c-2.5 0.4-4.6-0.8-4.6-4.6c0-4.1 4.5-19.6 28.1-32 C36.9 751.4 34.8 756.4 33.3 759.5z M62.6 727.1c5.7-15.7 11-30.7 14-39.4c12.5-1.4 18.9 2.4 18.9 11.8c0 9.1-7.7 18.1-24.3 24.5 C68.1 725 65.3 726.1 62.6 727.1z"/><path fill="#FFFFFF" d="M415.2 759.8c-2.5 0-6.3 4.1-12.9 4.1c-4.5 0-6.9-2.9-6.9-8.9c0-1.5 0.2-3.1 0.5-4.8c0.5 0 1.1 0 1.7 0 c21.4 0 34.2-12.4 34.2-24.5c0-8.7-6.7-13.1-13.2-13.1c-16 0-35.3 19-38.6 38.4c-4.6 7.8-8.4 10.8-10.7 10.7 c-2.6-0.1-2.4-3.8 0-10.8c3.7-10.6 9-24.9 13.7-35.9c9.2-21.8 15-33.9 15.8-36.4c0.7-2.5-0.6-3-3.2-2.5c-9.3 1.4-14.5 1-18.4 7.5 c-6.3 10.4-33.1 52.1-33.1 52.1s7.9-51.6 9.2-56.9c0.6-2.9-0.8-3.7-3.4-3.1c-3 0.8-5.6 1.5-9.6 2.8c-3.5 1.2-4.2 2.3-6.7 7.9 c-1.3 3-11.5 33.4-18.8 48.7c-7.6 16.3-13.8 25.9-28.2 27c-3.9 0.3-4.1 2.3-3.1 4.8c2.2 5.2 7.8 8.3 12.9 8.3 c9 0 15.4-6.4 21.5-21.2c5.1-12.3 12.6-33.4 18.2-49.3c-4.7 24.7-10.2 57.6-11 66.3c-0.4 5.1 6.4 5.2 9.1 0.2 c7.2-13 22.8-39.7 36.8-63.9c-5.7 13.7-12.4 29.9-15.5 39c-2.1 6.7-4 11.5-4 17.7c0 7.1 4.9 11.3 10.3 11.3 c5.5 0 11.9-2.8 18.6-11.3c2 7.1 7.3 11.5 16.3 11.5c11.8 0 20.4-8.1 20.4-13.1C417.6 760.8 416.6 759.8 415.2 759.8z M415 723.3 c6.7 0 1.5 17.5-15.9 18C403.5 732 410.6 723.3 415 723.3z M380.2 692.4c-0.1 0.1-0.1 0.2-0.2 0.3 C380.1 692.5 380.2 692.5 380.2 692.4z M341 682.8c0-0.1 0-0.2 0.1-0.3C341 682.6 341 682.7 341 682.8z"/><path fill="#FFFFFF" d="M514.4 694.6c6.3-4.5 11-4.8 12.5-6c2.2-1.9-0.8-11.1-9.5-11.1c-13.9 0-21.1 17.4-26.6 32.7 c-3.6 10-7.6 22.1-10.7 31.9c1.5-21.5 4.1-55.9 4.2-59.8c0.1-2 0-3.1-1-3.5c0.1-0.1 0.1-0.1 0.1-0.2c-0.2 0-0.4 0-0.7 0 c-0.3-0.1-0.7-0.1-1.3-0.1c-1.9 0-3.6 0.1-5.4 0.1c-8.2 0-19.5 0-24.1 0c-35.4 0-32.7 33.2-10.8 33.2c4 0 4.1-3.9 2.2-5 c-7.9-4-9.5-18.5 17-18.5c3.4 0 5.5 0 7.2 0c-3.3 11.3-9.5 30.4-17.4 47.3c-8.4 18-13.1 24.7-26.3 28.1c-3.8 1-3.5 3.1-2.4 5.5 c1.3 3 6 6.1 11.9 6.1c10.4 0 15.9-7.6 21.5-22.9c5.5-14.8 10.1-29.2 13.5-40.4c-1 23.9-1.8 54.6-2 60.2c-0.1 4.2 1.6 4.2 4.9 2.8 c6.7-2.9 9-3.9 10.8-9.3c5.6-17.2 11-31.5 17.4-47.6C503.2 707.8 509.2 698.3 514.4 694.6z"/><path fill="#FFFFFF" d="M533.8 714c-27.9 0-41.5 32.3-41.5 46.2c0 9.9 6.3 16 16.8 16c23.3 0 36.7-31.8 36.7-46.4 C545.8 719.8 541.2 714 533.8 714z M513.6 763.3c-10.4 0 3.4-39 12.7-39C535 724.3 524.6 763.3 513.6 763.3z"/><path fill="#FFFFFF" d="M607.3 697c-2.3 0-10.5 0.2-22.9 0.6c2-4.9 3.6-8.8 4.7-11.4c0.8-2 0.4-3.2-1.7-3.2c-1.9 0-5.2 0.6-9.1 1.7 c-5.3 1.4-5.9 2.3-8.8 8.5c-0.6 1.3-1.4 3-2.2 5.1c-12.1 0.4-26.2 1.1-41.7 1.7c-6 0.3-14.6 7.8-7.2 7.8c14.6 0 30.4 0.5 44.8 1 c-2.2 5.9-5 13.2-8.4 21.8c-4.2 10.8-10.2 23.7-10.2 32.6c0 6.6 4.5 12.3 12.5 12.3c10 0 14-5.8 12.9-9.2c-0.6-1.9-2.4-1.9-6.3-1.9 c-2.6 0-3.6-1.8-3.6-3.8c0-3.1 1.5-6.3 3.1-10.5c5.6-14.6 11.4-29 16.3-40.8c4 0.1 7.8 0.1 11.3 0.1c8.6 0 11.9-0.2 14.9-2.5 c2.5-1.9 3.7-3 5.1-4.8C612.4 700.3 613.2 697 607.3 697z"/><path fill="#FFFFFF" d="M254.5 711.2c4.6 0 9.2-4.2 10.3-9.4c1.1-5.2-1.7-9.4-6.3-9.4s-9.2 4.2-10.3 9.4 C247.1 707 249.9 711.2 254.5 711.2z"/><path fill="#FFFFFF" d="M274 764.8c-2.2-0.3-2.9-1.8-2.9-4.3c0-3.1 0.8-7.4 2.3-12.3c36.3-17.1 60.2-69.1 33.1-69.1 c-18 0-40.5 39.9-47.7 67.1c-4 6.5-10.8 16.2-15.6 16.2c-3.7 0-2.8-4.9 0-12.2c6.3-17 15.4-34.4 15.4-34.4s-4.6-1.9-10.8-0.8 c-4 0.7-5.8 2.8-7.7 6.4c-0.2 0.3-0.5 0.7-0.7 1.4c-11.8 25.3-19.2 39.6-25.9 39.6c-4.7 0-2-5.2 0.6-12.4 c6.3-17 15.4-34.4 15.4-34.4s-4.6-1.9-10.8-0.8c-3.9 0.6-5.7 2.5-7.5 5.9c-1.3-3.5-3.9-6.9-9.6-6.9c-17.5 0-30.6 22.5-34.3 38.4 c-3.6 5.5-8.3 11.4-11.8 11.4s-3.5-3.1-0.7-10.3c4.5-11.5 13-31.5 19.8-47.2c17.2 0.4 33.4 0.7 42.7 0.7c8.6 0 11.9-0.2 14.9-2.5 c2.5-1.9 3.7-3 5.1-4.8c1.5-1.8 2.1-5.1-3.7-5.1c-3.2 0-26.7 0.7-54.7 1.8c2.1-4.8 3.8-8.6 4.8-10.8c0.6-1.4-0.3-2.9-2.4-2.6 c-3.3 0.3-4.5 0.7-7.9 1.6c-5.3 1.3-6.6 2.9-9.5 9c-0.4 0.8-1 2-1.6 3.5c-11.1 0.4-22.5 1-33.1 1.4c-6 0.3-12.9 7-5.6 7 c9.2 0 21.7 0.2 34.9 0.5c-2.3 5.2-4.9 11.2-7 16.5c-0.2 0.4-0.5 1-0.7 1.6c-8.9 20.2-22.5 41.5-37.4 41.5c-5.8 0-8.3-3.8-8.3-8.8 c0-1.9 0.3-3.9 0.7-6c0.5 0 1.2 0.1 1.9 0.1c21.4 0 34-13.1 34-25.2c0-7.7-6.5-12.3-12.9-12.3c-17.6 0-39.1 22.9-39.1 44.1 c0 11.4 6.1 19 16.5 19c14 0 24.9-8.6 32.5-18c-0.4 2.1-0.6 4.2-0.6 6.3c0 6.6 3.8 11.4 10 11.4c7 0 13-4.2 18.6-11.7 c1.2 7.4 5.4 11.7 11.7 11.7c7.4 0 13.8-5.6 18.9-12.4c0.3 6.1 2.4 12.4 10.6 12.4c5.7 0 11.7-3.1 18.6-12.8 c0.2 6.4 2.9 13.1 10.5 13.1c7.4 0 14-5.3 19.9-13.4c0.5 8.1 4.9 12.8 11.1 12.8c6.4 0 11.8-4.1 11.4-8.7 C279.1 763.6 276.1 765.1 274 764.8z M305.2 690.4c3.9 0-6.8 28.1-26.5 43.7C287.1 713.5 300.5 690.4 305.2 690.4z M124 722.7 c6.8 0 2.6 18.9-15.4 18.9c-0.1 0-0.1 0-0.2 0C112.6 731.8 119.5 722.7 124 722.7z M184.4 763c-10.2 0 7-38.4 16.7-38.4 c3.7 0 5 2.4 5.5 4.5C198.7 747.6 192.1 763 184.4 763z"/></g></svg>