<?xml version="1.0" encoding="utf-8"?>
<!-- Generator: Adobe Illustrator 16.0.0, SVG Export Plug-In . SVG Version: 6.00 Build 0)  -->
<!DOCTYPE svg PUBLIC "-//W3C//DTD SVG 1.1//EN" "http://www.w3.org/Graphics/SVG/1.1/DTD/svg11.dtd">
<svg version="1.1" xmlns="http://www.w3.org/2000/svg" xmlns:xlink="http://www.w3.org/1999/xlink" x="0px" y="0px"
	 width="678.07px" height="200px" viewBox="0 0 678.07 200" enable-background="new 0 0 678.07 200" xml:space="preserve">
<symbol  id="Shopify" viewBox="-328.219 -104.828 656.439 209.655">
	<g>
		<path fill="#FFFFFF" d="M-102.8-17.651c3.742-1.945,10.477-4.64,16.912-4.49c5.836,0,8.979,3.143,8.979,7.034
			c0,3.741-2.245,6.286-8.531,9.878C-93.222-0.74-99.058,5.546-99.058,13.776c0,14.518,12.421,24.844,30.53,24.844
			c7.932,0,14.068-1.497,17.36-3.442l-4.789-14.667c-2.843,1.348-7.483,2.844-12.871,2.844c-5.837,0-9.578-2.693-9.578-6.884
			c0-3.293,2.694-5.688,7.932-8.53c8.082-4.64,14.816-10.926,14.816-19.756c0-16.462-13.319-25.74-31.877-25.591
			c-8.531,0.149-16.463,2.395-20.354,5.088L-102.8-17.651z"/>
		<path fill="#FFFFFF" d="M-51.466-36.06l20.054,105.509h20.653l-7.933-41.455l0.3-0.149C-12.854,34.43-5.671,38.77,3.458,38.77
			c10.775,0,16.912-7.034,16.912-18.707c0-3.592-0.6-8.979-1.497-13.47L10.792-36.06H-9.861l7.782,41.306
			c0.599,2.844,0.898,6.286,0.898,9.129c0,4.49-1.797,7.633-6.436,7.633c-6.585,0-13.619-8.381-16.313-22l-6.884-36.067H-51.466z"/>
		<path fill="#FFFFFF" d="M95.05,9.886c0-25.592-16.462-47.441-40.856-47.441c-18.558,0-28.435,12.87-28.435,28.884
			c0,24.992,16.462,47.441,41.306,47.441C86.37,38.77,95.05,24.702,95.05,9.886z M46.86-8.224c0-7.482,2.993-13.469,10.027-13.469
			c10.925,0,17.061,19.455,17.061,32.177c0,6.136-2.395,12.422-9.728,12.422C52.996,22.906,46.86,3.6,46.86-8.224z"/>
		<path fill="#FFFFFF" d="M90.112-65.393l14.367,75.577c1.646,8.53,3.293,19.905,4.191,27.388h18.258l-1.197-11.074h0.299
			c5.538,7.782,13.619,12.271,21.851,12.271c15.115,0,21.251-12.422,21.251-26.34c0-25.143-15.863-49.985-40.107-49.985
			c-5.089,0-9.729,1.197-12.123,2.693h-0.449l-5.687-30.53H90.112z M119.596-18.999c2.245-1.795,4.789-2.992,8.53-2.992
			c11.523,0,19.455,19.006,19.455,32.326c0,5.537-1.945,11.374-8.23,11.374c-7.184,0-13.918-8.531-16.312-21.401L119.596-18.999z"/>
		<path fill="#FFFFFF" d="M169.732-36.06l13.919,73.183h20.802L190.386-36.06H169.732z M196.521,46.103
			c-5.837,0-9.728,4.19-9.728,10.327c0,6.734,5.238,11.973,11.822,11.973c6.286,0,10.327-4.341,10.327-10.327
			c-0.149-7.632-5.688-11.973-12.122-11.973H196.521z"/>
		<path fill="#FFFFFF" d="M208.343-36.06l10.926,57.769h-9.578l2.993,15.563h9.578l0.599,3.442
			c1.646,8.681,4.938,17.36,11.973,23.347c5.537,4.789,12.87,6.885,20.203,6.885c5.089,0,8.83-0.748,11.225-1.796l-4.041-16.163
			c-1.795,0.599-3.891,1.048-6.584,1.048c-6.885,0-11.075-6.286-12.272-13.32l-0.748-3.442h14.367l-2.844-15.563h-14.218
			L228.996-36.06H208.343z"/>
		<path fill="#FFFFFF" d="M282.574,37.123l3.293-32.925c0.897-7.333,1.496-12.571,1.796-17.36h0.299
			c1.646,4.938,3.143,9.578,6.137,17.511l12.57,32.774h21.551l-25.292-54.176c-8.979-18.558-17.659-32.177-27.088-41.007
			c-7.333-6.884-16.014-10.326-20.204-11.225l-5.687,17.511c3.442,1.197,7.782,2.993,11.673,5.837
			c4.789,3.292,8.83,7.781,11.225,12.421c0.599,1.048,0.748,1.946,0.449,3.442l-12.422,67.196H282.574z"/>
	</g>
	<g>
		<g opacity="0.05">
			
				<image overflow="visible" width="1011" height="429" xlink:href="227246117A8D026B.png"  transform="matrix(0.24 0 0 -0.24 -328.2188 -1.8682)">
			</image>
		</g>
		<g opacity="0.12">
			
				<image overflow="visible" width="958" height="409" xlink:href="227246117A8D0269.png"  transform="matrix(0.24 0 0 -0.24 -320.9912 -4.6992)">
			</image>
		</g>
		<g>
			<linearGradient id="SVGID_1_" gradientUnits="userSpaceOnUse" x1="-232.397" y1="-21.958" x2="-232.397" y2="-32.9882">
				<stop  offset="0" style="stop-color:#000000;stop-opacity:0"/>
				<stop  offset="1" style="stop-color:#000000;stop-opacity:0.52"/>
			</linearGradient>
			<path fill="url(#SVGID_1_)" d="M-186.469,60.394c-1.065,0.209-3.605,5.777-3.869,5.714c0,0-62.234-18.14-63.073-19.146
				c-0.92-1.103-27.271-94.277-27.271-94.277l96.569-18.094L-186.469,60.394z"/>
			<linearGradient id="SVGID_2_" gradientUnits="userSpaceOnUse" x1="-158.8452" y1="-18.8008" x2="-158.8452" y2="-30.6323">
				<stop  offset="0" style="stop-color:#000000;stop-opacity:0"/>
				<stop  offset="1" style="stop-color:#000000;stop-opacity:0.52"/>
			</linearGradient>
			<path fill="url(#SVGID_2_)" d="M-159.499,62.673c0,0-0.141,0.763-0.572,1.041c-0.433,0.279-0.904,0.333-0.904,0.333
				l-13.631,1.015l-10.03,9.967c-0.375,0.291-0.816,0.461-1.266,0.549l1.79-140.991l52.324,11.325L-159.499,62.673z"/>
		</g>
		<linearGradient id="SVGID_3_" gradientUnits="userSpaceOnUse" x1="-146.4209" y1="-61.8887" x2="-223.7096" y2="-36.065">
			<stop  offset="0" style="stop-color:#000000;stop-opacity:0"/>
			<stop  offset="1" style="stop-color:#000000;stop-opacity:0.4"/>
		</linearGradient>
		<polygon fill="url(#SVGID_3_)" points="-184.107,-65.399 -128.652,-66.466 -106.88,-58.997 -131.672,-54.069 		"/>
		<path opacity="0.3" fill="#FFFFFF" d="M-183.966,56.535c2.068-0.712,4.111,0.643,4.562,3.023c0.451,2.38-0.861,4.886-2.93,5.596
			c-2.07,0.712-4.113-0.641-4.563-3.022C-187.348,59.751-186.035,57.243-183.966,56.535z"/>
		<path opacity="0.62" fill="#5A5962" d="M-225.222,48.518c-0.139,0-0.28,0.01-0.424,0.03c-1.632,0.229-2.997,1.704-3.049,3.296
			c-0.051,1.558-1,38.25,20.517,46.596c5.43,2.106,10.363,1.633,14.659-1.408c5.166-3.655,8.932-10.875,11.194-21.455
			c1.601-7.48,1.859-13.925,1.87-14.195c0.061-1.594-1.214-2.707-2.847-2.486c-1.632,0.221-3.004,1.691-3.064,3.284
			c-0.258,6.647-2.559,25.048-10.02,30.324c-2.39,1.69-5.281,1.841-8.84,0.461c-18.443-7.153-17.568-41.603-17.557-41.949
			C-222.737,49.563-223.798,48.518-225.222,48.518z"/>
		<path opacity="0.62" fill="#5A5962" d="M-225.222,48.518c-0.139,0-0.28,0.01-0.424,0.03c-1.632,0.229-2.997,1.704-3.049,3.296
			c-0.051,1.558-1,38.25,20.517,46.596c5.43,2.106,10.363,1.633,14.659-1.408c5.166-3.655,8.932-10.875,11.194-21.455
			c1.601-7.48,1.859-13.925,1.87-14.195c0.061-1.594-1.214-2.707-2.847-2.486c-1.632,0.221-3.004,1.691-3.064,3.284
			c-0.258,6.647-2.559,25.048-10.02,30.324c-2.39,1.69-5.281,1.841-8.84,0.461c-18.443-7.153-17.568-41.603-17.557-41.949
			C-222.737,49.563-223.798,48.518-225.222,48.518z"/>
		<path opacity="0.46" fill="#B2B2C3" d="M-194.549,96.91c-3.902,2.763-8.524,3.188-13.569,1.23
			c-8.74-3.39-14.962-12.422-17.991-26.117c-2.243-10.145-1.982-19.225-1.97-19.607c0.016-0.48,0.223-0.96,0.583-1.349
			c0.36-0.39,0.83-0.642,1.32-0.711c0.091-0.013,0.18-0.02,0.267-0.02c0.898,0,1.554,0.671,1.525,1.562
			c-0.011,0.354-0.917,35.439,18.111,42.82c3.852,1.493,7.215,1.284,9.933-0.639c7.927-5.609,10.332-24.513,10.59-31.323
			c0.038-0.993,0.897-1.914,1.918-2.053c1.027-0.136,1.812,0.578,1.776,1.554C-182.097,63.341-183.193,88.873-194.549,96.91z"/>
		<path opacity="0.46" fill="#B2B2C3" d="M-226.102,51.43c-0.052,0-0.104,0.003-0.159,0.011c-0.612,0.087-1.125,0.64-1.144,1.236
			c-0.012,0.378-0.276,9.351,1.955,19.442c2.985,13.496,9.083,22.384,17.637,25.701c4.83,1.874,9.151,1.5,12.842-1.112
			c10.995-7.781,12.071-32.919,12.111-33.985c0.022-0.598-0.454-1.013-1.066-0.933c-0.612,0.083-1.127,0.634-1.149,1.231
			c-0.01,0.249-1.066,24.98-10.971,31.989c-2.963,2.096-6.549,2.351-10.659,0.757c-19.414-7.53-18.493-43.044-18.482-43.4
			C-225.169,51.822-225.567,51.43-226.102,51.43z"/>
		<path opacity="0.62" fill="#5A5962" d="M-218.188,79.577c0.829,1.454,1.572,2.963,2.236,4.501
			c-0.306-0.513-2.236-5.63-8.275-4.844C-224.226,79.234-220.648,78.158-218.188,79.577z"/>
		<path opacity="0.62" fill="#5A5962" d="M-220.352,73.233c0.625,1.574,1.159,3.193,1.613,4.833
			c-0.233-0.556-1.206-5.869-7.436-5.91C-226.174,72.156-222.564,71.497-220.352,73.233z"/>
		<path opacity="0.62" fill="#5A5962" d="M-221.749,66.824c0.456,1.654,0.819,3.345,1.103,5.048
			c-0.174-0.586-0.302-5.976-6.694-6.694C-227.341,65.178-223.745,64.855-221.749,66.824z"/>
		<path opacity="0.62" fill="#5A5962" d="M-185.899,85.878c-0.779,1.753-1.645,3.479-2.569,5.166
			c0.268-0.629,3.247-6.155-0.055-10.169C-188.523,80.875-185.933,82.869-185.899,85.878z"/>
		<path opacity="0.62" fill="#5A5962" d="M-191.289,94.767c-1.545,1.238-3.14,2.406-4.76,3.506c0.546-0.45,5.812-4.079,5.509-9.606
			C-190.54,88.666-189.673,91.916-191.289,94.767z"/>
		<path opacity="0.62" fill="#5A5962" d="M-183.323,76.886c-0.445,1.811-0.982,3.612-1.59,5.388
			c0.147-0.646,2.085-6.455-2.059-9.629C-186.972,72.645-183.948,74.04-183.323,76.886z"/>
		<path opacity="0.62" fill="#5A5962" d="M-181.221,67.712c-0.218,1.812-0.531,3.628-0.918,5.427
			c0.066-0.646,1.281-6.523-3.329-9.084C-185.468,64.055-182.223,65.03-181.221,67.712z"/>
		<path opacity="0.62" fill="#5A5962" d="M-222.72,59.611c0.243,1.729,0.392,3.486,0.461,5.245
			c-0.099-0.613-0.033-6.208-5.699-7.571C-227.958,57.285-224.421,57.38-222.72,59.611z"/>
		<path opacity="0.62" fill="#5A5962" d="M-215.329,84.951c1.141,1.208,2.204,2.485,3.195,3.806
			c-0.415-0.423-3.645-4.407-9.396-2.929C-221.529,85.828-218.118,84.099-215.329,84.951z"/>
		<path opacity="0.62" fill="#5A5962" d="M-211.685,89.412c1.374,0.957,2.682,1.991,3.924,3.08
			c-0.498-0.332-4.487-3.575-10.062-1.17C-217.823,91.322-214.669,89.082-211.685,89.412z"/>
		<path opacity="0.62" fill="#5A5962" d="M-206.349,92.69c1.664,0.484,3.284,1.059,4.853,1.7c-0.599-0.162-5.564-1.992-10.495,1.766
			C-211.991,96.156-209.456,93.23-206.349,92.69z"/>
		<path opacity="0.62" fill="#5A5962" d="M-201.578,94.453c1.398-0.197,2.793-0.324,4.169-0.393
			c-0.499,0.079-4.794,0.424-7.303,4.338C-204.712,98.398-203.735,95.748-201.578,94.453z"/>
		<path opacity="0.62" fill="#5A5962" d="M-195.897,92.311c1.028-1.096,2.104-2.148,3.208-3.152
			c-0.361,0.396-3.709,3.607-2.982,7.676C-195.672,96.834-196.769,94.585-195.897,92.311z"/>
		
			<linearGradient id="SVGID_4_" gradientUnits="userSpaceOnUse" x1="1239.9785" y1="97.4141" x2="1230.342" y2="56.9921" gradientTransform="matrix(1 0 -0.1763 1 -1426.2305 0)">
			<stop  offset="0" style="stop-color:#FFFFFF;stop-opacity:0.65"/>
			<stop  offset="1" style="stop-color:#FFFFFF;stop-opacity:0"/>
		</linearGradient>
		<path opacity="0.74" fill="url(#SVGID_4_)" d="M-184.024,63.315c-0.04,1.054-1.104,25.898-11.826,33.486
			c-2.028,1.437-4.284,2.164-6.706,2.164c-1.761,0-3.642-0.384-5.591-1.14c-8.412-3.263-14.418-12.042-17.37-25.391
			c-2.213-10.005-1.956-18.941-1.944-19.317c0.01-0.298,0.266-0.574,0.572-0.618c0.029-0.003,0.055-0.006,0.08-0.006
			c0.269,0,0.465,0.202,0.457,0.469c-0.012,0.361-0.934,36.198,18.759,43.836c4.271,1.657,8.082,1.365,11.205-0.845
			c10.185-7.206,11.247-32.236,11.256-32.489c0.012-0.297,0.27-0.573,0.575-0.615c0.023-0.003,0.049-0.005,0.073-0.005
			C-184.212,62.845-184.015,63.048-184.024,63.315z"/>
		<g>
			
				<linearGradient id="SVGID_5_" gradientUnits="userSpaceOnUse" x1="1249.7686" y1="84.9141" x2="1254.3649" y2="53.8603" gradientTransform="matrix(1 0 -0.1763 1 -1426.2305 0)">
				<stop  offset="0" style="stop-color:#000000;stop-opacity:0"/>
				<stop  offset="1" style="stop-color:#000000;stop-opacity:0.4"/>
			</linearGradient>
			<path fill="url(#SVGID_5_)" d="M-182.325,75.576c-2.263,10.58-6.028,17.8-11.194,21.455c-2.801,1.983-5.875,2.867-9.18,2.663
				c2.618-0.166,5.079-1.049,7.359-2.663c5.166-3.655,8.932-10.875,11.194-21.455c1.601-7.48,1.859-13.925,1.87-14.195
				c0.043-1.138-0.597-2.028-1.559-2.365c0.173-0.055,0.351-0.097,0.532-0.121c1.633-0.221,2.907,0.893,2.847,2.486
				C-180.466,61.651-180.725,68.096-182.325,75.576z"/>
		</g>
		
			<linearGradient id="SVGID_6_" gradientUnits="userSpaceOnUse" x1="1219.835" y1="63.9043" x2="1235.9495" y2="97.7196" gradientTransform="matrix(1 0 -0.1763 1 -1426.2305 0)">
			<stop  offset="0" style="stop-color:#000000;stop-opacity:0"/>
			<stop  offset="1" style="stop-color:#000000;stop-opacity:0.4"/>
		</linearGradient>
		<path fill="url(#SVGID_6_)" d="M-207.046,92.964c-18.443-7.153-17.568-41.603-17.557-41.949c0.036-1.131-0.602-2.013-1.559-2.349
			c0.168-0.052,0.34-0.094,0.516-0.118c0.145-0.021,0.286-0.03,0.424-0.03c1.424,0,2.484,1.046,2.439,2.497
			c-0.012,0.347-0.887,34.796,17.557,41.949c1.245,0.483,2.407,0.774,3.496,0.881C-203.317,94.02-205.079,93.727-207.046,92.964z"/>
		<linearGradient id="SVGID_7_" gradientUnits="userSpaceOnUse" x1="-210.4736" y1="88.6562" x2="-201.7357" y2="44.6026">
			<stop  offset="0" style="stop-color:#000000;stop-opacity:0"/>
			<stop  offset="1" style="stop-color:#000000;stop-opacity:0.4"/>
		</linearGradient>
		<path fill="url(#SVGID_7_)" d="M-225.222,48.518c-0.139,0-0.28,0.01-0.424,0.03c-1.632,0.229-2.997,1.704-3.049,3.296
			c-0.051,1.558-1,38.25,20.517,46.596c5.43,2.106,10.363,1.633,14.659-1.408c5.166-3.655,8.932-10.875,11.194-21.455
			c1.601-7.48,1.859-13.925,1.87-14.195c0.061-1.594-1.214-2.707-2.847-2.486c-1.632,0.221-3.004,1.691-3.064,3.284
			c-0.258,6.647-2.559,25.048-10.02,30.324c-2.39,1.69-5.281,1.841-8.84,0.461c-18.443-7.153-17.568-41.603-17.557-41.949
			C-222.737,49.563-223.798,48.518-225.222,48.518z"/>
		<linearGradient id="SVGID_8_" gradientUnits="userSpaceOnUse" x1="-192.6411" y1="76.8369" x2="-245.224" y2="-52.6262">
			<stop  offset="0" style="stop-color:#B6D368"/>
			<stop  offset="1" style="stop-color:#7BB642"/>
		</linearGradient>
		<path fill="url(#SVGID_8_)" d="M-179.094,84.473l-83.218-25.769c0,0-3.571-1.015-4.41-2.02c-0.92-1.103-1.097-4.078-1.097-4.078
			l-12.863-99.221l96.569-18.094l7.436,149.265C-177.742,84.766-178.83,84.536-179.094,84.473z"/>
		<linearGradient id="SVGID_9_" gradientUnits="userSpaceOnUse" x1="-114.5161" y1="20.2441" x2="-163.293" y2="12.6">
			<stop  offset="0" style="stop-color:#B2D235"/>
			<stop  offset="1" style="stop-color:#5BAB46"/>
		</linearGradient>
		<path fill="url(#SVGID_9_)" d="M-150.273,71.647c0,0-0.14,0.763-0.572,1.041s-0.904,0.333-0.904,0.333l-13.631,1.015l-10.03,9.966
			c-0.375,0.292-0.816,0.462-1.266,0.55l-7.436-149.265l52.324,11.325L-150.273,71.647z"/>
		
			<linearGradient id="SVGID_10_" gradientUnits="userSpaceOnUse" x1="-585.3779" y1="-365.7539" x2="-598.1202" y2="-469.5118" gradientTransform="matrix(0.9991 -0.0435 0.0435 0.9991 372.0288 351.5459)">
			<stop  offset="0" style="stop-color:#1D1D1B;stop-opacity:0.5"/>
			<stop  offset="0.0896" style="stop-color:#1D1D1B;stop-opacity:0.4552"/>
			<stop  offset="1" style="stop-color:#1D1D1B;stop-opacity:0"/>
		</linearGradient>
		<path opacity="0.47" fill="url(#SVGID_10_)" d="M-214.391,2.552c-1.48,1.993-3.202,3.744-5.022,5.296
			c-1.794,1.528-3.68,2.86-5.526,4.043c-1.316,0.823-2.457,1.614-3.424,2.391c-0.96,0.771-1.752,1.528-2.376,2.287
			c-0.622,0.756-1.078,1.515-1.371,2.292c-0.292,0.775-0.42,1.571-0.384,2.401c0.048,1.121,0.297,2.135,0.724,3.031
			c0.427,0.899,1.034,1.682,1.802,2.336c0.771,0.658,1.707,1.187,2.785,1.572c1.088,0.388,2.324,0.63,3.688,0.71
			c1.486,0.087,2.919,0.042,4.285-0.1c1.38-0.143,2.687-0.382,3.902-0.681c1.227-0.3,2.358-0.659,3.376-1.036
			c1.024-0.381,1.931-0.778,2.696-1.15l6.441,19.191c-0.958,0.49-2.12,0.939-3.462,1.319c-1.328,0.376-2.83,0.682-4.477,0.892
			c-1.626,0.206-3.391,0.318-5.269,0.31c-1.851-0.008-3.809-0.134-5.848-0.4c-4.396-0.576-8.366-1.792-11.835-3.524
			c-3.374-1.687-6.299-3.875-8.706-6.47c-2.36-2.543-4.241-5.501-5.568-8.793c-1.314-3.26-2.099-6.88-2.27-10.807
			c-0.103-2.349,0.134-4.507,0.645-6.497c0.513-2.002,1.305-3.846,2.312-5.55c1.017-1.72,2.257-3.305,3.656-4.769
			c1.417-1.482,3.001-2.847,4.683-4.102c1.371-1.002,2.529-1.946,3.494-2.861c0.972-0.923,1.745-1.814,2.337-2.704
			c0.596-0.896,1.008-1.786,1.261-2.706c0.253-0.922,0.346-1.87,0.301-2.877c-0.044-1.007-0.26-1.949-0.644-2.784
			c-0.382-0.833-0.931-1.558-1.638-2.131c-0.703-0.569-1.563-0.988-2.571-1.216c-1-0.227-2.142-0.264-3.42-0.075
			c-1.448,0.214-2.908,0.632-4.328,1.176c-1.401,0.537-2.765,1.198-4.04,1.91c-1.26,0.704-2.437,1.459-3.483,2.196
			c-1.037,0.729-1.948,1.442-2.691,2.071l-4.411-14.634c0.73-0.937,1.661-1.872,2.756-2.775c1.106-0.912,2.384-1.796,3.796-2.618
			c1.431-0.833,3.003-1.605,4.678-2.281c1.7-0.688,3.508-1.276,5.382-1.731c0.032-0.007,0.064-0.015,0.095-0.021
			c0.031-0.008,0.063-0.015,0.094-0.021c0.032-0.007,0.063-0.015,0.095-0.021c0.032-0.007,0.063-0.014,0.095-0.021
			c3.996-0.884,7.874-1.099,11.487-0.614c3.723,0.498,7.145,1.735,10.099,3.73c3.022,2.042,5.529,4.858,7.348,8.443
			c1.84,3.63,2.953,8.007,3.174,13.083c0.136,3.106-0.295,5.925-1.14,8.479C-211.647-1.725-212.892,0.534-214.391,2.552z"/>
		
			<linearGradient id="SVGID_11_" gradientUnits="userSpaceOnUse" x1="-584.4121" y1="-366.7202" x2="-597.1544" y2="-470.4782" gradientTransform="matrix(0.9991 -0.0435 0.0435 0.9991 372.0288 351.5459)">
			<stop  offset="0" style="stop-color:#FFFFFF"/>
			<stop  offset="1" style="stop-color:#CFCEE7"/>
		</linearGradient>
		<path fill="url(#SVGID_11_)" d="M-213.467,1.544c-1.48,1.994-3.203,3.744-5.023,5.296c-1.794,1.528-3.68,2.86-5.525,4.044
			c-1.316,0.822-2.458,1.613-3.424,2.39c-0.96,0.771-1.752,1.528-2.377,2.287c-0.621,0.756-1.079,1.515-1.371,2.292
			c-0.292,0.775-0.421,1.571-0.385,2.401c0.049,1.121,0.297,2.135,0.723,3.031c0.428,0.899,1.035,1.683,1.803,2.337
			c0.771,0.657,1.707,1.187,2.785,1.57c1.088,0.389,2.324,0.631,3.688,0.711c1.484,0.088,2.919,0.042,4.283-0.099
			c1.38-0.143,2.688-0.383,3.902-0.681c1.228-0.301,2.359-0.66,3.376-1.037c1.024-0.38,1.931-0.777,2.696-1.15l6.441,19.192
			c-0.957,0.489-2.119,0.939-3.461,1.318c-1.329,0.376-2.83,0.682-4.477,0.893c-1.626,0.206-3.392,0.318-5.27,0.31
			c-1.851-0.009-3.808-0.135-5.848-0.401c-4.396-0.576-8.365-1.792-11.834-3.525c-3.373-1.686-6.299-3.874-8.706-6.468
			c-2.36-2.545-4.241-5.501-5.568-8.794c-1.314-3.26-2.099-6.88-2.271-10.807c-0.102-2.349,0.135-4.506,0.645-6.497
			c0.513-2.002,1.305-3.846,2.312-5.549c1.018-1.721,2.258-3.305,3.657-4.77c1.417-1.482,3-2.846,4.683-4.102
			c1.371-1.002,2.529-1.946,3.494-2.861c0.973-0.923,1.744-1.814,2.337-2.704c0.595-0.895,1.007-1.786,1.26-2.706
			c0.254-0.922,0.346-1.87,0.302-2.877c-0.043-1.006-0.26-1.948-0.644-2.784c-0.383-0.833-0.931-1.558-1.639-2.13
			c-0.703-0.57-1.562-0.989-2.57-1.217c-1-0.226-2.143-0.264-3.421-0.074c-1.448,0.213-2.909,0.631-4.328,1.175
			c-1.402,0.537-2.764,1.198-4.039,1.91c-1.26,0.705-2.437,1.46-3.483,2.196c-1.037,0.729-1.948,1.442-2.691,2.071l-4.411-14.634
			c0.73-0.937,1.661-1.871,2.756-2.774c1.106-0.913,2.385-1.797,3.797-2.619c1.431-0.833,3.003-1.604,4.677-2.281
			c1.7-0.688,3.508-1.276,5.382-1.731c0.032-0.007,0.063-0.015,0.095-0.021c0.032-0.007,0.064-0.015,0.095-0.021
			s0.062-0.015,0.095-0.021c0.031-0.008,0.063-0.015,0.095-0.021c3.996-0.883,7.873-1.099,11.488-0.614
			c3.723,0.498,7.144,1.735,10.099,3.731c3.021,2.041,5.529,4.857,7.347,8.442c1.841,3.631,2.953,8.008,3.175,13.084
			c0.136,3.105-0.295,5.924-1.141,8.478C-210.724-2.732-211.969-0.474-213.467,1.544z"/>
		<linearGradient id="SVGID_12_" gradientUnits="userSpaceOnUse" x1="-204.291" y1="7.6113" x2="-140.7968" y2="13.7444">
			<stop  offset="0" style="stop-color:#1D1D1B;stop-opacity:0.5"/>
			<stop  offset="0.038" style="stop-color:#1D1D1B;stop-opacity:0.4837"/>
			<stop  offset="0.4243" style="stop-color:#1D1D1B;stop-opacity:0.3185"/>
			<stop  offset="1" style="stop-color:#1D1D1B;stop-opacity:0"/>
		</linearGradient>
		<path opacity="0.41" fill="url(#SVGID_12_)" d="M-162.059-36.863l-3.322,110.907l-0.568,0.556l1.579-109.926
			c0,0-13.842-20.999-15.929-20.388c-3.058,0.895,5.965,138.658,5.965,138.658l-1.024,1.018c-0.385,0.318-0.848,0.498-1.318,0.59
			l-7.331-147.165l0,0l-0.104-2.1l2.586,3.265l0,0L-162.059-36.863z"/>
		<linearGradient id="SVGID_13_" gradientUnits="userSpaceOnUse" x1="-193.0737" y1="80.5537" x2="-200.4073" y2="69.3551">
			<stop  offset="0" style="stop-color:#000000;stop-opacity:0"/>
			<stop  offset="1" style="stop-color:#000000;stop-opacity:0.4"/>
		</linearGradient>
		<path fill="url(#SVGID_13_)" d="M-199.682,78.093c-1.173-4.647-2.689-8.975-3.731-11.545c-0.647-1.593,0.071-3.063,1.605-3.284
			c1.533-0.221,3.303,0.893,3.951,2.485c0.109,0.271,2.713,6.716,4.437,14.195c0.007,0.032,0.013,0.062,0.021,0.094L-199.682,78.093
			z"/>
		<linearGradient id="SVGID_14_" gradientUnits="userSpaceOnUse" x1="-237.4155" y1="66.8096" x2="-243.659" y2="59.3768">
			<stop  offset="0" style="stop-color:#000000;stop-opacity:0"/>
			<stop  offset="1" style="stop-color:#000000;stop-opacity:0.4"/>
		</linearGradient>
		<path fill="url(#SVGID_14_)" d="M-244.021,64.363c-1.383-2.954-2.769-5.531-3.779-7.248c-0.874-1.479-0.378-3.04,1.107-3.483
			c1.484-0.443,3.397,0.398,4.272,1.879c0.132,0.225,2.926,4.983,5.513,11.055L-244.021,64.363z"/>
		<linearGradient id="SVGID_15_" gradientUnits="userSpaceOnUse" x1="-159.5249" y1="-52.8057" x2="-157.0684" y2="-62.2019">
			<stop  offset="0" style="stop-color:#000000;stop-opacity:0"/>
			<stop  offset="1" style="stop-color:#000000;stop-opacity:0.4"/>
		</linearGradient>
		<polygon opacity="0.32" fill="url(#SVGID_15_)" points="-184.083,-64.71 -162.067,-36.865 -131.702,-53.388 		"/>
		<linearGradient id="SVGID_16_" gradientUnits="userSpaceOnUse" x1="-162.7778" y1="-38.0127" x2="-157.1059" y2="-62.5136">
			<stop  offset="0" style="stop-color:#FFFFFF;stop-opacity:0.5"/>
			<stop  offset="0.0896" style="stop-color:#FFFFFF;stop-opacity:0.4552"/>
			<stop  offset="1" style="stop-color:#FFFFFF;stop-opacity:0"/>
		</linearGradient>
		<polygon opacity="0.19" fill="url(#SVGID_16_)" points="-184.111,-64.722 -162.34,-36.874 -131.702,-53.388 		"/>
		<linearGradient id="SVGID_17_" gradientUnits="userSpaceOnUse" x1="-164.9922" y1="-40.7324" x2="-155.0528" y2="-66.4348">
			<stop  offset="0" style="stop-color:#000000;stop-opacity:0"/>
			<stop  offset="1" style="stop-color:#000000;stop-opacity:0.4"/>
		</linearGradient>
		<polygon opacity="0.19" fill="url(#SVGID_17_)" points="-184.111,-64.722 -162.34,-36.874 -131.702,-53.388 		"/>
		<linearGradient id="SVGID_18_" gradientUnits="userSpaceOnUse" x1="-175.4077" y1="65.5322" x2="-238.4864" y2="-5.6856">
			<stop  offset="0" style="stop-color:#FFFFFF;stop-opacity:0.5"/>
			<stop  offset="1" style="stop-color:#FFFFFF;stop-opacity:0"/>
		</linearGradient>
		<path opacity="0.6" fill="url(#SVGID_18_)" d="M-205.497,13.045c11.387-15.457,19.013-32.14,22.85-48.348l5.971,119.854
			c-1.065,0.209-2.153-0.021-2.417-0.084l-83.218-25.769c0,0-0.797-0.227-1.726-0.571
			C-243.001,50.844-221.883,35.287-205.497,13.045z"/>
		<linearGradient id="SVGID_19_" gradientUnits="userSpaceOnUse" x1="-185.7905" y1="11.459" x2="-115.7924" y2="9.3182">
			<stop  offset="0" style="stop-color:#1D1D1B;stop-opacity:0.5"/>
			<stop  offset="0.0896" style="stop-color:#1D1D1B;stop-opacity:0.4552"/>
			<stop  offset="1" style="stop-color:#1D1D1B;stop-opacity:0"/>
		</linearGradient>
		<path fill="url(#SVGID_19_)" d="M-150.792,72.636c0.465-0.403,0.521-1.012,0.521-1.012l18.296-125.012l-30.083,16.524
			l-3.322,110.899l13.448-1.001C-151.933,73.035-151.256,73.04-150.792,72.636z"/>
		<linearGradient id="SVGID_20_" gradientUnits="userSpaceOnUse" x1="-133.3076" y1="67.3076" x2="-138.7326" y2="47.1958">
			<stop  offset="0" style="stop-color:#FFFFFF;stop-opacity:0.4"/>
			<stop  offset="1" style="stop-color:#FFFFFF;stop-opacity:0"/>
		</linearGradient>
		<path fill="url(#SVGID_20_)" d="M-152.997,72.364c0,0,0.623-0.049,1.087-0.452c0.465-0.403,0.573-0.958,0.573-0.958l18-123.594
			l1.361-0.748l-18.296,125.012c0,0-0.056,0.608-0.521,1.012c-0.464,0.404-1.141,0.399-1.141,0.399l-13.448,1.001L-152.997,72.364z"
			/>
		<linearGradient id="SVGID_21_" gradientUnits="userSpaceOnUse" x1="-237.0923" y1="-63.3779" x2="-232.3673" y2="-39.2745">
			<stop  offset="0" style="stop-color:#1D1D1B;stop-opacity:0.5"/>
			<stop  offset="0.0896" style="stop-color:#1D1D1B;stop-opacity:0.4552"/>
			<stop  offset="1" style="stop-color:#1D1D1B;stop-opacity:0"/>
		</linearGradient>
		<polygon fill="url(#SVGID_21_)" points="-280.682,-46.619 -184.112,-64.713 -179.359,37.665 -270.661,36.978 		"/>
		<path opacity="0.3" fill="#FFFFFF" d="M-246.93,51.51c1.943-0.712,4.225,0.643,5.095,3.023c0.871,2.379,0,4.886-1.943,5.596
			c-1.944,0.712-4.227-0.641-5.096-3.022C-249.745,54.725-248.875,52.218-246.93,51.51z"/>
		<path opacity="0.89" d="M-246.93,52.602c1.943-0.712,4.225,0.643,5.095,3.024c0.871,2.379,0,4.885-1.943,5.596
			c-1.944,0.711-4.227-0.641-5.096-3.023C-249.745,55.817-248.875,53.311-246.93,52.602z"/>
		<linearGradient id="SVGID_22_" gradientUnits="userSpaceOnUse" x1="-195.0698" y1="10.5215" x2="-131.3334" y2="7.9061">
			<stop  offset="0" style="stop-color:#1D1D1B;stop-opacity:0.5"/>
			<stop  offset="1" style="stop-color:#1D1D1B;stop-opacity:0"/>
		</linearGradient>
		<path fill="url(#SVGID_22_)" d="M-165.381,74.044l-9.978,9.918c-0.385,0.318-0.848,0.498-1.318,0.59l-7.436-149.265l22.054,27.85
			L-165.381,74.044z"/>
		<linearGradient id="SVGID_23_" gradientUnits="userSpaceOnUse" x1="-217.439" y1="84.0557" x2="-228.3614" y2="-35.3639">
			<stop  offset="0" style="stop-color:#FFFFFF;stop-opacity:0.5"/>
			<stop  offset="1" style="stop-color:#FFFFFF;stop-opacity:0"/>
		</linearGradient>
		<path fill="url(#SVGID_23_)" d="M-179.094,84.468l-83.218-25.769c0,0-3.571-1.014-4.41-2.02c-0.063-0.075-0.122-0.16-0.177-0.251
			l83.927,23.207c0.686,0.155,2.396,0.799,2.135-4.063l-5.088-139.945l1.812-0.34l7.436,149.265
			C-177.742,84.761-178.83,84.531-179.094,84.468z"/>
		<linearGradient id="SVGID_24_" gradientUnits="userSpaceOnUse" x1="-217.439" y1="84.0557" x2="-228.3614" y2="-35.3639">
			<stop  offset="0" style="stop-color:#FFFFFF;stop-opacity:0.5"/>
			<stop  offset="1" style="stop-color:#FFFFFF;stop-opacity:0"/>
		</linearGradient>
		<path fill="url(#SVGID_24_)" d="M-179.094,84.468l-83.218-25.769c0,0-3.571-1.014-4.41-2.02c-0.063-0.075-0.122-0.16-0.177-0.251
			l19.443,5.376l66.831,20.694c0.264,0.063,1.352,0.292,2.417,0.084l-7.324-147.03l1.42-0.266l7.436,149.265
			C-177.742,84.761-178.83,84.531-179.094,84.468z"/>
		<linearGradient id="SVGID_25_" gradientUnits="userSpaceOnUse" x1="-162.1792" y1="-38.248" x2="-183.8829" y2="-72.5544">
			<stop  offset="0" style="stop-color:#FFFFFF;stop-opacity:0.5"/>
			<stop  offset="0.0896" style="stop-color:#FFFFFF;stop-opacity:0.4552"/>
			<stop  offset="1" style="stop-color:#FFFFFF;stop-opacity:0"/>
		</linearGradient>
		<path opacity="0.32" fill="url(#SVGID_25_)" d="M-157.644-39.284l-4.424,2.419l-22.044-27.846l1.22,0.265
			c0,0,19.459,24.997,21.217,25.813C-160.501-38.088-157.644-39.284-157.644-39.284z"/>
		<linearGradient id="SVGID_26_" gradientUnits="userSpaceOnUse" x1="-168.895" y1="-35.2373" x2="-170.4089" y2="-40.8496">
			<stop  offset="0" style="stop-color:#000000;stop-opacity:0"/>
			<stop  offset="1" style="stop-color:#000000;stop-opacity:0.4"/>
		</linearGradient>
		<path opacity="0.57" fill="url(#SVGID_26_)" d="M-184.112-64.713l22.045,27.848C-162.067-36.865-176.066-52.083-184.112-64.713z"
			/>
		<linearGradient id="SVGID_27_" gradientUnits="userSpaceOnUse" x1="-145.8501" y1="-41.29" x2="-146.2234" y2="-42.6741">
			<stop  offset="0" style="stop-color:#000000;stop-opacity:0"/>
			<stop  offset="1" style="stop-color:#000000;stop-opacity:0.4"/>
		</linearGradient>
		<path opacity="0.46" fill="url(#SVGID_27_)" d="M-131.702-53.388l-30.365,16.522C-162.067-36.865-158.601-37.45-131.702-53.388z"
			/>
		<path opacity="0.3" fill="#FFFFFF" d="M-202.869,61.632c1.942-0.712,4.226,0.643,5.096,3.024c0.87,2.379,0,4.885-1.943,5.596
			c-1.945,0.712-4.227-0.642-5.097-3.023C-205.684,64.848-204.813,62.34-202.869,61.632z"/>
		<path opacity="0.89" d="M-202.869,62.724c1.942-0.711,4.226,0.644,5.096,3.024c0.87,2.379,0,4.886-1.943,5.596
			c-1.945,0.712-4.227-0.641-5.097-3.022S-204.813,63.433-202.869,62.724z"/>
		<path fill="#5A5962" d="M-245.539,53.614c-0.138,0-0.278,0.01-0.419,0.03c-1.592,0.229-2.696,1.704-2.468,3.296
			c0.224,1.558,5.744,38.25,28.732,46.596c5.802,2.107,10.652,1.633,14.412-1.407c4.521-3.656,7.014-10.875,7.411-21.456
			c0.28-7.48-0.596-13.925-0.634-14.195c-0.221-1.593-1.691-2.706-3.284-2.485c-1.594,0.22-2.707,1.69-2.486,3.284
			c0.915,6.646,1.858,25.047-4.672,30.324c-2.092,1.689-4.957,1.84-8.759,0.46c-19.705-7.153-24.904-41.602-24.954-41.949
			C-242.869,54.66-244.115,53.614-245.539,53.614z"/>
		<path opacity="0.46" fill="#B2B2C3" d="M-206.332,102.007c-3.416,2.763-7.963,3.188-13.353,1.231
			c-9.339-3.391-17.153-12.422-22.596-26.117c-4.032-10.145-5.373-19.225-5.427-19.607c-0.069-0.481,0.053-0.961,0.345-1.35
			c0.292-0.39,0.717-0.642,1.195-0.711c0.088-0.013,0.176-0.019,0.264-0.019c0.898,0,1.672,0.671,1.8,1.561
			c0.051,0.354,5.331,35.439,25.662,42.82c4.114,1.494,7.44,1.285,9.819-0.639c6.938-5.608,6.01-24.512,5.066-31.323
			c-0.137-0.993,0.56-1.914,1.557-2.052c1.004-0.136,1.915,0.578,2.051,1.554C-199.8,68.438-196.395,93.971-206.332,102.007z"/>
		<path opacity="0.81" fill="#B2B2C3" d="M-245.905,56.527c-0.052,0-0.104,0.003-0.157,0.011c-0.597,0.086-1.012,0.639-0.926,1.236
			c0.054,0.377,1.372,9.35,5.383,19.441c5.364,13.497,13.03,22.384,22.168,25.702c5.16,1.874,9.415,1.5,12.646-1.112
			c9.623-7.782,6.267-32.92,6.119-33.986c-0.083-0.597-0.634-1.013-1.231-0.933c-0.598,0.083-1.015,0.635-0.933,1.232
			c0.034,0.249,3.339,24.979-5.33,31.988c-2.593,2.097-6.135,2.352-10.525,0.757c-20.742-7.529-26.083-43.043-26.135-43.4
			C-244.904,56.919-245.371,56.527-245.905,56.527z"/>
		<path opacity="0.42" fill="#5A5962" d="M-233.028,84.675c1.086,1.454,2.095,2.963,3.031,4.501
			c-0.396-0.513-3.229-5.631-9.129-4.845C-239.126,84.331-235.739,83.256-233.028,84.675z"/>
		<path opacity="0.42" fill="#5A5962" d="M-236.31,78.331c0.902,1.574,1.722,3.193,2.465,4.833c-0.331-0.557-2.241-5.87-8.478-5.911
			C-242.323,77.253-238.83,76.594-236.31,78.331z"/>
		<path opacity="0.42" fill="#5A5962" d="M-238.837,71.922c0.748,1.654,1.409,3.344,1.992,5.047
			c-0.277-0.586-1.355-5.975-7.875-6.694C-244.72,70.274-241.18,69.952-238.837,71.922z"/>
		<path opacity="0.62" fill="#5A5962" d="M-199.629,90.975c-0.47,1.753-1.03,3.479-1.658,5.166
			c0.157-0.628,2.162-6.155-1.848-10.168C-203.135,85.973-200.192,87.967-199.629,90.975z"/>
		<path opacity="0.62" fill="#5A5962" d="M-203.451,99.864c-1.326,1.238-2.715,2.406-4.141,3.505
			c0.466-0.45,5.093-4.078,3.814-9.605C-203.777,93.764-202.337,97.014-203.451,99.864z"/>
		<path opacity="0.62" fill="#5A5962" d="M-198.638,81.982c-0.126,1.812-0.346,3.612-0.641,5.389
			c0.034-0.647,0.946-6.456-3.756-9.629C-203.034,77.742-199.765,79.138-198.638,81.982z"/>
		<path opacity="0.62" fill="#5A5962" d="M-198.152,72.81c0.101,1.812,0.108,3.627,0.038,5.426
			c-0.047-0.646,0.132-6.523-4.931-9.083C-203.045,69.152-199.627,70.128-198.152,72.81z"/>
		<path opacity="0.42" fill="#5A5962" d="M-241.081,64.709c0.548,1.729,1.007,3.485,1.386,5.245
			c-0.206-0.614-1.128-6.208-7.034-7.572C-246.729,62.382-243.176,62.478-241.081,64.709z"/>
		<path opacity="0.42" fill="#5A5962" d="M-229.222,90.048c1.354,1.208,2.643,2.486,3.867,3.806
			c-0.49-0.423-4.421-4.406-9.912-2.928C-235.267,90.926-232.162,89.196-229.222,90.048z"/>
		<path opacity="0.42" fill="#5A5962" d="M-224.791,94.51c1.543,0.956,3.034,1.991,4.467,3.08c-0.557-0.332-5.118-3.575-10.27-1.171
			C-230.593,96.419-227.833,94.18-224.791,94.51z"/>
		<path opacity="0.62" fill="#5A5962" d="M-218.877,97.788c1.75,0.484,3.472,1.059,5.153,1.7c-0.628-0.162-5.916-1.992-10.184,1.765
			C-223.908,101.253-221.89,98.327-218.877,97.788z"/>
		<path opacity="0.62" fill="#5A5962" d="M-213.795,99.551c1.363-0.198,2.735-0.324,4.1-0.393c-0.485,0.079-4.72,0.423-6.538,4.337
			C-216.233,103.495-215.724,100.846-213.795,99.551z"/>
		<path opacity="0.62" fill="#5A5962" d="M-208.492,97.407c0.835-1.096,1.725-2.147,2.651-3.151
			c-0.291,0.396-3.072,3.607-1.628,7.676C-207.469,101.932-208.962,99.683-208.492,97.407z"/>
		<linearGradient id="SVGID_28_" gradientUnits="userSpaceOnUse" x1="-215.1221" y1="102.5117" x2="-224.7586" y2="62.0896">
			<stop  offset="0" style="stop-color:#FFFFFF;stop-opacity:0.65"/>
			<stop  offset="1" style="stop-color:#FFFFFF;stop-opacity:0"/>
		</linearGradient>
		<path fill="url(#SVGID_28_)" d="M-201.731,68.413c0.146,1.054,3.463,25.897-5.922,33.486c-1.775,1.436-3.903,2.164-6.325,2.164
			c-1.76,0-3.708-0.384-5.791-1.141c-8.987-3.263-16.542-12.042-21.847-25.39c-3.977-10.006-5.296-18.942-5.35-19.318
			c-0.043-0.297,0.165-0.574,0.463-0.617c0.028-0.004,0.054-0.006,0.079-0.006c0.269,0,0.501,0.202,0.54,0.469
			c0.052,0.361,5.448,36.197,26.489,43.836c4.562,1.656,8.322,1.364,11.055-0.845c8.914-7.207,5.563-32.237,5.528-32.489
			c-0.041-0.298,0.168-0.574,0.466-0.615c0.023-0.004,0.049-0.005,0.073-0.005C-202.002,67.942-201.769,68.145-201.731,68.413z"/>
		<g>
			<linearGradient id="SVGID_29_" gradientUnits="userSpaceOnUse" x1="-205.3306" y1="90.0107" x2="-200.7344" y2="58.9577">
				<stop  offset="0" style="stop-color:#000000;stop-opacity:0"/>
				<stop  offset="1" style="stop-color:#000000;stop-opacity:0.4"/>
			</linearGradient>
			<path fill="url(#SVGID_29_)" d="M-197.87,80.673c-0.397,10.581-2.891,17.8-7.411,21.456c-2.452,1.982-5.37,2.866-8.711,2.662
				c2.589-0.165,4.895-1.048,6.891-2.662c4.521-3.656,7.014-10.875,7.411-21.456c0.28-7.48-0.597-13.925-0.634-14.195
				c-0.157-1.138-0.954-2.028-1.976-2.364c0.164-0.055,0.334-0.097,0.512-0.121c1.593-0.221,3.063,0.893,3.284,2.485
				C-198.466,66.748-197.59,73.192-197.87,80.673z"/>
		</g>
		<linearGradient id="SVGID_30_" gradientUnits="userSpaceOnUse" x1="-235.2646" y1="69.001" x2="-219.15" y2="102.8167">
			<stop  offset="0" style="stop-color:#000000;stop-opacity:0"/>
			<stop  offset="1" style="stop-color:#000000;stop-opacity:0.4"/>
		</linearGradient>
		<path fill="url(#SVGID_30_)" d="M-219.525,98.061c-19.705-7.153-24.904-41.602-24.955-41.949c-0.164-1.13-0.957-2.013-1.972-2.348
			c0.159-0.053,0.323-0.095,0.495-0.119c0.141-0.021,0.281-0.03,0.419-0.03c1.424,0,2.669,1.046,2.879,2.497
			c0.05,0.348,5.249,34.796,24.954,41.949c1.33,0.483,2.543,0.774,3.651,0.882C-215.61,99.116-217.425,98.823-219.525,98.061z"/>
		<g opacity="0.45">
			<linearGradient id="SVGID_31_" gradientUnits="userSpaceOnUse" x1="-246.4038" y1="69.6621" x2="-245.3702" y2="57.8138">
				<stop  offset="0" style="stop-color:#000000;stop-opacity:0"/>
				<stop  offset="1" style="stop-color:#000000;stop-opacity:0.4"/>
			</linearGradient>
			<path fill="url(#SVGID_31_)" d="M-245.838,57.698c-1.001,0.366-1.715,1.209-2.056,2.267c-0.335-1.695-0.497-2.782-0.532-3.024
				c-0.229-1.592,0.876-3.066,2.468-3.296c0.141-0.021,0.281-0.03,0.419-0.03c1.424,0,2.669,1.046,2.879,2.497
				c0.008,0.054,0.141,0.939,0.436,2.421C-243.276,57.617-244.624,57.254-245.838,57.698z"/>
			<linearGradient id="SVGID_32_" gradientUnits="userSpaceOnUse" x1="-201.6836" y1="73.5625" x2="-200.6501" y2="61.7163">
				<stop  offset="0" style="stop-color:#000000;stop-opacity:0"/>
				<stop  offset="1" style="stop-color:#000000;stop-opacity:0.4"/>
			</linearGradient>
			<path fill="url(#SVGID_32_)" d="M-202.085,68.714c-0.827,0.301-1.458,0.931-1.845,1.735c-0.104-1.222-0.225-2.301-0.345-3.173
				c-0.221-1.594,0.893-3.064,2.486-3.284c1.593-0.221,3.063,0.893,3.284,2.485c0.017,0.116,0.188,1.382,0.356,3.38
				C-199.236,68.719-200.741,68.222-202.085,68.714z"/>
		</g>
	</g>
</symbol>
<g id="Layer_1">
</g>
<g id="Layer_2">
	
		<use xlink:href="#Shopify"  width="656.439" height="209.655" id="XMLID_3_" x="-328.219" y="-104.828" transform="matrix(1 0 0 -1 314.9502 116.9961)" overflow="visible"/>
</g>
</svg>
