<?xml version="1.0" encoding="utf-8"?>
<!-- Generator: Adobe Illustrator 16.0.0, SVG Export Plug-In . SVG Version: 6.00 Build 0)  -->
<!DOCTYPE svg PUBLIC "-//W3C//DTD SVG 1.1//EN" "http://www.w3.org/Graphics/SVG/1.1/DTD/svg11.dtd">
<svg version="1.1" id="Layer_1" xmlns="http://www.w3.org/2000/svg" xmlns:xlink="http://www.w3.org/1999/xlink" x="0px" y="0px"
	 width="417px" height="434px" viewBox="0 0 417 434" enable-background="new 0 0 417 434" xml:space="preserve">
<path class="full-logo__icon" fill="#DE5598" d="M237.52,5.274c-2.526,0.347-4.789,0.873-5.116,1.184c-0.733,0.697,0.845,0.705,6.287,0.02
	c4.08-0.514,5.845-0.008,4.534,1.301c-0.638,0.638-1.816,0.751-4.861,0.466c-0.462-0.042-4.179,0.448-8.263,1.088
	c-5.442,0.858-7.49,0.96-7.682,0.388c-0.314-0.966-1.466-0.906-1.259,0.066c0.092,0.444-0.327,0.876-0.973,1.002
	c-0.649,0.131-1.135-0.064-1.135-0.452c0-0.387,0.29-0.681,0.681-0.681c0.387,0,0.542-0.219,0.358-0.518
	c-0.382-0.627-2.334-0.627-3.374,0c-0.358,0.217-2.467,0.564-4.729,0.779c-2.271,0.217-4.617,0.677-5.283,1.036
	c-0.646,0.347-1.816,0.649-2.525,0.649c-0.718,0-1.331,0.269-1.331,0.583c0,0.307-0.586,0.428-1.235,0.257
	c-1.57-0.416-7.969,0.907-10.303,2.13c-0.973,0.51-2.124,0.918-2.59,0.918c-1.299,0-10.718,3.219-11.411,3.896
	c-0.362,0.362-1.291,0.639-2.136,0.639c-0.84,0-1.49,0.281-1.49,0.649c0,0.347-0.454,0.647-0.972,0.647
	c-0.522,0-0.972,0.259-0.972,0.552c0,0.293-0.846,0.58-1.817,0.616c-1,0.038-2.821,0.633-4.048,1.327
	c-1.239,0.701-3.956,1.713-6.096,2.267c-2.136,0.56-4.649,1.6-5.638,2.335c-0.968,0.725-2.18,1.331-2.657,1.331
	c-0.471,0-2.04,0.6-3.402,1.297c-1.363,0.697-3.096,1.293-3.754,1.293c-0.669,0-2.176,0.673-3.279,1.46
	c-1.119,0.801-3.207,1.53-4.633,1.62c-1.427,0.09-2.881,0.544-3.243,1.004c-0.358,0.47-1.586,1.219-2.749,1.686
	c-1.172,0.47-1.921,1.147-1.689,1.526c0.242,0.387,0.035,0.538-0.482,0.354c-0.494-0.175-1.885,0.221-3.048,0.873
	c-1.167,0.658-2.431,1.199-2.789,1.199s-1.681,0.793-2.979,1.785c-1.291,0.99-2.431,1.709-2.559,1.618
	c-0.123-0.084-1.849,0.871-3.793,2.109c-1.944,1.237-3.785,2.269-4.048,2.269c-0.274,0-1.395,0.849-2.565,1.942
	c-1.164,1.094-2.271,1.946-2.522,1.946s-1.979,1.305-3.856,2.917c-1.881,1.607-3.622,2.913-3.893,2.913
	c-0.264,0-1.586,0.972-2.885,2.109c-1.291,1.138-3.08,2.55-3.889,3.076c-0.837,0.552-1.94,1.396-2.525,1.946
	c-0.574,0.54-1.977,1.638-3.145,2.46c-1.167,0.829-2.107,1.954-2.107,2.53c0,0.584-0.199,0.841-0.45,0.592
	c-0.442-0.432-3.435,2.779-3.435,3.684c0,0.273-0.263,0.458-0.648,0.458c-0.758,0-14.217,13.61-14.232,14.385
	c-0.008,0.583-4.86,5.703-5.402,5.703c-0.853,0-4.956,4.929-4.977,5.964c-0.008,0.624-0.86,1.735-1.964,2.558
	c-1.1,0.829-1.944,1.727-1.944,2.078c0,0.334-0.733,1.585-1.617,2.753c-0.885,1.167-1.622,2.448-1.622,2.819
	c0,0.389-0.274,0.681-0.649,0.681c-0.335,0-0.646,0.58-0.646,1.229c0,0.783-0.709,1.48-1.944,1.908
	c-1.868,0.653-2.271,1.46-1.992,4.056c0.064,0.627-0.47,1.297-1.251,1.554c-0.772,0.261-1.219,0.829-1.036,1.331
	c0.207,0.554-0.191,0.942-1.1,1.068c-1.012,0.14-1.378,0.618-1.267,1.653c0.12,1.102-0.159,1.457-1.163,1.457
	c-0.713,0-1.275,0.392-1.211,0.845c0.238,1.685-0.072,2.398-1.028,2.398c-0.614,0-0.909,0.518-0.81,1.424
	c0.112,0.97-0.246,1.514-1.135,1.693c-2.072,0.428-4.758,5.307-2.916,5.307c0.357,0,0.15,0.584-0.455,1.295
	c-0.605,0.713-1.478,1.297-1.944,1.297c-0.446,0-0.837,0.452-0.837,0.97c0,0.522,0.451,0.976,0.969,0.976s0.973,0.301,0.973,0.647
	c0,0.389-0.203,0.646-0.522,0.646c-0.274,0-0.893,1.105-1.331,2.398c-0.972,2.861-2.023,5.638-3.976,10.502
	c-0.777,1.942-1.578,4.462-1.753,5.54c-0.184,1.102-0.582,2.247-0.909,2.59c-0.311,0.331-0.581,1.233-0.581,1.946
	c0,0.711-0.438,2.171-0.944,3.142c-0.948,1.825-1.689,5.251-1.749,8.038c-0.016,0.845-0.311,1.492-0.678,1.492
	c-0.358,0-0.474,0.677-0.259,1.522c0.211,0.84,0.171,1.725-0.1,1.974c-0.271,0.257-0.542,1.364-0.613,2.53
	c-0.072,1.147-0.55,5.12-1.076,8.879c-1.925,13.871-2.115,17.15-1.387,23.915c0.462,4.279,0.407,4.753-0.518,4.399
	c-1.228-0.47-2.383,2.859-2.435,7.008c-0.023,2.073-0.159,2.366-0.678,1.456c-0.37-0.644-1.035-1.134-1.557-1.134
	c-0.726,0-0.773,0.393-0.224,1.946c0.382,1.102,0.988,1.913,1.387,1.869c1.884-0.195,2.402,0.24,2.402,2.02
	c0,1.102-0.47,2.174-1.136,2.594c-0.841,0.526-0.916,0.805-0.287,1.07c1.522,0.643,0.837,2.188-0.979,2.203
	c-2.391,0.012-3.969,0.946-2.522,1.5c1.231,0.474,1.414,2.751,0.259,3.195c-0.621,0.241-0.757,1.623-0.518,5.251
	c0.175,2.721,0.175,4.929,0,4.929c-0.964,0,0.358,15.938,1.622,19.57c0.541,1.554,0.968,3.289,0.968,3.92
	c0,0.649,0.239,1.134,0.554,1.134c0.299,0,0.55,1.331,0.55,2.885c0,1.556,0.343,3.301,0.745,3.791
	c0.402,0.494,0.732,1.623,0.717,2.464c-0.063,3.435,0.546,7.536,1.522,10.306c0.573,1.619,1.498,4.472,2.071,6.418
	c0.574,1.94,1.741,4.953,2.622,6.771c0.884,1.812,1.585,3.62,1.585,4.048c0,0.417,0.459,1.142,0.98,1.558
	c0.51,0.409,0.969,1.359,0.969,2.009c0,0.647,0.307,1.23,0.649,1.23c0.362,0,0.646,0.716,0.646,1.62c0,0.91,0.494,2.191,1.123,2.918
	c1.418,1.636,3.753,5.509,5.04,8.359c0.526,1.167,1.705,3.023,2.586,4.084c0.916,1.102,1.634,2.688,1.653,3.663
	c0.02,0.98,0.869,2.689,1.98,3.986c1.088,1.269,3.023,3.693,4.406,5.508c1.379,1.815,3.219,4.04,4.18,5.056
	c0.92,0.971,1.717,2.252,1.717,2.754c0,0.518,1.753,2.602,3.889,4.633c2.271,2.156,3.889,4.26,3.889,5.057
	c0,0.778,0.554,1.749,1.299,2.267c0.709,0.498,1.291,1.417,1.291,2.04c0,0.642,0.558,1.307,1.267,1.526
	c0.71,0.217,2.072,1.295,3.112,2.462c1.008,1.134,3.885,3.821,6.351,5.931c2.458,2.109,5.12,4.534,5.86,5.345
	c0.773,0.845,1.689,1.494,2.107,1.494c0.395,0,0.746,0.23,0.746,0.484c0,0.274,0.549,0.767,1.267,1.135
	c0.689,0.354,4.534,2.921,8.49,5.672c3.952,2.749,7.49,5.021,7.81,5.021c0.307,0,0.581,0.454,0.581,0.972s0.41,0.977,0.881,0.977
	c0.474,0,3.14,1.541,5.86,3.396c6.546,4.46,9.67,6.092,14.001,7.32c1.94,0.55,4.155,1.341,4.86,1.733
	c1.494,0.837,4.279,1.522,9.98,2.469c2.331,0.388,4.59,1.004,5.057,1.378c0.453,0.369,0.84,0.514,0.84,0.323
	c0-0.191,1.268,0.105,2.758,0.649c1.489,0.541,3.052,1.079,3.402,1.165c0.342,0.086,1.1,0.335,1.617,0.536
	c8.789,3.356,15.945,4.532,27.221,4.479c5.9-0.032,11.426-0.114,12.318-0.184c0.917-0.074,2.459-0.074,3.562,0
	c1.1,0.073,2.785-0.024,3.889-0.229c1.06-0.195,4.147-0.5,6.805-0.681c12.379-0.823,22.486-2.513,30.654-5.12
	c1.682-0.538,3.044-0.795,3.044-0.584c0,0.214,0.554-0.102,1.203-0.677c0.653-0.584,3.371-1.53,5.961-2.076
	c2.594-0.548,5.06-1.229,5.41-1.502c0.678-0.514,5.188-1.847,7.977-2.353c0.772-0.144,2.024-0.584,2.749-0.973
	c0.717-0.382,1.331-0.533,1.331-0.326c0,0.221,0.845-0.102,1.944-0.741c1.1-0.646,1.944-1.307,1.944-1.526
	c0-0.384,3.37-2.016,8.231-3.989c1.163-0.475,2.135-1.09,2.135-1.355c0-0.269,0.586-0.485,1.299-0.485
	c1.387,0,4.603-1.764,9.141-5.003c1.617-1.157,3.291-2.129,3.665-2.129c0.383,0,0.765-0.195,0.876-0.452
	c0.304-0.674,3.689-2.986,6.411-4.379c3.925-2.006,15.519-12.603,18.192-16.62c0.904-1.362,2.641-3.566,3.876-4.925
	c1.235-1.362,2.638-3.261,3.14-4.247c0.502-0.97,1.164-1.783,1.463-1.783s0.553-0.322,0.553-0.709c0-0.385,0.837-1.56,1.81-2.53
	c3.048-3.048,5.964-7.01,5.964-8.104c0-0.604,0.937-2.267,2.076-3.691c1.14-1.429,2.104-3.117,2.14-3.761
	c0.032-0.646,0.466-1.657,0.968-2.27c0.486-0.583,0.98-1.588,1.064-2.138c0.146-0.983,1.259-3.888,3.023-7.906
	c0.398-0.906,0.737-1.904,0.773-2.269c0.039-0.347,0.35-1.102,0.677-1.62c0.55-0.876,1.036-11.406,0.94-20.415
	c-0.032-3.239-1.339-8.237-2.98-11.406c-0.486-0.951-0.904-2.787-0.904-4.021c0-1.231-0.446-2.622-0.972-3.042
	c-0.55-0.44-0.969-1.429-0.969-2.27c0-0.844-0.426-1.832-0.979-2.269c-0.534-0.433-0.969-1.297-0.969-1.946
	c0-0.647-0.219-1.267-0.486-1.395c-0.267-0.123-1.788-1.942-3.402-4.08c-1.613-2.142-4.347-5.287-6.123-7.065
	c-1.75-1.751-3.252-3.827-3.308-4.57c-0.063-0.906-0.613-1.44-1.653-1.6c-1.749-0.265-3.127-1.807-3.151-3.52
	c-0.016-0.775-0.402-1.102-1.155-0.973c-0.63,0.107-2.172-0.6-3.471-1.586c-1.295-0.992-2.665-1.782-3.075-1.782
	c-0.391,0-0.745-0.279-0.745-0.584c0-0.323-3.634-2.412-8.104-4.668c-4.471-2.251-8.097-4.316-8.097-4.602
	c0-0.272-0.585-0.518-1.235-0.518c-0.645,0-1.602-0.446-2.008-0.938c-0.43-0.518-0.972-0.898-1.203-0.845
	c-0.227,0.052-1.586-0.412-3.012-1.042c-8.742-3.839-22.097-5.351-33.571-3.797c-2.398,0.323-4.554,0.358-4.726,0.078
	c-0.47-0.768-2.86-0.716-2.86,0.065c0,0.358-0.872,0.644-1.972,0.644c-1.096,0-4.021,0.335-6.551,0.747
	c-4.537,0.743-4.598,0.729-8.845-1.379c-5.638-2.803-7.661-3.659-10.825-4.577c-1.422-0.413-2.868-1.013-3.203-1.335
	c-0.343-0.323-1.136-0.584-1.785-0.584c-0.646,0-1.673-0.261-2.303-0.584c-0.633-0.324-1.845-0.896-2.749-1.297
	c-0.912-0.4-2.048-0.966-2.598-1.293c-0.538-0.326-2.267-0.958-3.889-1.428c-1.618-0.469-3.379-1.215-3.952-1.686
	c-0.554-0.452-1.649-0.841-2.367-0.841c-0.709,0-1.689-0.452-2.104-0.974c-0.406-0.51-1.362-0.973-2.008-0.973
	c-0.649,0-1.235-0.259-1.235-0.55c0-0.303-1.132-0.743-2.494-0.97c-1.358-0.233-2.864-0.867-3.307-1.396
	c-0.446-0.538-1.586-0.971-2.558-0.971c-1.147,0-2.506-0.778-3.957-2.269c-1.195-1.231-2.602-2.269-3.075-2.269
	c-0.45,0-1.247-0.305-1.653-0.631c-3.498-2.853-4.933-3.905-5.315-3.905c-0.733,0-3.282-2.917-5.554-6.353
	c-1.239-1.881-2.422-3.369-2.674-3.369c-1.295-0.008-5.067-15.232-4.147-16.72c0.176-0.281,0.366-2.269,0.415-4.345
	c0.087-3.5,0.896-9.327,1.689-12.118c0.158-0.588,0.855-1.686,1.585-2.528c0.733-0.844,1.159-1.856,0.977-2.334
	c-0.176-0.456,0.223-1.138,0.872-1.49c0.67-0.362,1.526-1.618,1.937-2.851c0.718-2.138,5.212-6.871,6.519-6.871
	c0.318,0,0.797-0.682,1.039-1.46c0.252-0.803,4.072-5.088,8.522-9.56c4.454-4.47,8.522-8.608,9.076-9.231
	c0.573-0.649,1.379-1.136,1.881-1.136c0.45,0,0.876-0.312,0.876-0.647c0-0.743,4.598-5.174,5.375-5.182
	c0.251,0,0.454-0.331,0.454-0.717c0-1.175,5.574-5.769,7.001-5.769c0.278,0,1.171-0.875,1.943-1.911
	c0.869-1.167,1.805-1.775,2.398-1.558c0.519,0.191,0.973-0.004,0.973-0.42c0-0.436,0.55-0.637,1.259-0.454
	c0.889,0.229,1.705-0.259,2.726-1.618c0.805-1.078,2.562-2.378,3.924-2.918c1.359-0.538,2.459-1.219,2.459-1.522
	c0-0.305,1.167-0.9,2.598-1.329c1.422-0.428,2.59-1.024,2.59-1.331c0-0.303,0.581-0.55,1.299-0.55c0.709,0,1.295-0.291,1.295-0.649
	c0-0.351,0.709-0.646,1.554-0.646c0.841,0,1.9-0.417,2.307-0.909c0.853-1.028,5.797-3.627,6.9-3.627c0.351,0,1.649-1.04,2.849-2.269
	c1.195-1.231,2.586-2.267,3.044-2.267s1.781-0.898,2.885-1.946c1.104-1.05,2.442-1.942,2.917-1.942c0.453,0,0.872-0.253,0.872-0.522
	c0-0.789,7.331-2.721,10.308-2.721c1.43,0,2.78-0.307,3.016-0.681c0.271-0.442,3.63-0.556,9.59-0.323
	c5.057,0.195,9.172,0.382,9.172,0.42c0,0.44,4.02,0.391,4.856-0.058c1.49-0.791,4.992,1.55,6.582,4.402
	c0.653,1.167,1.937,2.815,2.821,3.625c0.904,0.837,1.617,2.032,1.617,2.721c0,0.669,0.9,2.269,1.977,3.502
	c2.255,2.594,3.721,4.932,2.693,4.287c-0.957-0.596-1.283,0.964-0.674,3.165c0.307,1.102,0.542,2.731,0.542,3.759
	c0,1.363,0.291,1.765,1.167,1.624c1.451-0.245,1.785,1.811,0.709,4.407c-0.43,1.036-0.82,2.022-0.872,2.201
	c-0.052,0.181-0.649,2.008-1.331,4.084c-1.104,3.371-1.382,3.721-2.721,3.404c-1.251-0.303-1.49-0.1-1.49,1.259
	c0,2.269-3.873,8.104-5.379,8.104c-0.295,0-1.1,0.542-1.881,1.265c-0.725,0.677-2.199,1.444-3.175,1.651
	c-0.968,0.209-2.147,0.813-2.526,1.297c-0.387,0.49-1.653,1.114-2.753,1.359c-1.107,0.245-2.494,0.685-3.016,0.956
	c-6.649,3.406-6.937,3.454-21.001,3.719c-7.705,0.144-13.81-0.012-14.256-0.363c-0.43-0.342-2.657-0.661-4.988-0.713
	c-2.334-0.054-5.343-0.494-6.741-0.992c-2.53-0.895-5.203-0.709-4.573,0.311c0.59,0.958-3.076,1.48-4.435,0.636
	c-1.063-0.662-1.494-0.474-3.112,1.343c-1.043,1.167-2.458,2.191-3.175,2.301c-2.013,0.297-5.255,2.924-5.044,4.08
	c0.1,0.518,0.928,1.082,1.772,1.2l1.586,0.229l-1.494,1.122c-1.868,1.408-1.295,2.635,1.231,2.635c1.43,0,1.928,0.354,2.071,1.46
	c0.128,0.906,0.749,1.53,1.657,1.653c1.076,0.142,1.463,0.647,1.479,1.942c0.023,2.267,1.398,4.018,3.151,4.018
	c0.781,0,1.594,0.444,1.785,0.974c0.191,0.522,0.908,0.972,1.558,0.972c0.646,0,1.375,0.297,1.59,0.647
	c0.231,0.388,0.646,0.494,1.036,0.257c0.358-0.215,1.422,0.131,2.398,0.781c0.964,0.644,3.012,1.239,4.565,1.329
	c1.559,0.089,3.172,0.448,3.598,0.805c0.873,0.721,25.472,0.472,34.738-0.353c3.049-0.269,6.236-0.418,7.128-0.339
	c1.486,0.136,7.064-1.675,12.643-4.1c1.06-0.46,3.562-1.506,5.506-2.301s4.598-1.917,5.833-2.464
	c1.234-0.546,2.657-0.934,3.115-0.849c1.777,0.334,8.555-5.793,8.555-7.739c0-0.647,0.382-1.231,0.809-1.231
	c0.45,0,1.948-1.424,3.402-3.241c1.45-1.815,3.235-3.964,4.048-4.891c0.801-0.911,1.458-2.02,1.458-2.464
	c0-0.428,0.75-1.464,1.594-2.204c0.893-0.783,1.77-2.398,2.004-3.697c0.235-1.292,0.634-2.299,0.904-2.299
	c0.271,0,1.005-3.012,1.626-6.644c0.873-5.12,0.977-7.213,0.454-9.138c-0.446-1.62-0.466-3.064-0.063-4.114
	c0.908-2.407,0.701-4.797-0.669-7.65c-0.686-1.422-1.26-3.512-1.279-4.633c-0.016-1.102-0.466-2.383-0.973-2.787
	c-0.518-0.413-0.793-1.122-0.617-1.586c0.191-0.49-0.096-1.008-0.678-1.233c-0.585-0.225-1.004-0.807-1.004-1.391
	c0-0.583-0.274-1.008-0.648-1.008c-0.379,0-0.65-0.42-0.65-1.004c0-0.544-0.82-2.106-1.793-3.403
	c-1.979-2.655-14.431-15.034-15.123-15.034c-0.268,0-0.534-0.237-0.67-0.584c-0.318-0.844-7.04-5.98-7.04-5.38
	c0,0.301,0.323,0.845,0.776,1.297c0.582,0.583,0.59,0.779,0.032,0.779c-0.391,0-0.916-0.281-1.1-0.583
	c-0.646-1.052-7.427-4.602-8.781-4.602c-1.036,0-1.271-0.293-0.972-1.231c0.287-0.926-0.064-1.396-1.427-1.881
	c-0.972-0.349-2.391-0.875-3.052-1.135c-0.837-0.331-1.084-0.249-0.773,0.261c0.271,0.45,0.032,0.911-0.613,1.167
	c-0.586,0.229-1.307,0.036-1.59-0.424c-0.291-0.472-0.976-0.669-1.558-0.452c-0.573,0.215-4.47-0.008-8.682-0.494
	c-7.132-0.825-19.359-1.253-16.853-0.591c0.648,0.171,1.167,0.567,1.167,0.894c0,0.839-2.072,1.191-8.813,1.488
	c-3.239,0.144-6.207,0.448-6.578,0.681c-0.382,0.237-1.135,0.249-1.717,0.032c-0.565-0.211-1.525,0.01-2.111,0.486
	c-0.582,0.478-1.973,0.898-3.076,0.926c-4.988,0.132-5.435,0.245-5.343,1.375c0.067,0.805-0.458,1.225-1.689,1.359
	c-0.968,0.107-1.78,0.49-1.78,0.845c0,0.358-0.519,0.49-1.168,0.291c-1.438-0.442-7.128,1.02-11.471,2.94
	c-2.207,0.976-2.876,1.518-2.107,1.693c0.649,0.147,1.136,0.51,1.136,0.845c0,0.791-4.279,2.59-6.159,2.59
	c-0.838,0-1.643,0.426-1.85,0.972c-0.191,0.542-0.868,0.988-1.521,1.008c-0.653,0.016-1.713,0.44-2.431,0.97
	c-0.709,0.53-1.657,0.938-2.167,0.938c-0.502,0-1.654,0.584-2.559,1.299c-0.912,0.709-2.342,1.297-3.179,1.297
	c-0.841,0-1.522,0.261-1.522,0.584c0,0.685-9.203,5.887-10.498,5.931c-0.467,0.018-1.849,0.89-3.08,1.942
	c-1.234,1.054-2.613,1.911-3.08,1.911c-0.454,0-0.84,0.301-0.84,0.647c0,0.343-0.582,0.649-1.235,0.649
	c-0.646,0-1.339,0.229-1.454,0.486c-0.124,0.269-1.718,1.437-3.534,2.594c-1.817,1.156-4.458,3.231-5.864,4.602
	c-1.427,1.388-3.693,3.098-5.124,3.856c-1.395,0.741-4.757,3.458-7.419,5.992c-2.653,2.534-5.609,5.03-6.51,5.508
	c-0.908,0.482-3.1,2.53-4.865,4.536c-1.765,2.016-5.318,5.835-7.908,8.49c-2.582,2.662-4.693,5.108-4.693,5.446
	c0,0.369-0.264,0.618-0.649,0.618c-0.347,0-0.649,0.452-0.649,0.97s-0.303,0.97-0.646,0.97c-0.358,0-0.653,0.426-0.653,0.944
	c0,0.51-0.482,1.219-1.068,1.554c-0.646,0.371-0.912,1.024-0.677,1.651c0.243,0.649,0.048,1.038-0.519,1.038
	c-1.123,0-1.9,2.594-1.322,4.404c0.267,0.845,0.039,1.433-0.653,1.686c-0.757,0.277-0.948,0.878-0.649,2.044
	c0.234,0.93,0.027,2.558-0.471,3.725c-2.339,5.446-3.239,12.733-1.573,12.757c0.502,0.008,0.454,0.217-0.128,0.588
	c-1.14,0.721-0.709,11.933,0.55,14.268c0.733,1.362,2.466,6.867,2.873,9.134c0.621,3.436,1.374,5.765,2.753,8.494
	c0.853,1.686,1.538,3.249,1.538,3.496c0,0.369,2.159,3.437,7.307,10.371c0.777,1.054,2.701,3.105,4.195,4.473
	c1.49,1.366,2.753,2.856,2.753,3.238c0,0.716,6.028,6.222,6.806,6.222c0.251,0,2.558,1.946,5.092,4.281
	c2.521,2.333,5.366,4.602,6.251,4.988c0.904,0.4,2.689,1.657,4.052,2.853c1.358,1.199,2.729,2.138,3.108,2.138
	c0.374,0,2.629,1.307,5.023,2.916c2.398,1.612,4.849,2.919,5.479,2.919c0.649,0,1.131,0.207,1.131,0.483
	c0,0.271,1.881,1.646,4.216,3.082c2.331,1.437,4.212,2.925,4.212,3.337s-1.945,1.709-4.34,2.9c-4.797,2.383-5.02,2.526-8.299,5.509
	c-1.23,1.117-3.088,2.219-4.052,2.414c-0.98,0.197-2.51,1.358-3.402,2.592c-0.889,1.231-2.538,2.598-3.657,3.048
	c-1.104,0.437-2.415,1.508-2.854,2.333c-0.45,0.841-1.203,1.521-1.686,1.521c-0.453,0-0.88,0.393-0.88,0.812
	c0,0.452-0.709,1.48-1.618,2.341c-1.943,1.841-4.474,5.271-3.889,5.271c0.224,0-0.263,0.625-1.1,1.437
	c-2.641,2.546-5.705,10.62-5.705,15.026c0,0.803-0.462,2.431-1.004,3.532s-0.912,2.86-0.812,3.822
	c0.107,0.973-0.096,1.881-0.45,2.004c-2.785,0.938-2.909,3.021-0.339,5.806c2.211,2.398,2.435,3.476,0.988,4.693
	c-0.877,0.736-0.845,0.908,0.318,1.732c1.431,1.009,1.705,3.174,0.459,3.61c-0.582,0.205-0.49,0.596,0.362,1.567
	c1.426,1.62,1.386,1.994-0.235,2.247c-1.159,0.184-0.969,0.452,1.295,1.837c2.92,1.783,3.538,2.925,1.235,2.289
	c-0.996-0.275-0.199,0.779,2.398,3.153c2.136,1.962,4.104,3.578,4.374,3.598c0.26,0.017,0.486,0.421,0.494,0.875
	c0.024,1.635,5.498,6.366,9.451,8.167c0.78,0.351,1.681,1.061,1.988,1.555c0.641,1.047,4.498,3.37,6.697,4.041
	c0.908,0.279,2.307,0.935,3.175,1.498c0.845,0.549,2.021,1.082,2.562,1.168c0.573,0.094,1.585,0.42,2.366,0.767
	c2.072,0.923,5.574,2.084,9.395,3.116c8.231,2.229,32.639,0.43,38.563-2.843c1.817-1,1.885-1,1.071,0.027
	c-0.721,0.911-0.717,1.102,0.032,1.102c0.519,0,1.171-0.261,1.522-0.611c0.342-0.343,2.43-0.902,4.697-1.257
	c3.82-0.604,9.98-3.605,13.419-6.548c0.713-0.607,1.646-1.216,2.075-1.347c2.004-0.616,13.156-11.287,13.156-12.595
	c0-0.358,1.004-1.448,2.234-2.43c1.423-1.136,2.104-2.134,1.877-2.756c-0.188-0.518-0.079-0.97,0.228-0.97
	c0.92,0,7.745-9.205,8.171-11.021c0.208-0.884,1.156-3.822,2.088-6.479c1.467-4.181,1.889-6.743,2.307-13.937
	c0.1-1.678-0.386-7.58-0.928-11.341c-0.239-1.622-0.525-3.996-0.649-5.345c-0.128-1.363-0.657-2.931-1.199-3.566
	c-0.534-0.621-1.634-2.529-2.431-4.215c-0.801-1.686-1.797-3.297-2.207-3.562c-0.422-0.276-1.279-1.328-1.977-2.43
	s-1.82-2.421-2.59-3.036c-1.537-1.233-1.035-2.224,0.646-1.277c0.629,0.354,1.88,0.395,2.916,0.098
	c1.299-0.366,2.031-0.257,2.558,0.393c0.431,0.519,0.944,0.779,1.203,0.616c0.243-0.16,1.718,0.537,3.204,1.521
	c1.521,0.998,4.183,2.484,5.936,3.305c1.75,0.819,3.028,1.737,2.854,2.04c-0.184,0.305,0.259,0.775,0.968,1.048
	c2.14,0.821,8.442,5.66,8.466,6.502c0.017,0.455,0.352,0.781,0.806,0.781c1.489,0,7.004,7.371,6.151,8.228
	c-0.176,0.182,0.111,1.362,0.653,2.661c2.104,5.055,0.351,21.141-2.797,25.662c-0.494,0.714-0.9,1.762-0.9,2.333
	c0,1.429-5.864,11.078-6.996,11.515c-0.519,0.195-1.176,0.931-1.53,1.709c-1.267,2.787-2.23,4.132-4.176,5.793
	c-1.1,0.946-2.362,2.574-2.789,3.602c-0.434,1.055-1.744,2.396-2.979,3.049c-1.231,0.653-2.546,1.824-2.98,2.655
	c-0.442,0.845-1.37,1.669-2.14,1.898c-1.295,0.386-3.629,2.378-3.629,3.092c0,0.179,0.812,0.19,1.78,0.033
	c1.741-0.282,1.718-0.232-0.809,1.982c-2.718,2.383-4.017,2.611-3.657,0.644c0.199-1.102,0.104-1.134-0.94-0.293
	c-0.638,0.514-1.984,1.751-2.952,2.722c-0.969,0.974-2.224,1.782-2.754,1.782c-0.533,0-1.609,0.813-2.366,1.783
	c-0.757,0.971-1.745,1.783-2.171,1.783c-0.427,0-2.072,1.105-3.63,2.43c-1.554,1.327-3.163,2.429-3.534,2.429
	c-0.379,0-1.391,0.572-2.299,1.297c-0.908,0.728-2.275,1.299-3.111,1.299c-0.841,0-1.335,0.251-1.136,0.582
	c0.199,0.318,0.124,1.233-0.159,2.008c-0.423,1.167-1.104,1.464-3.693,1.624c-4.602,0.28-7.693,1.054-8.308,2.073
	c-0.29,0.48-0.9,0.839-1.418,0.839c-1.295,0-7.021,1.988-7.773,2.693c-0.435,0.408-0.327,0.812,0.323,1.211
	c1.251,0.771,0.844,1.086-2.072,1.616c-2.14,0.384-2.466,0.286-2.466-0.753c0-0.911-0.144-0.98-0.586-0.295
	c-0.335,0.518-0.885,0.713-1.295,0.456c-0.378-0.245-1.391-0.078-2.171,0.356c-0.789,0.44-2.168,0.912-3.013,1.036
	c-0.845,0.121-2.255,0.774-3.075,1.428c-0.996,0.783-3.212,1.353-6.387,1.651c-2.658,0.249-4.857,0.718-4.857,1.036
	c0,0.331-0.749,0.584-1.721,0.584c-0.94,0-4.248,0.47-7.291,1.036c-3.18,0.591-7.024,0.898-8.941,0.715
	c-1.88-0.184-3.458-0.065-3.569,0.257c-0.314,0.946-17.69,0.726-21.579-0.279c-1.075-0.272-4.797-1.414-8.295-2.539
	c-5.251-1.686-6.565-1.911-7.586-1.283c-1.681,1.046-2.159,1.012-1.721-0.109c0.191-0.48-0.159-1.078-0.741-1.266
	c-0.598-0.195-2.722-0.946-4.669-1.651c-1.941-0.707-4.208-1.311-4.988-1.33c-0.773-0.017-1.602-0.327-1.817-0.682
	c-0.211-0.351-1.522-1.22-2.876-1.908c-1.363-0.689-3.471-2.164-4.639-3.245c-1.163-1.076-2.494-1.975-2.916-1.975
	s-1.176-0.484-1.653-1.067c-0.49-0.6-2.299-2.195-4.116-3.632c-1.769-1.395-5.347-4.517-7.872-6.871
	c-2.53-2.349-6.283-5.765-8.264-7.514c-2.008-1.779-3.63-3.542-3.63-3.955c0-0.412-0.585-1.272-1.299-1.912
	c-0.713-0.642-1.295-1.49-1.295-1.881c0-0.392-1.721-3.012-3.856-5.862c-2.136-2.853-4.191-5.967-4.602-6.969
	c-0.395-0.972-1.017-1.816-1.327-1.816c-0.314,0-0.581-0.387-0.581-0.841c0-0.468-0.837-1.979-1.881-3.402
	c-1.021-1.387-2.391-3.827-2.984-5.315c-0.594-1.489-1.366-2.755-1.685-2.755c-0.327,0-0.582-0.452-0.582-1.036
	c0-0.579-0.414-1.814-0.933-2.784c-1.769-3.312-6.845-15.677-6.845-16.658c0-0.544-0.689-2.467-1.562-4.343
	c-1.354-2.94-2.009-5.186-4.088-14.066c-0.207-0.883-0.45-2.429-0.542-3.402c-0.088-0.973-0.546-2.253-1.004-2.819
	c-0.502-0.613-0.812-2.46-0.777-4.538c0.036-1.939-0.123-3.613-0.354-3.757s-0.366-2.623-0.295-5.475
	c0.072-2.853-0.147-5.395-0.485-5.605c-0.367-0.237-0.471-0.638-0.256-1.008c0.195-0.339,0.486-4.602,0.646-9.526
	s0.395-10.07,0.519-11.507c0.127-1.422-0.024-3.083-0.327-3.691c-0.314-0.635-0.274-1.814,0.096-2.786
	c0.693-1.812,1.904-15.359,2.048-23.009c0.056-2.657,0.49-6.006,0.973-7.389c0.49-1.417,0.88-3.693,0.889-5.182
	c0.027-3.371,0.991-7.598,1.864-8.147c0.339-0.217,0.753-0.992,0.872-1.642c0.231-1.227,1.343-4.083,2.423-6.221
	c0.295-0.58,0.729-2.367,0.979-4.05c0.256-1.686,0.686-3.016,0.973-3.016c0.291,0,1.06-1.877,1.717-4.209
	c0.666-2.335,1.415-4.215,1.686-4.215c0.271,0,0.49-0.452,0.49-1.036c0-1.098,4.674-10.889,5.908-12.379
	c0.379-0.452,0.494-0.844,0.247-0.844c-0.235,0-0.111-0.42,0.255-0.873c0.375-0.453,0.502-1.094,0.264-1.331
	c-0.256-0.253,0.163-0.611,0.939-0.807c0.75-0.191,2.16-1.526,3.045-2.885c0.892-1.362,1.924-2.53,2.238-2.53
	c0.331,0,0.766-0.743,1.004-1.717c0.235-0.968,1.116-2.624,2.009-3.791c0.892-1.165,1.589-2.386,1.589-2.787
	c0-0.403,0.551-0.881,1.264-1.1c0.709-0.221,1.434-0.927,1.653-1.622c0.211-0.681,1.49-2.185,2.853-3.36
	c2.59-2.243,4.172-4.628,3.494-5.275c-0.211-0.205,0.458-0.868,1.494-1.476c1.032-0.605,3.191-2.689,4.793-4.631
	c1.609-1.946,3.578-4.248,4.379-5.12c0.769-0.844,1.454-1.709,1.454-1.849c0-0.563,3.116-3.565,3.697-3.565
	c0.358,0,2.311-1.877,4.375-4.209c2.063-2.335,4.128-4.215,4.638-4.215c0.518,0,0.904-0.221,0.904-0.518
	c0-0.287,1.881-1.661,4.211-3.08c2.335-1.417,4.359-2.992,4.538-3.53c0.171-0.522,1.167-1.358,2.14-1.803
	c2.203-1.012,5.961-4.369,5.961-5.329c0-0.386,0.263-0.55,0.581-0.354c0.343,0.207,0.929-0.065,1.395-0.649
	c0.446-0.55,1.722-1.382,2.821-1.847c1.1-0.462,2.828-1.616,3.824-2.558c0.973-0.922,2.024-1.719,2.268-1.719
	c0.25,0,1.912-1.002,3.661-2.204c1.753-1.203,3.594-2.056,4.056-1.88c0.463,0.179,3.04-0.865,5.762-2.333
	c2.725-1.468,5.307-2.656,5.769-2.656c0.45,0,1.212-0.454,1.618-0.972c0.445-0.55,1.43-0.974,2.271-0.974
	c0.845,0,1.833-0.42,2.271-0.972c0.418-0.526,1.326-0.97,1.976-0.97s1.375-0.299,1.586-0.649c0.207-0.342,0.908-0.647,1.49-0.647
	c0.613,0,1.881-0.404,2.853-0.906c0.956-0.498,2.726-1.114,3.889-1.363s2.435-0.673,2.789-0.938c0.366-0.273,2.071-1,3.889-1.651
	c1.784-0.646,5.347-2.144,7.94-3.343c2.59-1.195,5.582-2.169,6.674-2.169c1.1,0,2.736-0.502,3.693-1.136
	c0.952-0.627,3.016-1.496,4.633-1.95c7.842-2.195,12.961-3.52,15.623-4.05c1.621-0.319,3.637-0.739,4.537-0.938
	c2.733-0.609,13.802-2.417,16.846-2.755c1.621-0.175,3.203-0.542,3.57-0.819c2.1-1.633,27.801-3.086,34.798-1.968
	c2.255,0.365,7.132,0.797,10.893,0.968c10.952,0.506,19.873,2.002,24.949,4.186c3.952,1.697,12.845,4.57,14.26,4.605
	c0.713,0.016,1.864,0.458,2.558,0.972c0.713,0.53,1.733,0.942,2.335,0.942c0.585,0,1.598,0.583,2.235,1.293
	c0.645,0.713,1.633,1.312,2.207,1.331c0.565,0.016,2.039,0.893,3.274,1.946c1.228,1.052,2.479,1.909,2.781,1.909
	s1.203,0.576,1.977,1.265c0.78,0.689,3.602,3.197,6.191,5.508c2.594,2.313,5.028,4.247,5.347,4.247c0.351,0,0.586,0.219,0.586,0.55
	c0,0.303,1.167,1.783,2.59,3.273c1.418,1.488,2.594,3.134,2.594,3.63c0,0.498,0.876,1.812,1.943,2.918
	c1.068,1.102,1.944,2.562,1.944,3.239c0,0.647,0.339,1.432,0.714,1.651c0.395,0.237,0.598,1.393,0.454,2.624
	c-0.176,1.494,0.012,2.203,0.581,2.203c0.455,0,0.841,0.375,0.841,0.813c0,0.44,0.462,1.683,1.009,2.721
	c0.709,1.354,1.075,4.438,1.254,10.594c0.383,13.354-1.095,26.445-3.569,31.567c-0.722,1.488-1.283,2.968-1.283,3.368
	c0,0.401-0.43,1.522-0.972,2.558c-0.546,1.042-0.973,2.319-0.973,2.918c0,0.582-0.441,1.231-0.972,1.426
	c-0.546,0.201-0.972,0.809-0.972,1.393c0,1.44-2.854,5.898-7.133,11.15c-0.318,0.386-0.39,0.902-0.159,1.133
	c0.255,0.253,0.159,0.6-0.227,0.875c-0.362,0.253-1.308,1.522-2.14,2.885c-0.837,1.362-1.689,2.43-1.944,2.43
	s-0.94,0.841-1.586,1.942c-0.642,1.102-1.386,1.946-1.721,1.946c-0.67,0-3.599,2.917-5.14,5.12
	c-0.542,0.775-1.268,1.359-1.697,1.359c-0.406,0-1.55,1.558-2.526,3.434c-1.88,3.632-2.088,7.586-0.422,8.128
	c0.518,0.171,0.713-0.02,0.454-0.444c-0.235-0.393-0.128-0.747,0.227-0.747c0.383,0,0.682,0.907,0.682,2.072
	c0,3.311,0.682,5.08,1.881,4.897c0.645-0.102,0.964,0.257,0.84,0.972c-0.135,0.791,0.228,1.134,1.199,1.134
	c0.973,0,1.283,0.293,1.036,0.97c-0.211,0.583-0.02,0.976,0.486,0.976c0.478,0,1.49,0.562,2.335,1.293
	c0.845,0.735,1.729,1.297,2.04,1.297c0.311,0,0.554,0.454,0.554,1.036c0,1.335,2.33,0.658,4.47-1.297l1.49-1.358l-0.454,1.942
	c-0.255,1.105-0.554,2.285-0.689,2.725c-0.342,1.113,1.53,1.576,6.65,1.631c3.502,0.038,5.039-0.227,5.9-1.016
	c1.084-0.994,1.362-0.974,3.952,0.275c2.921,1.41,3.048,1.398,6.224-0.719c2.594-1.729,7.629-4.174,8.23-3.999
	c0.519,0.152,3.825-3.044,7.773-7.514c1.315-1.494,2.885-2.725,3.471-2.725c0.908,0,0.936-0.159,0.195-1.07
	c-0.689-0.84-0.705-1.129-0.068-1.358c0.459-0.164,0.813-0.592,0.813-0.974c0-0.38,0.43-1.136,0.979-1.715
	c1.415-1.496,3.686-5.12,5.57-8.881c0.904-1.815,2.343-4.223,3.271-5.474c1.155-1.568,1.765-3.403,2.039-6.124
	c0.216-2.144,0.94-5.028,1.618-6.418c0.665-1.363,1.115-3.024,0.976-3.598c-0.143-0.58,0.08-1.942,0.486-2.978
	c0.406-1.054,0.701-3.566,0.649-5.578c-0.06-2.072,0.263-4.251,0.741-5.022c0.605-0.972,0.649-1.686,0.163-2.494
	c-0.406-0.681-0.489-2.044-0.203-3.403c0.686-3.271,0.749-7.779,0.235-16.138c-0.351-5.704-0.259-7.5,0.387-7.875
	c0.689-0.396,0.681-0.681-0.032-1.522c-0.474-0.562-0.933-2.95-1.004-5.217c-0.071-2.4-0.502-4.64-1.004-5.251
	c-0.494-0.604-0.956-1.815-1.068-2.787c-0.107-0.97-0.446-2.281-0.776-3.014c-0.319-0.711-1.057-2.363-1.622-3.659
	c-0.565-1.299-1.036-2.807-1.036-3.339c0-0.518-0.453-1.337-0.972-1.749c-0.53-0.424-0.972-1.751-0.972-2.918
	c0-1.297-0.387-2.279-0.973-2.496c-0.554-0.203-0.973-0.938-0.973-1.717c0-0.747-1.167-3.11-2.594-5.247
	c-1.426-2.142-2.589-4.255-2.589-4.7c0-0.462-0.845-1.624-1.948-2.689c-1.1-1.063-1.94-2.105-1.94-2.398
	c0-1.036-10.147-11.538-11.152-11.538c-0.311,0-0.518-0.233-0.518-0.583c0-0.767-5.184-5.895-5.96-5.895
	c-0.279,0-1.199-0.576-1.98-1.233c-0.812-0.689-2.885-2.415-4.693-3.92c-1.816-1.504-3.857-3.247-4.638-3.953
	c-0.777-0.705-1.737-1.265-2.167-1.265c-0.443,0-1.526-0.506-2.498-1.167c-0.929-0.631-2.821-1.671-4.116-2.267
	c-1.299-0.596-3.231-1.787-4.212-2.592c-0.987-0.812-2.848-1.893-4.083-2.367c-1.231-0.476-2.55-1.125-2.885-1.426
	c-0.335-0.299-1.167-0.552-1.817-0.552c-0.652,0-2.167-0.735-3.334-1.62c-1.231-0.934-2.992-1.62-4.148-1.62
	c-1.104,0-2.183-0.294-2.398-0.649c-0.219-0.362-0.939-0.647-1.657-0.647c-0.709,0-1.259-0.283-1.259-0.649
	c0-0.354-0.845-0.646-1.881-0.646c-1.035,0-1.976-0.292-2.096-0.647c-0.259-0.759-11.514-3.897-14.104-3.935
	c-0.908-0.012-2.271-0.456-2.948-0.962c-0.706-0.522-2.048-0.938-3.021-0.938c-0.968,0-1.841-0.261-1.964-0.584
	c-0.22-0.596-8.921-1.468-13.459-1.354c-1.231,0.034-2.701-0.398-3.335-0.978c-0.78-0.711-1.267-0.825-1.558-0.354
	c-0.251,0.398-0.876,0.464-1.521,0.159c-0.618-0.287-2.757-0.502-4.829-0.486c-2.722,0.024-3.646-0.183-3.438-0.775
	c0.199-0.543-0.319-0.812-1.554-0.812c-1.036,0-2,0.354-2.199,0.812c-0.26,0.584-0.566,0.484-1.092-0.36
	c-0.773-1.231-3.224-1.526-3.224-0.387c0,0.379-0.45,0.546-0.968,0.355c-0.518-0.188-0.973-0.036-0.973,0.327
	c0,0.412-0.585,0.502-1.494,0.219c-1.713-0.526-2.139-0.534-4.856-0.08c-1.171,0.195-2.075,0.06-2.075-0.303
	c0-0.354-0.586-0.474-1.295-0.257c-1.012,0.301-1.299,0.094-1.299-0.942c0-1.052-0.391-1.327-1.877-1.327
	c-2.268,0-3.956,0.58-3.956,1.358c0,0.311,0.454,0.584,0.972,0.584c0.519,0,0.973,0.303,0.973,0.649
	c0,0.362-1.785,0.647-4.053,0.647c-2.203,0-3.693-0.235-3.271-0.518c0.454-0.301,0.582-0.815,0.311-1.231
	C245.663,4.862,242.384,4.605,237.52,5.274 M205.442,80.277c-1.231,0.797-1.948,0.805-1.948,0.024c0-0.347,0.686-0.647,1.462-0.647
	C206.123,79.654,206.219,79.779,205.442,80.277 M293.564,114.131c-0.023,0.466-0.29,1.429-0.602,2.14
	c-0.489,1.166-0.594,1.184-1,0.164c-0.259-0.649-0.295-1.552-0.075-2.106C292.338,113.161,293.633,113.01,293.564,114.131
	 M6.212,246.67c-0.642,0.64-1.184-0.322-0.657-1.167c0.41-0.646,0.585-0.653,0.784-0.032C6.482,245.927,6.427,246.453,6.212,246.67
	 M7.638,266.633c0,3.305-0.187,4.074-0.908,3.789c-0.514-0.199-0.925-1.102-0.94-2.072c-0.016-0.93-0.144-2.755-0.267-3.985
	c-0.287-2.722,0.115-3.522,1.271-2.57C7.319,262.227,7.638,264.041,7.638,266.633 M214.904,279.309
	c0.519,0.424,0.741,1.02,0.519,1.387c-0.208,0.343,0.19,0.56,0.845,0.452c1.681-0.265,4.08,1.408,4.08,2.856
	c0,0.693,0.549,1.371,1.263,1.554c0.705,0.18,1.979,1.817,2.893,3.693c1.908,3.952,1.972,4.279,0.837,4.279
	c-0.602,0-0.854,1.167-0.869,4.019c-0.036,5.765-0.594,8.014-2.829,11.343c-2.833,4.209-4.546,7.735-4.036,8.293
	c0.26,0.283,0.152,0.335-0.238,0.115c-0.718-0.404-4.797,3.189-4.797,4.226c0,1.82-9.53,10.273-15.101,13.402
	c-3.722,2.086-16.399,4.337-23.136,4.104c-2.921-0.102-9.773-0.558-11.021-0.737c-0.171-0.026,0.132-0.364,0.65-0.728
	c0.757-0.529,0.645-0.587-0.519-0.257c-1.179,0.331-1.964-0.098-3.729-2.044c-1.234-1.362-2.263-3.071-2.303-3.822
	c-0.167-3.435,0.216-7.21,0.781-7.775c0.314-0.314,0.582-1.199,0.582-1.915c0-0.746,0.43-2.137,0.972-3.173
	c0.546-1.04,0.977-2.391,0.977-3.08c0-1.119,0.51-2.4,2.044-5.121c0.311-0.55,0.828-1.62,1.195-2.465
	c0.366-0.841,1.067-1.644,1.617-1.843c0.518-0.193,0.973-0.723,0.973-1.135c0-1.231,12.188-12.848,14.845-14.152
	c1.295-0.638,3.195-1.713,4.279-2.429c2.267-1.492,4.669-2.605,5.634-2.605c0.362,0,1.426-0.56,2.398-1.261
	c0.956-0.689,3.211-1.62,4.96-2.044c1.749-0.425,3.486-1.03,3.821-1.327c0.351-0.311,1.426-0.552,2.466-0.552
	c1.036,0,1.98-0.37,2.163-0.843C207.529,278.631,213.67,278.301,214.904,279.309 M32.069,346.674
	c0.646,0.715,0.849,1.299,0.454,1.299c-0.391,0-1.036-0.584-1.427-1.299c-0.39-0.713-0.593-1.297-0.454-1.297
	C30.786,345.377,31.428,345.961,32.069,346.674 M226.308,386.339c-0.582,0.583-0.968,0.583-1.554,0
	c-0.613-0.616-0.455-0.779,0.776-0.779S226.925,385.723,226.308,386.339 M195.071,396.578c0,0.389-0.12,0.649-0.291,0.649
	c-0.175,0-0.45-0.261-0.681-0.649c-0.224-0.371-0.096-0.647,0.29-0.647C194.78,395.931,195.071,396.207,195.071,396.578"/>
<path fill="#DE5598" d="M142.368,50.224c0,0.095,0.063,0.159,0.159,0.159c0.095,0,0.158-0.064,0.158-0.159s-0.063-0.159-0.158-0.159
	C142.432,50.065,142.368,50.129,142.368,50.224"/>
<path fill="#DE5598" d="M141.899,53.87c-0.006,0.381,0.043,0.497,0.159,0.381c0.111-0.111,0.113-0.294,0.008-0.548
	C141.918,53.35,141.906,53.362,141.899,53.87"/>
<path fill="#DE5598" d="M141.415,56.022c-0.11,0.127-0.169,0.275-0.127,0.318c0.042,0.042,0.176-0.032,0.286-0.159
	c0.109-0.127,0.169-0.276,0.127-0.318S141.525,55.896,141.415,56.022"/>
<path fill="#DE5598" d="M141.381,57.404c-0.043,0.116-0.029,0.341,0.034,0.516c0.103,0.284,0.119,0.278,0.21-0.071
	C141.733,57.437,141.516,57.042,141.381,57.404"/>
<path fill="#FFFFFF" d="M126.027,187.805c-0.086,0.143-0.037,0.248,0.111,0.248s0.26-0.105,0.26-0.248
	c0-0.148-0.045-0.248-0.111-0.248C126.22,187.557,126.115,187.656,126.027,187.805"/>
<path fill="#FFFFFF" d="M351.769,217.413c-0.23,0.619-0.15,0.776,0.14,0.273c0.143-0.248,0.201-0.496,0.133-0.558
	C351.971,217.065,351.852,217.19,351.769,217.413"/>
<path fill="#FFFFFF" d="M291.114,219.693c0.173,0.066,0.392,0.055,0.472-0.025c0.078-0.078-0.075-0.137-0.322-0.124
	C290.966,219.561,290.912,219.615,291.114,219.693"/>
<rect x="-242" y="-171" fill="none" width="938.822" height="789.948"/>
</svg>
