<?xml version="1.0" encoding="utf-8"?>
<!-- Generator: Adobe Illustrator 16.0.0, SVG Export Plug-In . SVG Version: 6.00 Build 0)  -->
<!DOCTYPE svg PUBLIC "-//W3C//DTD SVG 1.1//EN" "http://www.w3.org/Graphics/SVG/1.1/DTD/svg11.dtd">
<svg version="1.1" id="Layer_1" xmlns="http://www.w3.org/2000/svg" xmlns:xlink="http://www.w3.org/1999/xlink" x="0px" y="0px"
	 width="575.8px" height="376.7px" viewBox="0 0 575.8 376.7" style="enable-background:new 0 0 575.8 376.7;" xml:space="preserve"
	>
<g>
	<defs>
		<rect id="SVGID_1_" width="575.8" height="376.7"/>
	</defs>
	<clipPath id="SVGID_2_">
		<use xlink:href="#SVGID_1_"  style="overflow:visible;"/>
	</clipPath>
	<path style="clip-path:url(#SVGID_2_);fill:#DE5599;" d="M191.1,56.8c-1.3,0.2-2.4,0.4-2.6,0.6c-0.4,0.4,0.4,0.4,3.2,0
		c2.1-0.3,2.9,0,2.3,0.7c-0.3,0.3-0.9,0.4-2.5,0.2c-0.2,0-2.1,0.2-4.2,0.5c-2.7,0.4-3.8,0.5-3.9,0.2c-0.2-0.5-0.7-0.5-0.6,0
		c0,0.2-0.2,0.4-0.5,0.5c-0.3,0.1-0.6,0-0.6-0.2c0-0.2,0.1-0.3,0.3-0.3c0.2,0,0.3-0.1,0.2-0.3c-0.2-0.3-1.2-0.3-1.7,0
		c-0.2,0.1-1.2,0.3-2.4,0.4c-1.1,0.1-2.3,0.3-2.7,0.5c-0.3,0.2-0.9,0.3-1.3,0.3c-0.4,0-0.7,0.1-0.7,0.3c0,0.2-0.3,0.2-0.6,0.1
		c-0.8-0.2-4,0.5-5.2,1.1c-0.5,0.3-1.1,0.5-1.3,0.5c-0.7,0-5.4,1.6-5.8,2c-0.2,0.2-0.7,0.3-1.1,0.3c-0.4,0-0.8,0.1-0.8,0.3
		c0,0.2-0.2,0.3-0.5,0.3c-0.3,0-0.5,0.1-0.5,0.3c0,0.1-0.4,0.3-0.9,0.3c-0.5,0-1.4,0.3-2,0.7c-0.6,0.4-2,0.9-3.1,1.1
		c-1.1,0.3-2.3,0.8-2.8,1.2c-0.5,0.4-1.1,0.7-1.3,0.7c-0.2,0-1,0.3-1.7,0.7s-1.6,0.7-1.9,0.7s-1.1,0.3-1.7,0.7
		c-0.6,0.4-1.6,0.8-2.3,0.8c-0.7,0-1.5,0.3-1.6,0.5c-0.2,0.2-0.8,0.6-1.4,0.9c-0.6,0.2-1,0.6-0.9,0.8c0.1,0.2,0,0.3-0.2,0.2
		c-0.2-0.1-0.9,0.1-1.5,0.4c-0.6,0.3-1.2,0.6-1.4,0.6c-0.2,0-0.9,0.4-1.5,0.9s-1.2,0.9-1.3,0.8c-0.1,0-0.9,0.4-1.9,1.1
		c-1,0.6-1.9,1.1-2,1.1c-0.1,0-0.7,0.4-1.3,1c-0.6,0.6-1.1,1-1.3,1c-0.1,0-1,0.7-1.9,1.5c-0.9,0.8-1.8,1.5-2,1.5
		c-0.1,0-0.8,0.5-1.5,1.1c-0.7,0.6-1.6,1.3-2,1.6c-0.4,0.3-1,0.7-1.3,1c-0.3,0.3-1,0.8-1.6,1.2c-0.6,0.4-1.1,1-1.1,1.3
		c0,0.3-0.1,0.4-0.2,0.3c-0.2-0.2-1.7,1.4-1.7,1.9c0,0.1-0.1,0.2-0.3,0.2c-0.4,0-7.2,6.9-7.2,7.3c0,0.3-2.5,2.9-2.7,2.9
		c-0.4,0-2.5,2.5-2.5,3c0,0.3-0.4,0.9-1,1.3s-1,0.9-1,1c0,0.2-0.4,0.8-0.8,1.4c-0.4,0.6-0.8,1.2-0.8,1.4c0,0.2-0.1,0.3-0.3,0.3
		c-0.2,0-0.3,0.3-0.3,0.6c0,0.4-0.4,0.7-1,1c-0.9,0.3-1.1,0.7-1,2c0,0.3-0.2,0.7-0.6,0.8c-0.4,0.1-0.6,0.4-0.5,0.7
		c0.1,0.3-0.1,0.5-0.6,0.5c-0.5,0.1-0.7,0.3-0.6,0.8c0.1,0.6-0.1,0.7-0.6,0.7c-0.4,0-0.6,0.2-0.6,0.4c0.1,0.9,0,1.2-0.5,1.2
		c-0.3,0-0.5,0.3-0.4,0.7c0.1,0.5-0.1,0.8-0.6,0.9c-1,0.2-2.4,2.7-1.5,2.7c0.2,0,0.1,0.3-0.2,0.7c-0.3,0.4-0.7,0.7-1,0.7
		c-0.2,0-0.4,0.2-0.4,0.5c0,0.3,0.2,0.5,0.5,0.5c0.3,0,0.5,0.2,0.5,0.3c0,0.2-0.1,0.3-0.3,0.3c-0.1,0-0.5,0.6-0.7,1.2
		c-0.5,1.4-1,2.8-2,5.3c-0.4,1-0.8,2.3-0.9,2.8c-0.1,0.6-0.3,1.1-0.5,1.3c-0.2,0.2-0.3,0.6-0.3,1c0,0.4-0.2,1.1-0.5,1.6
		c-0.5,0.9-0.9,2.6-0.9,4.1c0,0.4-0.2,0.8-0.3,0.8c-0.2,0-0.2,0.3-0.1,0.8c0.1,0.4,0.1,0.9,0,1c-0.1,0.1-0.3,0.7-0.3,1.3
		c0,0.6-0.3,2.6-0.5,4.5c-1,7-1.1,8.7-0.7,12.1c0.2,2.2,0.2,2.4-0.3,2.2c-0.6-0.2-1.2,1.4-1.2,3.5c0,1-0.1,1.2-0.3,0.7
		c-0.2-0.3-0.5-0.6-0.8-0.6c-0.4,0-0.4,0.2-0.1,1c0.2,0.6,0.5,1,0.7,0.9c0.9-0.1,1.2,0.1,1.2,1c0,0.6-0.2,1.1-0.6,1.3
		c-0.4,0.3-0.5,0.4-0.1,0.5c0.8,0.3,0.4,1.1-0.5,1.1c-1.2,0-2,0.5-1.3,0.8c0.6,0.2,0.7,1.4,0.1,1.6c-0.3,0.1-0.4,0.8-0.3,2.7
		c0.1,1.4,0.1,2.5,0,2.5c-0.5,0,0.2,8,0.8,9.9c0.3,0.8,0.5,1.7,0.5,2c0,0.3,0.1,0.6,0.3,0.6c0.1,0,0.3,0.7,0.3,1.5s0.2,1.7,0.4,1.9
		c0.2,0.2,0.4,0.8,0.4,1.2c0,1.7,0.3,3.8,0.8,5.2c0.3,0.8,0.8,2.3,1,3.2c0.3,1,0.9,2.5,1.3,3.4c0.4,0.9,0.8,1.8,0.8,2
		c0,0.2,0.2,0.6,0.5,0.8c0.3,0.2,0.5,0.7,0.5,1c0,0.3,0.2,0.6,0.3,0.6c0.2,0,0.3,0.4,0.3,0.8s0.2,1.1,0.6,1.5
		c0.7,0.8,1.9,2.8,2.5,4.2c0.3,0.6,0.9,1.5,1.3,2.1c0.5,0.6,0.8,1.4,0.8,1.8c0,0.5,0.4,1.4,1,2c0.5,0.6,1.5,1.9,2.2,2.8
		c0.7,0.9,1.6,2,2.1,2.6c0.5,0.5,0.9,1.1,0.9,1.4c0,0.3,0.9,1.3,2,2.3c1.1,1.1,2,2.2,2,2.6c0,0.4,0.3,0.9,0.7,1.1
		c0.4,0.3,0.7,0.7,0.7,1c0,0.3,0.3,0.7,0.6,0.8c0.4,0.1,1,0.7,1.6,1.2c0.5,0.6,2,1.9,3.2,3c1.2,1.1,2.6,2.3,3,2.7
		c0.4,0.4,0.9,0.8,1.1,0.8c0.2,0,0.4,0.1,0.4,0.2c0,0.1,0.3,0.4,0.6,0.6c0.3,0.2,2.3,1.5,4.3,2.9c2,1.4,3.8,2.5,3.9,2.5
		c0.2,0,0.3,0.2,0.3,0.5s0.2,0.5,0.4,0.5c0.2,0,1.6,0.8,3,1.7c3.3,2.2,4.9,3.1,7.1,3.7c1,0.3,2.1,0.7,2.5,0.9c0.8,0.4,2.2,0.8,5,1.2
		c1.2,0.2,2.3,0.5,2.6,0.7c0.2,0.2,0.4,0.3,0.4,0.2c0-0.1,0.6,0.1,1.4,0.3c0.8,0.3,1.5,0.5,1.7,0.6c0.2,0,0.6,0.2,0.8,0.3
		c4.4,1.7,8,2.3,13.7,2.3c3,0,5.8-0.1,6.2-0.1c0.5,0,1.2,0,1.8,0s1.4,0,2-0.1c0.5-0.1,2.1-0.3,3.4-0.3c6.2-0.4,11.4-1.3,15.5-2.6
		c0.9-0.3,1.5-0.4,1.5-0.3c0,0.1,0.3-0.1,0.6-0.3c0.3-0.3,1.7-0.8,3-1c1.3-0.3,2.6-0.6,2.7-0.8c0.3-0.3,2.6-0.9,4-1.2
		c0.4-0.1,1-0.3,1.4-0.5c0.4-0.2,0.7-0.3,0.7-0.2c0,0.1,0.4-0.1,1-0.4c0.6-0.3,1-0.7,1-0.8c0-0.2,1.7-1,4.2-2
		c0.6-0.2,1.1-0.5,1.1-0.7c0-0.1,0.3-0.2,0.7-0.2c0.7,0,2.3-0.9,4.6-2.5c0.8-0.6,1.7-1.1,1.8-1.1c0.2,0,0.4-0.1,0.4-0.2
		c0.2-0.3,1.9-1.5,3.2-2.2c2-1,7.8-6.4,9.2-8.4c0.5-0.7,1.3-1.8,2-2.5c0.6-0.7,1.3-1.6,1.6-2.1c0.2-0.5,0.6-0.9,0.7-0.9
		c0.2,0,0.3-0.2,0.3-0.4c0-0.2,0.4-0.8,0.9-1.3c1.5-1.5,3-3.5,3-4.1c0-0.3,0.5-1.1,1-1.9c0.6-0.7,1.1-1.6,1.1-1.9
		c0-0.3,0.2-0.8,0.5-1.1c0.2-0.3,0.5-0.8,0.5-1.1c0.1-0.5,0.6-2,1.5-4c0.2-0.5,0.4-1,0.4-1.1c0-0.2,0.2-0.6,0.3-0.8
		c0.3-0.4,0.5-5.8,0.5-10.3c0-1.6-0.7-4.2-1.5-5.8c-0.2-0.5-0.5-1.4-0.5-2c0-0.6-0.2-1.3-0.5-1.5c-0.3-0.2-0.5-0.7-0.5-1.1
		s-0.2-0.9-0.5-1.1c-0.3-0.2-0.5-0.7-0.5-1c0-0.3-0.1-0.6-0.2-0.7c-0.1-0.1-0.9-1-1.7-2.1c-0.8-1.1-2.2-2.7-3.1-3.6
		c-0.9-0.9-1.6-1.9-1.7-2.3c0-0.5-0.3-0.7-0.8-0.8c-0.9-0.1-1.6-0.9-1.6-1.8c0-0.4-0.2-0.6-0.6-0.5c-0.3,0.1-1.1-0.3-1.8-0.8
		c-0.7-0.5-1.3-0.9-1.6-0.9c-0.2,0-0.4-0.1-0.4-0.3c0-0.2-1.8-1.2-4.1-2.4c-2.3-1.1-4.1-2.2-4.1-2.3c0-0.1-0.3-0.3-0.6-0.3
		c-0.3,0-0.8-0.2-1-0.5c-0.2-0.3-0.5-0.5-0.6-0.4c-0.1,0-0.8-0.2-1.5-0.5c-4.4-1.9-11.2-2.7-16.9-1.9c-1.2,0.2-2.3,0.2-2.4,0
		c-0.2-0.4-1.4-0.4-1.4,0c0,0.2-0.4,0.3-1,0.3c-0.6,0-2,0.2-3.3,0.4c-2.3,0.4-2.3,0.4-4.5-0.7c-2.8-1.4-3.9-1.8-5.5-2.3
		c-0.7-0.2-1.4-0.5-1.6-0.7c-0.2-0.2-0.6-0.3-0.9-0.3c-0.3,0-0.8-0.1-1.2-0.3c-0.3-0.2-0.9-0.5-1.4-0.7c-0.5-0.2-1-0.5-1.3-0.7
		c-0.3-0.2-1.1-0.5-2-0.7c-0.8-0.2-1.7-0.6-2-0.9c-0.3-0.2-0.8-0.4-1.2-0.4c-0.4,0-0.9-0.2-1.1-0.5c-0.2-0.3-0.7-0.5-1-0.5
		s-0.6-0.1-0.6-0.3c0-0.2-0.6-0.4-1.3-0.5c-0.7-0.1-1.4-0.4-1.7-0.7c-0.2-0.3-0.8-0.5-1.3-0.5c-0.6,0-1.3-0.4-2-1.1
		c-0.6-0.6-1.3-1.1-1.6-1.1c-0.2,0-0.6-0.2-0.8-0.3c-1.8-1.4-2.5-2-2.7-2c-0.4,0-1.7-1.5-2.8-3.2c-0.6-0.9-1.2-1.7-1.4-1.7
		c-0.7,0-2.6-7.7-2.1-8.4c0.1-0.1,0.2-1.1,0.2-2.2c0-1.8,0.5-4.7,0.9-6.1c0.1-0.3,0.4-0.9,0.8-1.3c0.4-0.4,0.6-0.9,0.5-1.2
		c-0.1-0.2,0.1-0.6,0.4-0.8c0.3-0.2,0.8-0.8,1-1.4c0.4-1.1,2.6-3.5,3.3-3.5c0.2,0,0.4-0.3,0.5-0.7c0.1-0.4,2.1-2.6,4.3-4.8
		c2.2-2.3,4.3-4.3,4.6-4.7c0.3-0.3,0.7-0.6,0.9-0.6c0.2,0,0.4-0.2,0.4-0.3c0-0.4,2.3-2.6,2.7-2.6c0.1,0,0.2-0.2,0.2-0.4
		c0-0.6,2.8-2.9,3.5-2.9c0.1,0,0.6-0.4,1-1c0.4-0.6,0.9-0.9,1.2-0.8c0.3,0.1,0.5,0,0.5-0.2c0-0.2,0.3-0.3,0.6-0.2
		c0.4,0.1,0.9-0.1,1.4-0.8c0.4-0.5,1.3-1.2,2-1.5s1.2-0.6,1.2-0.8c0-0.2,0.6-0.5,1.3-0.7c0.7-0.2,1.3-0.5,1.3-0.7s0.3-0.3,0.7-0.3
		c0.4,0,0.7-0.1,0.7-0.3c0-0.2,0.4-0.3,0.8-0.3c0.4,0,1-0.2,1.2-0.5c0.4-0.5,2.9-1.8,3.5-1.8c0.2,0,0.8-0.5,1.4-1.1
		c0.6-0.6,1.3-1.1,1.5-1.1c0.2,0,0.9-0.5,1.5-1c0.6-0.5,1.2-1,1.5-1c0.2,0,0.4-0.1,0.4-0.3c0-0.4,3.7-1.4,5.2-1.4
		c0.7,0,1.4-0.2,1.5-0.3c0.1-0.2,1.8-0.3,4.8-0.2c2.6,0.1,4.6,0.2,4.6,0.2c0,0.2,2,0.2,2.5,0c0.8-0.4,2.5,0.8,3.3,2.2
		c0.3,0.6,1,1.4,1.4,1.8c0.5,0.4,0.8,1,0.8,1.4c0,0.3,0.5,1.1,1,1.8c1.1,1.3,1.9,2.5,1.4,2.2c-0.5-0.3-0.6,0.5-0.3,1.6
		c0.2,0.6,0.3,1.4,0.3,1.9c0,0.7,0.1,0.9,0.6,0.8c0.7-0.1,0.9,0.9,0.4,2.2c-0.2,0.5-0.4,1-0.4,1.1c0,0.1-0.3,1-0.7,2.1
		c-0.6,1.7-0.7,1.9-1.4,1.7c-0.6-0.2-0.8,0-0.8,0.6c0,1.1-2,4.1-2.7,4.1c-0.1,0-0.6,0.3-0.9,0.6c-0.4,0.3-1.1,0.7-1.6,0.8
		c-0.5,0.1-1.1,0.4-1.3,0.7c-0.2,0.2-0.8,0.6-1.4,0.7c-0.6,0.1-1.3,0.3-1.5,0.5c-3.4,1.7-3.5,1.7-10.6,1.9c-3.9,0.1-7,0-7.2-0.2
		c-0.2-0.2-1.3-0.3-2.5-0.4c-1.2,0-2.7-0.2-3.4-0.5c-1.3-0.5-2.6-0.4-2.3,0.2c0.3,0.5-1.6,0.7-2.2,0.3c-0.5-0.3-0.8-0.2-1.6,0.7
		c-0.5,0.6-1.2,1.1-1.6,1.2c-1,0.2-2.7,1.5-2.5,2.1c0,0.3,0.5,0.5,0.9,0.6l0.8,0.1l-0.8,0.6c-0.9,0.7-0.7,1.3,0.6,1.3
		c0.7,0,1,0.2,1,0.7c0.1,0.5,0.4,0.8,0.8,0.8c0.5,0.1,0.7,0.3,0.7,1c0,1.1,0.7,2,1.6,2c0.4,0,0.8,0.2,0.9,0.5
		c0.1,0.3,0.5,0.5,0.8,0.5c0.3,0,0.7,0.2,0.8,0.3c0.1,0.2,0.3,0.2,0.5,0.1c0.2-0.1,0.7,0.1,1.2,0.4c0.5,0.3,1.5,0.6,2.3,0.7
		c0.8,0,1.6,0.2,1.8,0.4c0.4,0.4,12.9,0.2,17.5-0.2c1.5-0.1,3.1-0.2,3.6-0.2c0.7,0.1,3.6-0.8,6.4-2.1c0.5-0.2,1.8-0.8,2.8-1.2
		c1-0.4,2.3-1,2.9-1.2c0.6-0.3,1.3-0.5,1.6-0.4c0.9,0.2,4.3-2.9,4.3-3.9c0-0.3,0.2-0.6,0.4-0.6c0.2,0,1-0.7,1.7-1.6s1.6-2,2-2.5
		c0.4-0.5,0.7-1,0.7-1.2c0-0.2,0.4-0.7,0.8-1.1c0.5-0.4,0.9-1.2,1-1.9c0.1-0.7,0.3-1.2,0.5-1.2c0.1,0,0.5-1.5,0.8-3.4
		c0.4-2.6,0.5-3.6,0.2-4.6c-0.2-0.8-0.2-1.5,0-2.1c0.5-1.2,0.4-2.4-0.3-3.9c-0.3-0.7-0.6-1.8-0.6-2.3c0-0.6-0.2-1.2-0.5-1.4
		c-0.3-0.2-0.4-0.6-0.3-0.8c0.1-0.2,0-0.5-0.3-0.6c-0.3-0.1-0.5-0.4-0.5-0.7c0-0.3-0.1-0.5-0.3-0.5s-0.3-0.2-0.3-0.5
		c0-0.3-0.4-1.1-0.9-1.7c-1-1.3-7.3-7.6-7.6-7.6c-0.1,0-0.3-0.1-0.3-0.3c-0.2-0.4-3.6-3-3.6-2.7c0,0.2,0.2,0.4,0.4,0.7
		c0.3,0.3,0.3,0.4,0,0.4c-0.2,0-0.5-0.1-0.6-0.3c-0.3-0.5-3.7-2.3-4.4-2.3c-0.5,0-0.6-0.1-0.5-0.6c0.1-0.5,0-0.7-0.7-0.9
		c-0.5-0.2-1.2-0.4-1.5-0.6c-0.4-0.2-0.5-0.1-0.4,0.1c0.1,0.2,0,0.5-0.3,0.6c-0.3,0.1-0.7,0-0.8-0.2c-0.1-0.2-0.5-0.3-0.8-0.2
		c-0.3,0.1-2.3,0-4.4-0.2c-3.6-0.4-9.8-0.6-8.5-0.3c0.3,0.1,0.6,0.3,0.6,0.5c0,0.4-1,0.6-4.4,0.8c-1.6,0.1-3.1,0.2-3.3,0.3
		c-0.2,0.1-0.6,0.1-0.9,0c-0.3-0.1-0.8,0-1.1,0.2c-0.3,0.2-1,0.5-1.6,0.5c-2.5,0.1-2.7,0.1-2.7,0.7c0,0.4-0.2,0.6-0.9,0.7
		c-0.5,0.1-0.9,0.2-0.9,0.4c0,0.2-0.3,0.2-0.6,0.1c-0.7-0.2-3.6,0.5-5.8,1.5c-1.1,0.5-1.5,0.8-1.1,0.9c0.3,0.1,0.6,0.3,0.6,0.4
		c0,0.4-2.2,1.3-3.1,1.3c-0.4,0-0.8,0.2-0.9,0.5c-0.1,0.3-0.4,0.5-0.8,0.5c-0.3,0-0.9,0.2-1.2,0.5c-0.4,0.3-0.8,0.5-1.1,0.5
		c-0.3,0-0.8,0.3-1.3,0.7c-0.5,0.4-1.2,0.7-1.6,0.7c-0.4,0-0.8,0.1-0.8,0.3c0,0.3-4.6,3-5.3,3c-0.2,0-0.9,0.4-1.6,1
		c-0.6,0.5-1.3,1-1.6,1c-0.2,0-0.4,0.2-0.4,0.3c0,0.2-0.3,0.3-0.6,0.3c-0.3,0-0.7,0.1-0.7,0.2c-0.1,0.1-0.9,0.7-1.8,1.3
		c-0.9,0.6-2.3,1.6-3,2.3c-0.7,0.7-1.9,1.6-2.6,1.9c-0.7,0.4-2.4,1.7-3.7,3c-1.3,1.3-2.8,2.5-3.3,2.8c-0.5,0.2-1.6,1.3-2.5,2.3
		c-0.9,1-2.7,2.9-4,4.3s-2.4,2.6-2.4,2.7c0,0.2-0.1,0.3-0.3,0.3c-0.2,0-0.3,0.2-0.3,0.5c0,0.3-0.2,0.5-0.3,0.5
		c-0.2,0-0.3,0.2-0.3,0.5c0,0.3-0.2,0.6-0.5,0.8c-0.3,0.2-0.5,0.5-0.3,0.8c0.1,0.3,0,0.5-0.3,0.5c-0.6,0-1,1.3-0.7,2.2
		c0.1,0.4,0,0.7-0.3,0.9c-0.4,0.1-0.5,0.4-0.3,1c0.1,0.5,0,1.3-0.2,1.9c-1.2,2.7-1.6,6.4-0.8,6.4c0.3,0,0.2,0.1-0.1,0.3
		c-0.6,0.4-0.4,6,0.3,7.2c0.4,0.7,1.2,3.5,1.5,4.6c0.3,1.7,0.7,2.9,1.4,4.3c0.4,0.9,0.8,1.6,0.8,1.8c0,0.2,1.1,1.7,3.7,5.2
		c0.4,0.5,1.4,1.6,2.1,2.3s1.4,1.4,1.4,1.6c0,0.4,3,3.1,3.4,3.1c0.1,0,1.3,1,2.6,2.2c1.3,1.2,2.7,2.3,3.2,2.5c0.5,0.2,1.4,0.8,2,1.4
		s1.4,1.1,1.6,1.1c0.2,0,1.3,0.7,2.5,1.5c1.2,0.8,2.4,1.5,2.8,1.5c0.3,0,0.6,0.1,0.6,0.2c0,0.1,0.9,0.8,2.1,1.6
		c1.2,0.7,2.1,1.5,2.1,1.7c0,0.2-1,0.9-2.2,1.5c-2.4,1.2-2.5,1.3-4.2,2.8c-0.6,0.6-1.6,1.1-2,1.2c-0.5,0.1-1.3,0.7-1.7,1.3
		c-0.5,0.6-1.3,1.3-1.8,1.5c-0.6,0.2-1.2,0.8-1.4,1.2c-0.2,0.4-0.6,0.8-0.9,0.8c-0.2,0-0.4,0.2-0.4,0.4c0,0.2-0.4,0.7-0.8,1.2
		c-1,0.9-2.3,2.7-2,2.7c0.1,0-0.1,0.3-0.6,0.7c-1.3,1.3-2.9,5.4-2.9,7.6c0,0.4-0.2,1.2-0.5,1.8c-0.3,0.6-0.5,1.4-0.4,1.9
		c0.1,0.5-0.1,1-0.2,1c-1.4,0.5-1.5,1.5-0.2,2.9c1.1,1.2,1.2,1.8,0.5,2.4c-0.4,0.4-0.4,0.5,0.2,0.9c0.7,0.5,0.9,1.6,0.2,1.8
		c-0.3,0.1-0.2,0.3,0.2,0.8c0.7,0.8,0.7,1-0.1,1.1c-0.6,0.1-0.5,0.2,0.7,0.9c1.5,0.9,1.8,1.5,0.6,1.2c-0.5-0.1-0.1,0.4,1.2,1.6
		c1.1,1,2.1,1.8,2.2,1.8c0.1,0,0.2,0.2,0.3,0.4c0,0.8,2.8,3.2,4.8,4.1c0.4,0.2,0.8,0.5,1,0.8c0.3,0.5,2.3,1.7,3.4,2
		c0.5,0.1,1.2,0.5,1.6,0.8c0.4,0.3,1,0.5,1.3,0.6c0.3,0,0.8,0.2,1.2,0.4c1,0.5,2.8,1.1,4.7,1.6c4.2,1.1,16.5,0.2,19.5-1.4
		c0.9-0.5,1-0.5,0.5,0c-0.4,0.5-0.4,0.6,0,0.6c0.3,0,0.6-0.1,0.8-0.3c0.2-0.2,1.2-0.5,2.4-0.6c1.9-0.3,5-1.8,6.8-3.3
		c0.4-0.3,0.8-0.6,1-0.7c1-0.3,6.6-5.7,6.6-6.4c0-0.2,0.5-0.7,1.1-1.2c0.7-0.6,1.1-1.1,0.9-1.4c-0.1-0.3,0-0.5,0.1-0.5
		c0.5,0,3.9-4.6,4.1-5.6c0.1-0.4,0.6-1.9,1.1-3.3c0.7-2.1,1-3.4,1.2-7c0-0.8-0.2-3.8-0.5-5.7c-0.1-0.8-0.3-2-0.3-2.7
		c-0.1-0.7-0.3-1.5-0.6-1.8c-0.3-0.3-0.8-1.3-1.2-2.1c-0.4-0.9-0.9-1.7-1.1-1.8c-0.2-0.1-0.6-0.7-1-1.2c-0.4-0.6-0.9-1.2-1.3-1.5
		c-0.8-0.6-0.5-1.1,0.3-0.6c0.3,0.2,0.9,0.2,1.5,0c0.7-0.2,1-0.1,1.3,0.2c0.2,0.3,0.5,0.4,0.6,0.3c0.1-0.1,0.9,0.3,1.6,0.8
		c0.8,0.5,2.1,1.3,3,1.7c0.9,0.4,1.5,0.9,1.4,1c-0.1,0.2,0.1,0.4,0.5,0.5c1.1,0.4,4.3,2.9,4.3,3.3c0,0.2,0.2,0.4,0.4,0.4
		c0.8,0,3.5,3.7,3.1,4.2c-0.1,0.1,0.1,0.7,0.3,1.3c1.1,2.6,0.2,10.7-1.4,13c-0.3,0.4-0.5,0.9-0.5,1.2c0,0.7-3,5.6-3.5,5.8
		c-0.3,0.1-0.6,0.5-0.8,0.9c-0.6,1.4-1.1,2.1-2.1,2.9c-0.6,0.5-1.2,1.3-1.4,1.8c-0.2,0.5-0.9,1.2-1.5,1.5c-0.6,0.3-1.3,0.9-1.5,1.3
		c-0.2,0.4-0.7,0.8-1.1,1c-0.7,0.2-1.8,1.2-1.8,1.6c0,0.1,0.4,0.1,0.9,0c0.9-0.1,0.9-0.1-0.4,1c-1.4,1.2-2,1.3-1.8,0.3
		c0.1-0.6,0.1-0.6-0.5-0.1c-0.3,0.3-1,0.9-1.5,1.4c-0.5,0.5-1.1,0.9-1.4,0.9c-0.3,0-0.8,0.4-1.2,0.9c-0.4,0.5-0.9,0.9-1.1,0.9
		c-0.2,0-1,0.6-1.8,1.2c-0.8,0.7-1.6,1.2-1.8,1.2c-0.2,0-0.7,0.3-1.2,0.7c-0.5,0.4-1.1,0.7-1.6,0.7c-0.4,0-0.7,0.1-0.6,0.3
		c0.1,0.2,0.1,0.6-0.1,1c-0.2,0.6-0.6,0.7-1.9,0.8c-2.3,0.1-3.9,0.5-4.2,1c-0.1,0.2-0.5,0.4-0.7,0.4c-0.7,0-3.5,1-3.9,1.4
		c-0.2,0.2-0.2,0.4,0.2,0.6c0.6,0.4,0.4,0.5-1,0.8c-1.1,0.2-1.2,0.1-1.2-0.4c0-0.5-0.1-0.5-0.3-0.1c-0.2,0.3-0.4,0.4-0.7,0.2
		c-0.2-0.1-0.7,0-1.1,0.2c-0.4,0.2-1.1,0.5-1.5,0.5c-0.4,0.1-1.1,0.4-1.6,0.7c-0.5,0.4-1.6,0.7-3.2,0.8c-1.3,0.1-2.5,0.4-2.5,0.5
		c0,0.2-0.4,0.3-0.9,0.3c-0.5,0-2.1,0.2-3.7,0.5c-1.6,0.3-3.5,0.5-4.5,0.4c-0.9-0.1-1.7,0-1.8,0.1c-0.2,0.5-8.9,0.4-10.9-0.1
		c-0.5-0.1-2.4-0.7-4.2-1.3c-2.6-0.9-3.3-1-3.8-0.6c-0.8,0.5-1.1,0.5-0.9-0.1c0.1-0.2-0.1-0.5-0.4-0.6c-0.3-0.1-1.4-0.5-2.4-0.8
		c-1-0.4-2.1-0.7-2.5-0.7c-0.4,0-0.8-0.2-0.9-0.3c-0.1-0.2-0.8-0.6-1.5-1c-0.7-0.3-1.8-1.1-2.3-1.6c-0.6-0.5-1.3-1-1.5-1
		c-0.2,0-0.6-0.2-0.8-0.5c-0.2-0.3-1.2-1.1-2.1-1.8c-0.9-0.7-2.7-2.3-4-3.5c-1.3-1.2-3.2-2.9-4.2-3.8c-1-0.9-1.8-1.8-1.8-2
		c0-0.2-0.3-0.6-0.7-1c-0.4-0.3-0.7-0.8-0.7-0.9c0-0.2-0.9-1.5-1.9-3c-1.1-1.4-2.1-3-2.3-3.5c-0.2-0.5-0.5-0.9-0.7-0.9
		c-0.2,0-0.3-0.2-0.3-0.4c0-0.2-0.4-1-0.9-1.7c-0.5-0.7-1.2-1.9-1.5-2.7c-0.3-0.8-0.7-1.4-0.9-1.4c-0.2,0-0.3-0.2-0.3-0.5
		c0-0.3-0.2-0.9-0.5-1.4c-0.9-1.7-3.5-7.9-3.5-8.4c0-0.3-0.3-1.2-0.8-2.2c-0.7-1.5-1-2.6-2.1-7.1c-0.1-0.4-0.2-1.2-0.3-1.7
		c0-0.5-0.3-1.1-0.5-1.4c-0.3-0.3-0.4-1.2-0.4-2.3c0-1-0.1-1.8-0.2-1.9c-0.1-0.1-0.2-1.3-0.1-2.8c0-1.4-0.1-2.7-0.2-2.8
		c-0.2-0.1-0.2-0.3-0.1-0.5c0.1-0.2,0.2-2.3,0.3-4.8c0.1-2.5,0.2-5.1,0.3-5.8c0.1-0.7,0-1.6-0.2-1.9c-0.2-0.3-0.1-0.9,0-1.4
		c0.4-0.9,1-7.8,1-11.6c0-1.3,0.2-3,0.5-3.7c0.2-0.7,0.4-1.9,0.5-2.6c0-1.7,0.5-3.8,0.9-4.1c0.2-0.1,0.4-0.5,0.4-0.8
		c0.1-0.6,0.7-2.1,1.2-3.1c0.1-0.3,0.4-1.2,0.5-2c0.1-0.9,0.3-1.5,0.5-1.5c0.1,0,0.5-0.9,0.9-2.1c0.3-1.2,0.7-2.1,0.9-2.1
		c0.1,0,0.2-0.2,0.2-0.5c0-0.6,2.4-5.5,3-6.2c0.2-0.2,0.2-0.4,0.1-0.4c-0.1,0-0.1-0.2,0.1-0.4c0.2-0.2,0.2-0.6,0.1-0.7
		c-0.1-0.1,0.1-0.3,0.5-0.4c0.4-0.1,1.1-0.8,1.5-1.5c0.4-0.7,1-1.3,1.1-1.3c0.2,0,0.4-0.4,0.5-0.9c0.1-0.5,0.6-1.3,1-1.9
		c0.5-0.6,0.8-1.2,0.8-1.4c0-0.2,0.3-0.4,0.6-0.6c0.4-0.1,0.7-0.5,0.8-0.8c0.1-0.3,0.8-1.1,1.4-1.7c1.3-1.1,2.1-2.3,1.8-2.7
		c-0.1-0.1,0.2-0.4,0.8-0.7c0.5-0.3,1.6-1.4,2.4-2.3s1.8-2.1,2.2-2.6c0.4-0.4,0.7-0.9,0.7-0.9c0-0.3,1.6-1.8,1.9-1.8
		c0.2,0,1.2-0.9,2.2-2.1c1-1.2,2.1-2.1,2.3-2.1c0.3,0,0.5-0.1,0.5-0.3c0-0.1,0.9-0.8,2.1-1.6c1.2-0.7,2.2-1.5,2.3-1.8
		c0.1-0.3,0.6-0.7,1.1-0.9c1.1-0.5,3-2.2,3-2.7c0-0.2,0.1-0.3,0.3-0.2c0.2,0.1,0.5,0,0.7-0.3c0.2-0.3,0.9-0.7,1.4-0.9
		c0.6-0.2,1.4-0.8,1.9-1.3c0.5-0.5,1-0.9,1.1-0.9c0.1,0,1-0.5,1.8-1.1c0.9-0.6,1.8-1,2-0.9c0.2,0.1,1.5-0.4,2.9-1.2
		c1.4-0.7,2.7-1.3,2.9-1.3c0.2,0,0.6-0.2,0.8-0.5c0.2-0.3,0.7-0.5,1.1-0.5c0.4,0,0.9-0.2,1.1-0.5c0.2-0.3,0.7-0.5,1-0.5
		c0.3,0,0.7-0.1,0.8-0.3c0.1-0.2,0.5-0.3,0.8-0.3c0.3,0,0.9-0.2,1.4-0.5c0.5-0.2,1.4-0.6,2-0.7c0.6-0.1,1.2-0.3,1.4-0.5
		c0.2-0.1,1-0.5,2-0.8c0.9-0.3,2.7-1.1,4-1.7c1.3-0.6,2.8-1.1,3.4-1.1c0.6,0,1.4-0.3,1.9-0.6c0.5-0.3,1.5-0.8,2.3-1
		c4-1.1,6.5-1.8,7.9-2c0.8-0.2,1.8-0.4,2.3-0.5c1.4-0.3,7-1.2,8.5-1.4c0.8-0.1,1.6-0.3,1.8-0.4c1.1-0.8,14-1.6,17.6-1
		c1.1,0.2,3.6,0.4,5.5,0.5c5.5,0.3,10,1,12.6,2.1c2,0.9,6.5,2.3,7.2,2.3c0.4,0,0.9,0.2,1.3,0.5c0.4,0.3,0.9,0.5,1.2,0.5
		c0.3,0,0.8,0.3,1.1,0.7c0.3,0.4,0.8,0.7,1.1,0.7c0.3,0,1,0.5,1.7,1c0.6,0.5,1.3,1,1.4,1c0.2,0,0.6,0.3,1,0.6
		c0.4,0.3,1.8,1.6,3.1,2.8s2.5,2.1,2.7,2.1c0.2,0,0.3,0.1,0.3,0.3c0,0.2,0.6,0.9,1.3,1.7c0.7,0.8,1.3,1.6,1.3,1.8s0.4,0.9,1,1.5
		c0.5,0.6,1,1.3,1,1.6c0,0.3,0.2,0.7,0.4,0.8c0.2,0.1,0.3,0.7,0.2,1.3c-0.1,0.8,0,1.1,0.3,1.1c0.2,0,0.4,0.2,0.4,0.4
		c0,0.2,0.2,0.9,0.5,1.4c0.4,0.7,0.5,2.2,0.6,5.3c0.2,6.7-0.6,13.3-1.8,15.9c-0.4,0.8-0.6,1.5-0.6,1.7c0,0.2-0.2,0.8-0.5,1.3
		c-0.3,0.5-0.5,1.2-0.5,1.5c0,0.3-0.2,0.6-0.5,0.7c-0.3,0.1-0.5,0.4-0.5,0.7c0,0.7-1.4,3-3.6,5.6c-0.2,0.2-0.2,0.5-0.1,0.6
		c0.1,0.1,0.1,0.3-0.1,0.4c-0.2,0.1-0.7,0.8-1.1,1.5c-0.4,0.7-0.9,1.2-1,1.2c-0.1,0-0.5,0.4-0.8,1c-0.3,0.6-0.7,1-0.9,1
		c-0.3,0-1.8,1.5-2.6,2.6c-0.3,0.4-0.6,0.7-0.9,0.7c-0.2,0-0.8,0.8-1.3,1.7c-0.9,1.8-1.1,3.8-0.2,4.1c0.3,0.1,0.4,0,0.2-0.2
		c-0.1-0.2-0.1-0.4,0.1-0.4c0.2,0,0.3,0.5,0.3,1c0,1.7,0.3,2.6,0.9,2.5c0.3-0.1,0.5,0.1,0.4,0.5c-0.1,0.4,0.1,0.6,0.6,0.6
		c0.5,0,0.6,0.1,0.5,0.5c-0.1,0.3,0,0.5,0.2,0.5c0.2,0,0.8,0.3,1.2,0.7c0.4,0.4,0.9,0.7,1,0.7c0.2,0,0.3,0.2,0.3,0.5
		c0,0.7,1.2,0.3,2.3-0.7l0.8-0.7l-0.2,1c-0.1,0.6-0.3,1.2-0.3,1.4c-0.2,0.6,0.8,0.8,3.4,0.8c1.8,0,2.5-0.1,3-0.5
		c0.5-0.5,0.7-0.5,2,0.1c1.5,0.7,1.5,0.7,3.1-0.4c1.3-0.9,3.8-2.1,4.2-2c0.3,0.1,1.9-1.5,3.9-3.8c0.7-0.8,1.5-1.4,1.8-1.4
		c0.5,0,0.5-0.1,0.1-0.5c-0.3-0.4-0.4-0.6,0-0.7c0.2-0.1,0.4-0.3,0.4-0.5s0.2-0.6,0.5-0.9c0.7-0.8,1.9-2.6,2.8-4.5
		c0.5-0.9,1.2-2.1,1.7-2.8c0.6-0.8,0.9-1.7,1-3.1c0.1-1.1,0.5-2.5,0.8-3.2c0.3-0.7,0.6-1.5,0.5-1.8c-0.1-0.3,0-1,0.2-1.5
		c0.2-0.5,0.4-1.8,0.3-2.8c0-1,0.1-2.1,0.4-2.5c0.3-0.5,0.3-0.9,0.1-1.3c-0.2-0.3-0.2-1-0.1-1.7c0.3-1.6,0.4-3.9,0.1-8.1
		c-0.2-2.9-0.1-3.8,0.2-4c0.3-0.2,0.3-0.3,0-0.8c-0.2-0.3-0.5-1.5-0.5-2.6c0-1.2-0.3-2.3-0.5-2.6c-0.2-0.3-0.5-0.9-0.5-1.4
		c-0.1-0.5-0.2-1.2-0.4-1.5c-0.2-0.4-0.5-1.2-0.8-1.8c-0.3-0.7-0.5-1.4-0.5-1.7c0-0.3-0.2-0.7-0.5-0.9c-0.3-0.2-0.5-0.9-0.5-1.5
		c0-0.7-0.2-1.2-0.5-1.3c-0.3-0.1-0.5-0.5-0.5-0.9c0-0.4-0.6-1.6-1.3-2.6c-0.7-1.1-1.3-2.1-1.3-2.4c0-0.2-0.4-0.8-1-1.4
		c-0.6-0.5-1-1.1-1-1.2c0-0.5-5.1-5.8-5.6-5.8c-0.2,0-0.3-0.1-0.3-0.3c0-0.4-2.6-3-3-3c-0.1,0-0.6-0.3-1-0.6c-0.4-0.3-1.5-1.2-2.4-2
		c-0.9-0.8-1.9-1.6-2.3-2c-0.4-0.4-0.9-0.6-1.1-0.6c-0.2,0-0.8-0.3-1.3-0.6c-0.5-0.3-1.4-0.8-2.1-1.1c-0.7-0.3-1.6-0.9-2.1-1.3
		c-0.5-0.4-1.4-1-2.1-1.2c-0.6-0.2-1.3-0.6-1.5-0.7c-0.2-0.1-0.6-0.3-0.9-0.3c-0.3,0-1.1-0.4-1.7-0.8c-0.6-0.5-1.5-0.8-2.1-0.8
		c-0.6,0-1.1-0.1-1.2-0.3c-0.1-0.2-0.5-0.3-0.8-0.3c-0.4,0-0.6-0.1-0.6-0.3c0-0.2-0.4-0.3-0.9-0.3c-0.5,0-1-0.1-1.1-0.3
		c-0.1-0.4-5.8-2-7.1-2c-0.5,0-1.1-0.2-1.5-0.5c-0.4-0.3-1-0.5-1.5-0.5c-0.5,0-0.9-0.1-1-0.3c-0.1-0.3-4.5-0.7-6.8-0.7
		c-0.6,0-1.4-0.2-1.7-0.5c-0.4-0.4-0.6-0.4-0.8-0.2c-0.1,0.2-0.4,0.2-0.8,0.1c-0.3-0.1-1.4-0.3-2.4-0.2c-1.4,0-1.8-0.1-1.7-0.4
		c0.1-0.3-0.2-0.4-0.8-0.4c-0.5,0-1,0.2-1.1,0.4c-0.1,0.3-0.3,0.2-0.6-0.2c-0.4-0.6-1.6-0.8-1.6-0.2c0,0.2-0.2,0.3-0.5,0.2
		c-0.3-0.1-0.5,0-0.5,0.2c0,0.2-0.3,0.3-0.8,0.1c-0.9-0.3-1.1-0.3-2.5,0c-0.6,0.1-1,0-1-0.2c0-0.2-0.3-0.2-0.7-0.1
		c-0.5,0.2-0.7,0-0.7-0.5c0-0.5-0.2-0.7-0.9-0.7c-1.1,0-2,0.3-2,0.7c0,0.2,0.2,0.3,0.5,0.3c0.3,0,0.5,0.2,0.5,0.3
		c0,0.2-0.9,0.3-2,0.3c-1.1,0-1.9-0.1-1.7-0.3c0.2-0.2,0.3-0.4,0.2-0.6C195.2,56.6,193.6,56.5,191.1,56.8 M174.9,94.6
		c-0.6,0.4-1,0.4-1,0c0-0.2,0.3-0.3,0.7-0.3C175.3,94.3,175.3,94.4,174.9,94.6 M219.4,111.7c0,0.2-0.1,0.7-0.3,1.1
		c-0.2,0.6-0.3,0.6-0.5,0.1c-0.1-0.3-0.1-0.8,0-1.1C218.8,111.2,219.4,111.2,219.4,111.7 M74.4,178.6c-0.3,0.3-0.6-0.2-0.3-0.6
		c0.2-0.3,0.3-0.3,0.4,0C74.5,178.2,74.5,178.5,74.4,178.6 M75.1,188.7c0,1.7-0.1,2.1-0.5,1.9c-0.3-0.1-0.5-0.6-0.5-1
		c0-0.5-0.1-1.4-0.1-2c-0.1-1.4,0.1-1.8,0.6-1.3C74.9,186.5,75.1,187.4,75.1,188.7 M179.7,195.1c0.3,0.2,0.4,0.5,0.3,0.7
		c-0.1,0.2,0.1,0.3,0.4,0.2c0.8-0.1,2.1,0.7,2.1,1.4c0,0.4,0.3,0.7,0.6,0.8c0.4,0.1,1,0.9,1.5,1.9c1,2,1,2.2,0.4,2.2
		c-0.3,0-0.4,0.6-0.4,2c0,2.9-0.3,4-1.4,5.7c-1.4,2.1-2.3,3.9-2,4.2c0.1,0.1,0.1,0.2-0.1,0.1c-0.4-0.2-2.4,1.6-2.4,2.1
		c0,0.9-4.8,5.2-7.6,6.8c-1.9,1.1-8.3,2.2-11.7,2.1c-1.5-0.1-4.9-0.3-5.6-0.4c-0.1,0,0.1-0.2,0.3-0.4c0.4-0.3,0.3-0.3-0.3-0.1
		c-0.6,0.2-1,0-1.9-1c-0.6-0.7-1.1-1.6-1.2-1.9c-0.1-1.7,0.1-3.6,0.4-3.9c0.2-0.2,0.3-0.6,0.3-1c0-0.4,0.2-1.1,0.5-1.6
		c0.3-0.5,0.5-1.2,0.5-1.6c0-0.6,0.3-1.2,1-2.6c0.2-0.3,0.4-0.8,0.6-1.2c0.2-0.4,0.5-0.8,0.8-0.9c0.3-0.1,0.5-0.4,0.5-0.6
		c0-0.6,6.1-6.5,7.5-7.1c0.7-0.3,1.6-0.9,2.2-1.2c1.1-0.8,2.4-1.3,2.8-1.3c0.2,0,0.7-0.3,1.2-0.6c0.5-0.3,1.6-0.8,2.5-1
		c0.9-0.2,1.8-0.5,1.9-0.7c0.2-0.2,0.7-0.3,1.2-0.3s1-0.2,1.1-0.4C176,194.7,179.1,194.6,179.7,195.1 M87.4,229.1
		c0.3,0.4,0.4,0.7,0.2,0.7c-0.2,0-0.5-0.3-0.7-0.7c-0.2-0.4-0.3-0.7-0.2-0.7C86.8,228.4,87.1,228.7,87.4,229.1 M185.5,249.1
		c-0.3,0.3-0.5,0.3-0.8,0c-0.3-0.3-0.2-0.4,0.4-0.4C185.7,248.7,185.8,248.8,185.5,249.1 M169.7,254.3c0,0.2-0.1,0.3-0.1,0.3
		c-0.1,0-0.2-0.1-0.3-0.3c-0.1-0.2,0-0.3,0.1-0.3C169.5,253.9,169.7,254.1,169.7,254.3"/>
	<path style="clip-path:url(#SVGID_2_);fill:#501B58;" d="M202.7,56.9c0.2,0.1,0.6,0.1,0.8,0s0-0.2-0.4-0.2S202.4,56.9,202.7,56.9"
		/>
	<path style="clip-path:url(#SVGID_2_);fill:#501B58;" d="M186.4,57.7c0,0.2,0.2,0.2,0.5,0.1c0.3-0.1,0.5-0.2,0.5-0.3
		c0-0.1-0.2-0.1-0.5-0.1C186.6,57.4,186.4,57.5,186.4,57.7"/>
	<path style="clip-path:url(#SVGID_2_);fill:#501B58;" d="M192.6,88.1c0.3,0.2,0.9,0.2,1.5,0c0.9-0.3,0.9-0.3-0.5-0.3
		C192.5,87.8,192.3,87.9,192.6,88.1"/>
	<path style="clip-path:url(#SVGID_2_);fill:#501B58;" d="M168.7,95.6c-0.3,0.2-0.3,0.3-0.1,0.3c0.2,0,0.5-0.1,0.6-0.3
		C169.5,95.2,169.3,95.2,168.7,95.6"/>
	<path style="clip-path:url(#SVGID_2_);fill:#501B58;" d="M75.5,150.6c0,0.2,0.1,0.3,0.3,0.3c0.2,0,0.3-0.1,0.3-0.3
		s-0.1-0.3-0.3-0.3C75.6,150.3,75.5,150.4,75.5,150.6"/>
	<path style="clip-path:url(#SVGID_2_);fill:#501B58;" d="M74.5,158.1c0,0.8,0.1,1,0.3,0.8c0.2-0.2,0.2-0.6,0-1.1
		C74.6,157,74.5,157,74.5,158.1"/>
	<path style="clip-path:url(#SVGID_2_);fill:#501B58;" d="M73.5,162.5c-0.2,0.3-0.3,0.6-0.3,0.7c0.1,0.1,0.4-0.1,0.6-0.3
		s0.3-0.6,0.3-0.7C74,162.1,73.8,162.3,73.5,162.5"/>
	<path style="clip-path:url(#SVGID_2_);fill:#501B58;" d="M73.5,165.4c-0.1,0.2-0.1,0.7,0.1,1.1c0.2,0.6,0.2,0.6,0.4-0.1
		C74.2,165.4,73.7,164.6,73.5,165.4"/>
	<path style="clip-path:url(#SVGID_2_);fill:#FFFFFF;" d="M494.3,138.9c-0.2,0.2-1.8,0.6-3.6,0.8c-1.7,0.2-3.6,0.6-4,0.7
		c-0.5,0.2-0.7,0.2-0.6-0.1c0.3-0.4-1.3-0.1-1.6,0.4c-0.2,0.3-1.8,0.6-5,0.9c-1.1,0.1-2.3,0.3-2.6,0.4c-0.3,0.1-1.3,0.2-2.2,0.2
		c-1,0-1.8,0.1-1.9,0.3c-0.1,0.2-1.1,0.4-2.1,0.5c-1.1,0.1-1.9,0.3-1.9,0.5c0,0.2-0.7,0.3-1.5,0.3s-2.1,0.2-2.9,0.3
		c-0.8,0.2-2.2,0.4-3.1,0.5c-0.9,0.1-1.8,0.3-2,0.4c-0.5,0.3-2.7,0.8-4.8,1.1c-1.1,0.2-2.1,0.4-2.2,0.6c-0.3,0.5-2.4,0.6-2.4,0.1
		c0-0.3-0.2-0.2-0.4,0.2c-0.3,0.4-1.1,0.7-2.5,0.8c-1.1,0.1-2.7,0.5-3.5,0.9c-0.8,0.4-1.7,0.6-2,0.5c-0.3-0.1-0.6,0-0.7,0.1
		c-0.1,0.2-0.3,0.2-0.5,0.1c-0.2-0.1-0.9,0-1.6,0.3c-0.7,0.2-1.4,0.5-1.6,0.5c-0.2,0-0.9,0.2-1.5,0.4c-0.7,0.2-2.2,0.5-3.5,0.6
		c-1.3,0.1-2.3,0.4-2.3,0.6c0,0.2-0.5,0.3-1.3,0.2c-0.8-0.1-1.1-0.1-0.8,0.1c0.6,0.3,0,0.8-0.7,0.5c-0.3-0.1-1.1,0.1-1.8,0.4
		c-0.8,0.3-1.7,0.6-2,0.6c-0.4,0-1.1,0.1-1.6,0.1c-0.5,0-0.9,0.2-0.8,0.4c0.1,0.2-0.3,0.2-0.9-0.1c-0.8-0.3-1.1-0.3-1.4,0.1
		c-0.1,0.2-0.4,0.4-0.6,0.2c-0.2-0.1-1.6,0.2-3.2,0.8c-1.6,0.5-3.2,0.9-3.6,0.8c-0.4-0.1-0.8,0-0.8,0.2c0,0.3-3.7,1.2-4,1
		c-0.1-0.1-0.9,0-1.7,0.3c-0.9,0.3-1.7,0.4-1.9,0.3c-0.2-0.1-0.3-0.1-0.3,0.1c0,0.3-1.7,0.7-4.5,1c-0.9,0.1-1.8,0.3-2.2,0.5
		c-0.4,0.2-1.2,0.4-1.9,0.5c-0.7,0.1-1.6,0.3-2.1,0.4c-0.5,0.1-1.5,0.3-2.4,0.3c-2.3,0.2-3.7,0.5-4.1,1.1c-0.2,0.2-0.6,0.4-0.9,0.2
		c-0.3-0.1-0.5-0.1-0.3,0.2c0.1,0.2-0.2,0.3-1.1,0.2c-0.8-0.1-1.4,0-1.4,0.2c0,0.2-0.7,0.4-1.5,0.5c-0.8,0.1-2.1,0.3-2.8,0.4
		c-0.8,0.1-1.6,0.4-1.8,0.5c-0.2,0.2-0.5,0.3-0.7,0.1c-0.2-0.1-0.4,0-0.5,0.2c-0.1,0.2-0.6,0.4-1.2,0.4s-1.1,0.1-1.1,0.2
		c0,0.3-2.7,1-3.3,0.8c-0.3-0.1-0.5,0-0.5,0.2c0,0.2-0.4,0.4-0.9,0.5c-0.5,0.1-0.9,0-0.9-0.1c0-0.2-0.2-0.3-0.5-0.3
		c-0.3,0-0.5,0.2-0.5,0.4c0,0.2-0.2,0.3-0.5,0.2c-0.3-0.1-0.6,0-0.9,0.2c-0.2,0.2-0.4,0.3-0.4,0.1c0-0.1-0.5,0-1.1,0.3
		c-0.9,0.4-1.1,0.5-1.3,0.1c-0.2-0.4-0.4-0.4-0.8,0c-0.3,0.3-1.2,0.5-2.1,0.5c-0.9,0-1.5,0.1-1.5,0.2c0,0.2-0.6,0.3-2.4,0.3
		c-0.7,0-1.5,0.2-1.8,0.4c-0.4,0.2-1,0.4-1.4,0.5c-0.4,0.1-1.7,0.3-3,0.5c-1.2,0.2-2.3,0.5-2.3,0.7c-0.1,0.2-0.8,0.4-1.5,0.4
		c-0.8,0-2.3,0.3-3.3,0.7c-1,0.4-2.6,0.7-3.5,0.7c-1.2,0-1.6,0.1-1.4,0.4c0.2,0.3,0,0.3-0.5,0.2c-0.5-0.1-0.7-0.1-0.5,0.2
		c0.2,0.2-0.1,0.3-0.7,0.1c-0.6-0.2-1.1-0.1-1.2,0.2c-0.1,0.2-0.8,0.5-1.4,0.5c-0.6,0-1.2,0.1-1.3,0.2c-0.1,0.1-0.3,0.1-0.5,0.1
		c-2.5,0.4-3.3,0.7-3.5,1.1c-0.2,0.5-1.1,0.7-1.1,0.1c0-0.2-0.5-0.1-1.2,0.2c-0.7,0.3-1.2,0.4-1.2,0.3c0-0.1-0.2,0-0.5,0.2
		c-0.3,0.2-0.8,0.3-1.1,0.2c-0.3-0.1-0.7-0.1-0.9,0.1c-0.5,0.4-4.3,0.8-4.5,0.4c-0.2-0.3-1.6,0-2,0.5c-0.2,0.3-0.3,0.3-0.3,0
		c0-0.2-0.3-0.3-0.7-0.2c-0.4,0.1-0.7,0.3-0.7,0.5c0,0.2-0.3,0.3-0.7,0.2c-0.4-0.1-0.8,0-0.9,0.2c-0.1,0.2-0.5,0.2-0.8,0.1
		c-0.3-0.1-1.1,0-1.7,0.3c-0.7,0.4-2,0.6-4,0.6c-1.6,0-2.7,0.1-2.5,0.3c0.2,0.1-0.6,0.4-1.8,0.6c-1.7,0.4-2.2,0.4-2.4,0
		c-0.2-0.3-0.3-0.3-0.3,0c0,0.2-0.3,0.4-0.7,0.4c-0.4,0-0.7,0.1-0.7,0.3s-1.1,0.4-2.4,0.5c-1.3,0.1-2.4,0.4-2.5,0.7
		c-0.1,0.3-0.2,0.3-0.5-0.1c-0.3-0.4-0.5-0.4-1.1-0.1c-0.4,0.2-1.1,0.3-1.6,0.2c-0.5-0.1-0.8-0.1-0.6,0.1c0.1,0.2-0.1,0.4-0.5,0.4
		c-0.4,0-1.1,0.3-1.6,0.5c-0.5,0.3-1.6,0.6-2.4,0.6c-2.3,0.1-4.3,0.6-4.6,1c-0.3,0.4-3.6,1.2-5.2,1.2c-0.6,0-1,0.2-1,0.5
		c0,0.3-0.2,0.5-0.3,0.5c-0.2,0-0.3-0.2-0.3-0.4c0-0.7-1.1,0.5-1.6,1.6c-0.5,1.3-0.6,1.6-0.1,1.3c0.2-0.1,0.3,0,0.3,0.2
		c0,0.2-0.2,0.4-0.4,0.4c-0.2,0-0.3,0.2-0.2,0.4c0.3,0.8-0.4,2.1-0.9,1.9c-0.4-0.2-0.5,0.1-0.5,1c0,0.7-0.2,1.2-0.4,1.2
		c-0.3,0-0.3,0.2,0,0.5c0.3,0.4,0.3,0.8,0,1.9c-0.4,1.2-0.3,1.5,0,1.7c0.3,0.2,0.3,0.4,0.2,0.7c-0.2,0.3-0.1,0.3,0.1,0.2
		c0.6-0.4,0.5,1.2-0.1,2.1c-0.5,0.7-0.5,0.8,0,1.1c0.3,0.2,0.5,0.8,0.5,1.2c0,0.4,0.2,0.9,0.3,1c0.2,0.1,0.2,0.4,0.1,0.6
		c-0.1,0.2-0.2,1.1-0.2,1.9c0,0.8-0.1,1.5-0.3,1.5c-0.2,0-0.2,0.2,0,0.7c0.3,0.7,0.3,2.1-0.1,3.2c-0.2,0.4,0,0.9,0.3,1.3
		c0.5,0.5,0.5,0.8,0.2,1.7c-0.3,0.8-0.3,1,0,1c0.2,0,0.2,0.1,0,0.4c-0.6,0.7-0.9,5.6-0.4,6.2c0.3,0.4,0.3,0.6,0,1
		c-0.2,0.3-0.3,0.7-0.2,1.1c0.2,0.4,0.1,0.5-0.2,0.3c-0.3-0.2-0.4-0.1-0.2,0.5c0.5,2,0.7,5.1,0.3,5.1c-0.4,0-0.6,1.1-0.2,1.4
		c0.3,0.3,0.4,5.4,0.1,5.4c-0.2,0-0.2,0.5-0.1,1.1c0.1,0.6,0.2,1.7,0.3,2.3c0,0.7,0.2,1.4,0.3,1.6c0.1,0.2,0.1,0.4-0.2,0.4
		c-0.3,0-0.3,0.4-0.2,1.6c0.4,2.4,0.4,5.3,0.1,5.5c-0.1,0.1-0.1,0.4,0.1,0.6c0.5,0.6,1,3.6,0.7,3.6c-0.2,0-0.3,0.3-0.3,0.6
		c0,0.5,0,0.5,0.3,0.1c0.3-0.4,0.3-0.2,0.3,0.9c0,0.8,0.1,1.6,0.2,1.8c0.2,0.2,0.1,0.7-0.1,0.9c-0.3,0.4-0.3,0.5,0.1,0.7
		c0.5,0.2,0.8,1.8,0.3,1.8c-0.3,0-0.2,2.6,0.3,4.6c0.2,0.7,0.2,1.6,0.1,2c-0.1,0.4,0,0.7,0.2,0.7c0.2,0,0.3,0.2,0.2,0.5
		c-0.1,0.3,0,0.5,0.2,0.5c0.2,0,0.4,0.2,0.4,0.5c0,0.3-0.1,0.5-0.3,0.5c-0.4,0-0.2,3.5,0.3,4.4c0.5,0.9,0.5,1.2,0,0.9
		c-0.2-0.1-0.3,0.1-0.1,0.8c0.1,0.5,0.1,0.8-0.1,0.6c-0.2-0.2-0.3,0.4-0.3,1.5c0,1.3,0.1,1.8,0.4,1.7c0.3-0.1,0.4,0.2,0.4,0.6
		c0,2.8,0.4,5.9,0.7,6.1c0.2,0.1,0.3,0.7,0.1,1.4c-0.2,0.8-0.1,1.2,0.2,1.4c0.3,0.1,0.3,0.3,0.1,0.6c-0.2,0.3-0.4,1.2-0.3,2.2
		c0,1-0.1,2-0.2,2.3c-0.4,0.8,0.4,3.4,0.9,3.1c0.2-0.1,0.2,0-0.1,0.4c-0.4,0.5-0.4,0.8-0.1,1.7c0.5,1.3,0.5,2.4,0.1,2.2
		c-0.2-0.1-0.4,0-0.5,0.3c-0.1,0.3-0.1,0.5,0.1,0.3c0.2-0.1,0.4-0.1,0.5,0.2c0.1,0.2,0,0.3-0.2,0.3c-0.3,0-0.3,0.1-0.1,0.3
		c0.2,0.1,0.4,1,0.4,2c0,1.2,0.2,1.8,0.6,2.1c0.3,0.2,0.5,0.6,0.4,0.8c-0.2,0.3,0.2,0.5,0.9,0.4c0.3,0,0.4,0.8,0.3,1.6
		c0,0.3,0.2,0.4,0.6,0.2c0.6-0.2,0.7-0.1,0.5,0.4c-0.2,0.4-0.1,0.5,0.3,0.4c0.3-0.1,0.9,0,1.5,0.3c0.5,0.3,1.2,0.5,1.6,0.5
		c0.3,0,0.7,0.1,0.7,0.3c0,0.2,0.9,0.3,1.9,0.2c1,0,2,0.1,2.1,0.3c0.1,0.2,0.3,0.2,0.5-0.1c0.1-0.2,1.6-0.6,3.3-0.9
		c4.8-0.8,7-1.3,8.2-1.9c0.8-0.4,2.1-0.7,3.4-0.7c0.5,0,0.9-0.1,0.8-0.3c-0.2-0.4,2.2-0.7,3.8-0.5c1,0.1,1.2,0.1,0.9-0.2
		c-0.4-0.3-0.3-0.4,0.5-0.4c0.6,0,1.2-0.2,1.5-0.4c0.3-0.3,0.5-0.3,0.6,0c0.1,0.3,0.5,0.2,1.3-0.3c0.7-0.4,1.4-0.6,1.6-0.4
		c0.2,0.1,0.5,0.1,0.6-0.2c0.3-0.4,3.1-1.3,5.3-1.7c0.9-0.1,1.3-0.1,1.1,0.1c-0.1,0.2,0.1,0.2,0.8,0c0.6-0.2,1-0.5,1-0.6
		c0-0.1,0.4-0.2,0.8-0.1c0.4,0.1,0.9,0,1-0.2c0.1-0.2,0.7-0.4,1.2-0.4c0.5,0,1-0.1,1-0.3c0-0.2,0.9-0.4,2-0.5
		c1.1-0.1,3.7-0.4,5.9-0.7c2.2-0.3,4.4-0.5,5.1-0.5c0.6,0,1.1-0.2,1.1-0.4c0-0.2,0.2-0.3,0.4-0.3c0.7,0.1,2.5-0.4,2.8-0.9
		c0.2-0.2,0.3-0.2,0.3,0c0,0.8,6.2-0.3,7.3-1.2c0.2-0.2,1-0.3,1.7-0.2c0.8,0.1,1.3,0,1.3-0.2c0-0.2,0.1-0.3,0.2-0.2s0.4,0,0.7-0.2
		c0.3-0.2,0.8-0.4,1.3-0.5c0.8-0.1,2.7-0.7,3.9-1.3c0.4-0.2,0.9-0.2,1.1-0.1c0.3,0.2,0.3,0.1,0.2-0.1c-0.1-0.2,0.4-0.4,1.4-0.5
		c2.5-0.3,3.1-0.4,3.6-0.8c0.2-0.2,1.5-0.5,2.8-0.6s2.7-0.5,3.2-0.8c0.5-0.3,1.1-0.4,1.7-0.3c0.5,0.1,1,0.1,1.1-0.2
		c0.1-0.2,1.4-0.7,2.8-1c2.5-0.6,4.1-1.1,5.8-1.8c0.5-0.2,1.4-0.4,2-0.5c0.6-0.1,1.6-0.1,2.2-0.2c2-0.2,3.8-0.7,4.3-1.1
		c0.3-0.3,0.9-0.5,1.6-0.5c0.6,0,2.3-0.3,3.8-0.7c1.5-0.4,3.2-0.8,3.7-0.9c0.5-0.1,0.9-0.3,0.9-0.5c0-0.1,0.3-0.2,0.7-0.1
		c0.3,0.1,1-0.1,1.4-0.4c0.5-0.4,1.4-0.6,2.6-0.7c1,0,2.4-0.3,2.9-0.6c0.6-0.3,1.4-0.5,1.7-0.4c0.4,0.1,0.7,0,0.9-0.4
		c0.2-0.4,0.5-0.5,1.5-0.3c0.9,0.2,1.1,0.1,0.7-0.1c-0.4-0.3-0.1-0.3,0.9-0.3c0.8,0,2.1-0.2,3.1-0.5c1-0.3,2.2-0.5,2.9-0.5
		c0.7,0,1.6-0.2,2.1-0.5c0.5-0.3,1.2-0.4,1.6-0.3c0.4,0.1,1.1-0.1,1.5-0.3c0.4-0.3,1.2-0.5,1.8-0.5c0.6,0,1.1-0.2,1.1-0.4
		c0.1-0.2,0.3-0.2,0.6,0c0.4,0.3,0.5,0.3,0.5,0c0-0.2,0.1-0.3,0.2-0.2c0.1,0.1,0.7,0,1.2-0.3c0.5-0.3,2-0.6,3.1-0.7
		c1.2-0.1,2.2-0.2,2.3-0.2c0.1,0,0.4,0,0.7,0s0.7-0.1,0.8-0.3c0.1-0.2,0.7-0.4,1.2-0.4c0.7,0,1-0.2,1.1-0.6c0.2-0.6,0.2-0.6,0.2,0
		c0,0.5,0.3,0.6,1.2,0.6c0.7,0,1.3-0.2,1.4-0.4c0.1-0.2,0.7-0.3,1.2-0.2s0.9,0,0.8-0.1c-0.2-0.3,2.3-0.7,2.5-0.5
		c0.1,0.1,0.4-0.2,0.8-0.5c0.4-0.5,1-0.7,2.3-0.7c1,0,1.7-0.2,1.7-0.4c0-0.2,0.6-0.3,1.3-0.2c1,0.1,1.3,0,1.2-0.3
		c-0.1-0.3,0.2-0.4,0.8-0.3c0.5,0.1,0.9,0,0.9-0.1c0-0.1,0.8-0.3,1.8-0.3c1.4,0,1.9-0.2,2.3-0.8c0.4-0.5,0.8-0.7,1.5-0.5
		c0.5,0.1,1.1,0,1.2-0.1c0.1-0.2,0.5-0.3,0.8-0.3c0.3,0,0.7-0.1,0.8-0.3c0.1-0.2,0.7-0.4,1.3-0.5c3.8-0.6,5.7-1,6.3-1.2
		c0.7-0.3,1.8-0.7,2.2-0.8c0.1,0,0.7-0.1,1.3-0.3c0.7-0.2,1.1-0.1,1.2,0.1c0.1,0.3,0.2,0.3,0.4,0.1c0.8-0.9,3.6-1.6,3.6-0.8
		c0,0.3,0.1,0.3,0.4,0c0.2-0.2,1.1-0.4,1.8-0.5c0.8-0.1,1.4-0.3,1.4-0.4c0-0.2,0.3-0.4,0.8-0.5s1-0.3,1.1-0.5c0.2-0.3,0.3-0.3,0.7,0
		c0.5,0.5,1.1,0.6,0.8,0.1c-0.2-0.3,1.3-0.7,3.1-0.7c0.6,0,2.1-0.1,3.4-0.1c1.3-0.1,3.1-0.1,3.9-0.2c0.8,0,1.4-0.2,1.3-0.4
		c-0.2-0.3,0.8-0.8,1.7-0.9c0.2,0,0.8-0.3,1.4-0.6c0.9-0.5,1.4-0.5,3.1-0.2c1.4,0.3,2,0.3,2.1,0c0.1-0.2,0.4-0.3,0.8-0.2
		c0.4,0.1,0.8-0.1,1.1-0.6c0.3-0.4,0.7-0.7,0.9-0.5c0.2,0.1,0.4,0.1,0.4-0.1c0-0.2,0.3-0.6,0.7-1c0.4-0.4,0.6-0.9,0.5-1.1
		c-0.1-0.2-0.1-0.4,0.2-0.4c0.2-0.1,0.4-1,0.4-2c0-1,0.2-2,0.4-2.1c0.2-0.1,0.1-0.4-0.1-0.8c-0.3-0.3-0.4-0.7-0.2-0.9
		c0.1-0.2,0-0.5-0.3-0.8c-0.6-0.5-0.7-1.9-0.1-1.5c0.3,0.2,0.3,0,0.2-0.4c-0.1-0.4-0.3-2-0.4-3.5c-0.1-1.6-0.3-3-0.5-3.2
		c-0.2-0.2-0.4-0.6-0.4-1c0-0.3-0.2-0.6-0.4-0.6c-0.2,0-0.2-0.2-0.1-0.4c0.4-0.6,0.5-1.3,0.5-2.6c0-0.6,0.1-1.2,0.3-1.3
		c0.2-0.1,0-0.9-0.2-1.7c-0.4-1.1-0.5-2.1-0.3-3.2c0.1-0.9,0.2-2,0.3-2.4c0-0.5,0.2-1,0.4-1.1c0.2-0.2,0.2-0.3-0.1-0.3
		c-0.5,0-0.5-1.3,0-2.3c0.2-0.5,0.2-1.2,0-2.3c-0.2-0.9-0.4-2-0.4-2.5c0-0.5-0.2-1.1-0.4-1.4c-0.3-0.3-0.3-0.8,0-1.9
		c0.3-1.2,0.3-1.7-0.1-2.4c-0.3-0.5-0.3-0.9-0.2-0.9s0.4-0.3,0.4-0.7c0.1-0.4,0-0.7-0.2-0.7c-0.2,0-0.2-0.3,0.1-0.7
		c0.3-0.5,0.3-0.8,0-1.2c-0.2-0.3-0.3-1.1-0.3-1.8c0.1-0.8-0.1-1.4-0.4-1.7c-0.2-0.2-0.5-0.8-0.6-1.2c-0.1-0.5-0.3-1.4-0.6-2
		c-0.4-0.9-0.4-1.2,0-1.3c0.2-0.1,0.4-0.4,0.4-0.8c0-0.4-0.1-0.6-0.3-0.5c-0.2,0.1-0.2-0.1-0.1-0.5c0.1-0.4,0-0.7-0.1-0.7
		c-0.2,0-0.3-0.5-0.3-1.1c0-0.6-0.2-1.9-0.4-2.9c-0.2-1-0.2-1.8-0.1-1.8c0.1,0,0.2-1.2,0.3-2.6c0.1-2.3,0-2.6-0.5-2.6
		c-0.5,0-0.5-0.1-0.1-0.3c0.6-0.4,0.3-2.8-0.5-4c-0.3-0.5-0.4-0.8-0.1-1c0.2-0.1,0.2-0.4,0.1-0.6c-0.1-0.2-0.3-2.4-0.4-4.9
		c-0.2-7.6-0.3-8.6-0.6-9c-0.3-0.5-0.6-6.4-0.3-7.2c0.1-0.2,0.3-0.3,0.5-0.2c0.4,0.3,0.4,0-0.2-1.1c-0.3-0.6-0.4-1.4-0.3-2.1
		c0.2-0.8,0.1-1.1-0.2-0.9c-0.5,0.3-0.5-0.2,0-0.7c0.3-0.3,0.3-0.5,0-0.9c-0.2-0.3-0.3-0.6-0.2-0.7c0.1-0.1,0-0.7-0.3-1.3
		c-0.3-0.8-0.4-1.9-0.3-3.5c0.1-1.4,0.1-2.3-0.1-2.3c-0.2,0-0.2-0.1-0.1-0.2c0.1-0.1,0-0.6-0.2-1.1c-0.2-0.5-0.3-1.6-0.3-2.5
		c0-1.3-0.1-1.7-0.7-2.3c-0.4-0.4-1-0.7-1.2-0.7c-0.3,0-0.4-0.2-0.2-0.5c0.1-0.3,0-0.5-0.2-0.5c-0.2,0-0.4-0.2-0.3-0.4
		c0.1-0.6-0.4-2-0.7-2c-0.2,0-0.6-0.3-1-0.7c-0.6-0.6-0.9-0.7-1.9-0.5c-0.7,0.1-1.2,0.1-1.2-0.1
		C495.6,138.6,494.7,138.4,494.3,138.9 M488.6,151.4c-0.1,0.2,0.2,0.3,0.9,0.1c0.6-0.1,1.2-0.2,1.3-0.2c0.8,0,1,0.2,1.2,1.2
		c0.1,0.6,0.4,1.3,0.7,1.6c0.5,0.5,0.7,3.3,0.1,3c-0.2-0.1-0.3-0.1-0.3,0.1c0,0.2,0.1,0.4,0.3,0.5c0.2,0.1,0.3,2.4,0.1,2.9
		c-0.2,0.4,0.1,1.6,0.4,2c0.2,0.2,0.2,0.7,0,1.3c-0.2,0.5-0.3,1.3-0.1,1.7c0.1,0.5,0,1.1-0.2,1.4c-0.3,0.4-0.3,0.5,0,0.5
		c0.3,0,0.4,0.4,0.2,1.5c-0.1,0.8-0.1,1.6,0.1,1.7c0.2,0.1,0.3,2,0.2,4.2c0,2.6,0.1,4.5,0.4,5.3c0.3,1,0.4,1.3,0.1,1.4
		c-0.3,0.1-0.3,0.3,0,0.8c0.3,0.5,0.3,0.8,0,1.1c-0.3,0.3-0.2,0.8,0.2,1.7c0.4,0.9,0.4,1.5,0.2,1.9c-0.2,0.4-0.2,1,0.1,1.8
		c0.2,0.7,0.3,1.9,0.2,2.9c-0.1,1.2-0.1,1.7,0.2,1.8c0.3,0.1,0.4,1,0.3,3.5c-0.1,2.2,0,3.3,0.3,3.3c0.2,0,0.4,0.2,0.4,0.5
		c0,0.3-0.2,0.5-0.4,0.5c-0.2,0-0.3,0.3-0.1,0.9c0.1,0.5,0.3,1.3,0.3,1.6c0,0.4,0.2,0.9,0.4,1.2c0.4,0.6,0.4,3.7,0.1,3.5
		c-0.1-0.1-0.2,0.1-0.2,0.4s0.2,0.5,0.3,0.3c0.2-0.1,0.3,0.3,0.3,1c0,0.8-0.2,1.2-0.4,1.2c-0.3,0-0.3,0.1,0.1,0.3
		c0.4,0.2,0.4,0.4,0.1,0.8c-0.3,0.4-0.3,0.6,0,0.7c0.2,0.1,0.4,0.7,0.5,1.4c0,0.7,0.2,1.4,0.3,1.6c0.1,0.2,0.2,1.5,0.1,2.9
		c-0.1,2-0.2,2.5-0.6,2.4c-0.4-0.1-0.4,0-0.1,0.5c0.2,0.4,0.2,0.9,0,1.4c-0.3,0.6-0.3,0.9,0,1c0.3,0.2,0.2,0.7-0.1,1.7
		c-0.4,1.3-0.4,1.6,0,2.8c0.6,1.6,0.6,2.1,0.4,6.9c-0.1,2-0.1,3.7,0.1,3.8c0.5,0.3,0.2,4.7-0.3,5.1c-0.3,0.2-0.4,0.6-0.3,1.1
		c0.1,0.4,0.1,0.9-0.1,1.1c-0.2,0.3-0.2,0.6,0.1,0.9c0.3,0.4,0.3,0.7,0,1.2c-0.2,0.4-0.4,1.5-0.4,2.6v1.9h-1.2
		c-0.6,0-1.2-0.2-1.2-0.4c0-0.5-5.6,0.1-6.4,0.8c-0.2,0.2-0.5,0.2-0.6,0.1c-0.1-0.1-0.6,0-1,0.3c-0.4,0.3-1.2,0.5-1.9,0.5
		c-0.6,0-1.1,0.1-1.2,0.3c-0.1,0.2-0.5,0.4-0.9,0.5c-0.6,0.2-0.8,0.2-0.5-0.2c0.2-0.3,0.1-0.4-0.4-0.2c-0.4,0.1-1,0.3-1.3,0.4
		c-0.4,0.1-0.9,0.3-1.1,0.5c-0.2,0.2-0.6,0.2-0.8,0.1c-0.4-0.2-3.5,0.5-3.8,0.9c-0.1,0.1-0.9,0.3-1.9,0.4c-1,0.1-1.9,0.3-2.1,0.5
		c-0.2,0.2-1,0.5-1.9,0.6c-2.3,0.3-2.7,0.4-3.1,0.8c-0.2,0.2-0.5,0.3-0.8,0.2c-0.2-0.1-1.1,0.1-1.8,0.4s-1.7,0.4-2,0.3
		c-0.3-0.1-0.5,0-0.5,0.2c0,0.2-0.4,0.4-0.9,0.3c-1.2-0.1-3.2,0.3-3.8,0.8c-0.3,0.2-0.9,0.3-1.5,0.3c-0.6,0-1.3,0.1-1.6,0.4
		c-0.3,0.3-1.3,0.6-2.2,0.7c-0.9,0.1-2,0.4-2.4,0.7c-0.4,0.3-1.3,0.6-2.1,0.7c-0.8,0.1-1.8,0.3-2.2,0.4c-0.5,0.1-1.1,0.2-1.4,0.3
		c-0.3,0-0.5,0.2-0.4,0.4c0.1,0.2-0.6,0.4-1.6,0.4c-1,0-2,0.2-2.2,0.5c-0.3,0.2-1.7,0.5-3.2,0.6c-1.5,0.1-2.7,0.3-2.6,0.5
		c0.1,0.2-0.3,0.3-0.9,0.3c-0.6,0-2,0.2-3.2,0.5c-1.2,0.3-2.8,0.5-3.6,0.5c-0.8,0-1.7,0.2-2.1,0.4c-0.4,0.2-1.3,0.4-2.1,0.4
		c-0.8,0-1.5,0.2-1.6,0.4c-0.1,0.2-0.7,0.3-1.2,0.2c-0.6-0.1-0.9-0.1-0.8,0.1c0.1,0.2-0.2,0.3-0.6,0.3c-0.5,0-0.9,0.1-1,0.3
		c-0.2,0.4-2.2,0.8-3.1,0.7c-0.4,0-0.5,0.1-0.4,0.3c0.1,0.2-0.1,0.4-0.6,0.4c-0.4,0-1,0.1-1.3,0.1c-0.3,0-0.9,0.1-1.3,0.1
		s-0.7,0.2-0.6,0.4c0.1,0.2-0.2,0.3-0.8,0.2c-0.6-0.1-1,0-0.9,0.2c0.1,0.2-0.6,0.3-1.7,0.3c-1.1,0-1.8,0.1-1.7,0.3
		c0.1,0.2-0.3,0.3-1,0.3c-2.4,0-5,0.9-5.9,2.1c-0.3,0.4-0.4,0.4-0.4,0.1c0-0.3-0.2-0.4-0.8-0.2c-0.4,0.1-1.4,0.3-2.1,0.4
		c-0.8,0.1-1.5,0.4-1.7,0.7c-0.2,0.3-0.9,0.5-1.8,0.5c-1,0-1.4,0.1-1.2,0.4c0.2,0.3,0.1,0.3-0.3,0.2c-0.3-0.1-1.4,0.2-2.5,0.7
		c-1.1,0.5-2.1,0.8-2.4,0.7c-0.2-0.1-0.5-0.1-0.6,0.1c-0.1,0.1-1,0.2-2,0.2c-1,0-2,0-2.2,0.1c-0.2,0.1-0.6,0.2-0.9,0.3
		c-1.9,0.3-2.7,0.5-2.7,0.8c0,0.2-0.2,0.3-0.5,0.2c-0.3-0.1-0.7,0-0.9,0.3c-0.2,0.3-1.8,0.7-3.6,1c-1.8,0.3-3.2,0.7-3.2,0.9
		c0,0.2-0.2,0.3-0.5,0.1c-0.7-0.3-3.6,0.5-4.1,1c-0.5,0.7-2.2,1.2-3.1,1c-0.6-0.2-0.7-0.1-0.6,0.4c0.2,0.5,0.1,0.5-0.4,0.2
		c-0.4-0.2-0.9-0.3-1.6,0c-0.5,0.2-1.1,0.3-1.2,0.2c-0.1-0.1-1,0.1-1.9,0.5c-1,0.3-1.9,0.6-2,0.5c-0.2-0.1-0.5,0-0.9,0.2
		c-0.3,0.2-1.5,0.5-2.7,0.8c-1.1,0.2-2.2,0.6-2.4,0.7c-0.2,0.2-1,0.3-1.8,0.3s-1.5,0.2-1.5,0.3c0,0.2-0.3,0.3-0.7,0.3
		c-0.4,0-0.6,0.2-0.5,0.3c0.1,0.2-0.4,0.3-1.5,0.3c-1,0-2,0.2-2.4,0.6c-0.4,0.3-1.4,0.6-2.2,0.6c-0.9,0-1.2,0.1-0.9,0.3
		c0.3,0.2,0.2,0.3-0.5,0.3c-0.5,0-0.9-0.2-0.9-0.4c0-0.3-0.1-0.3-0.3,0.1c-0.2,0.3-0.6,0.4-1.2,0.3c-0.5-0.1-1.6-0.1-2.6,0.1
		c-1,0.2-2.4,0.4-3.2,0.4c-0.8,0-1.6,0.2-1.7,0.3c-0.1,0.1-1.6,0.3-3.2,0.4c-1.6,0.1-3.1,0.3-3.2,0.5c-0.5,0.7-1.9,1.2-3.7,1.4
		c-1,0.1-1.8,0.3-1.8,0.5c0,0.2-0.3,0.2-0.8,0.1c-0.4-0.1-1.2,0.1-1.8,0.3s-1.3,0.5-1.7,0.5c-0.7,0-1.8,0.5-4.8,2
		c-1.5,0.8-2.9,1.1-2.9,0.8c0-0.2-0.2-0.2-0.4-0.1c-0.4,0.3-4.2,0.2-5.2-0.1c-0.4-0.1-0.6-0.1-0.4,0.2c0.1,0.2-0.2,0.5-0.7,0.6
		c-0.5,0.1-1.4,0.4-1.9,0.7c-0.9,0.4-1.1,0.4-2.3-0.3c-1-0.5-1.3-0.9-1.3-1.5c0-0.4-0.1-0.9-0.3-1c-0.3-0.2-0.1-1.6,0.4-1.9
		c0.2-0.1,0.1-0.8-0.3-1.5c-0.3-0.7-0.6-2.2-0.7-3.2c-0.2-5-0.4-6.9-0.6-7.1c-0.1-0.1-0.2-0.8-0.2-1.4c0-0.6-0.1-1.1-0.3-1.1
		c-0.2,0-0.4-0.6-0.4-1.4c-0.1-0.8,0-1.4,0.2-1.4c0.2,0,0.2-0.2-0.1-0.4c-0.3-0.3-0.3-0.5,0-1c0.3-0.4,0.2-1.2-0.1-2.8
		c-0.3-1.2-0.4-3-0.4-3.9c0.2-2.7,0.1-5-0.2-5.7c-0.2-0.3-0.3-1.4-0.3-2.3c-0.1-6-0.2-6.9-0.7-7.5c-0.7-0.7-0.8-2.3-0.4-3.5
		c0.2-0.6,0.2-1.2-0.1-1.9c-0.2-0.6-0.4-1.2-0.2-1.3c0.1-0.1,0-0.5-0.2-0.7c-0.2-0.3-0.4-0.8-0.3-1.2c0.1-0.4,0-0.7-0.1-0.7
		c-0.3,0-0.8-7.1-0.8-11.5c0-1.5-0.1-2.9-0.1-3.1c-0.3-0.8,0-3,0.3-2.7c0.2,0.1,0.3,0.1,0.3-0.1c0-0.2-0.1-0.4-0.3-0.4
		c-0.2-0.1-0.4-1-0.5-2.1s-0.3-2.1-0.4-2.3c-0.1-0.2,0-0.5,0.3-0.7c0.3-0.2,0.4-0.3,0.1-0.3c-0.3,0-0.4-0.3-0.3-0.8
		c0.1-0.4,0-1.5-0.2-2.3c-0.4-2.1-0.6-6.8-0.3-7c0.2-0.1,0.2-0.4,0-0.8c-0.5-0.9-0.7-7.3-0.4-11.7c0.2-2.7,1.6-4.3,3.3-3.6
		c0.3,0.1,0.5,0,0.6-0.2c0.1-0.2,0.8-0.4,1.6-0.4c0.8,0,1.7-0.2,1.8-0.5c0.1-0.2,0.5-0.4,0.9-0.4c0.3,0,1.2-0.2,2-0.5
		c1.3-0.5,5.8-1.4,8.2-1.6c0.6-0.1,1.3-0.3,1.7-0.5c0.4-0.2,1.7-0.4,3-0.6s2.7-0.5,3.3-0.7c0.6-0.3,1.9-0.5,2.9-0.6
		c1.1,0,1.9-0.2,1.9-0.3c0-0.2,0.8-0.3,1.7-0.3s1.7-0.1,1.7-0.3c0-0.4,3.2-0.9,3.3-0.4c0.1,0.2,0.3,0.3,0.7,0.1
		c0.8-0.4,1.9-0.8,2.5-0.9c0.3,0,1.5-0.2,2.8-0.3c1.3-0.1,2.6-0.4,2.9-0.7c0.6-0.5,1.6-0.4,1.3,0.1c-0.2,0.3,2.5-0.1,3.7-0.6
		c0.6-0.2,0.9-0.3,0.7,0c-0.3,0.5,0.1,0.4,0.7-0.1c0.3-0.3,1.1-0.6,1.8-0.7c0.7-0.1,1.5-0.3,1.8-0.4c0.3-0.1,1.1-0.2,1.7-0.3
		c2-0.2,2.1-0.2,2.1-0.5c0-0.1,0.4-0.3,0.8-0.3s0.9-0.2,1-0.3c0.1-0.2,0.6-0.2,1-0.1c0.4,0.1,0.8,0,0.8-0.1c0-0.5,2.2-1,5-1.3
		c1.3-0.1,2.5-0.4,2.6-0.5c0.1-0.2,0.7-0.3,1.3-0.3c0.6,0,1.1-0.2,1.1-0.3c0-0.2,0.5-0.3,1-0.3c0.5,0,1.4-0.2,1.9-0.3
		c0.5-0.2,0.9-0.2,0.9,0c0,0.2,0.3,0.2,0.7,0.1c0.4-0.1,0.7-0.3,0.7-0.5c0-0.2,0.6-0.4,1.3-0.5s1.4-0.3,1.5-0.3s1.6-0.2,3.3-0.5
		c2-0.3,3.1-0.6,2.9-0.8c-0.1-0.2,0-0.2,0.2,0.1c0.3,0.3,0.7,0.3,1.2,0.1c0.4-0.2,0.9-0.2,1-0.1c0.1,0.1,0.4,0,0.7-0.2
		c0.3-0.2,0.8-0.3,1-0.2c0.3,0.1,0.5,0,0.5-0.2c0-0.2,0.1-0.3,0.3-0.2c0.2,0.1,0.8,0,1.5-0.2c0.8-0.2,1.2-0.2,1.3,0
		c0.1,0.2,0.4,0.1,0.6-0.2c0.3-0.3,0.8-0.5,1.2-0.5c1.3,0,6.1-1.5,6.1-1.9c0-0.2,0.1-0.2,0.3,0.1c0.2,0.4,0.4,0.3,0.8-0.1
		c0.3-0.3,1.2-0.6,2.3-0.6c1,0,1.6-0.2,1.5-0.3c-0.1-0.2,0.4-0.3,1.2-0.3c0.8,0,1.5-0.1,1.6-0.3c0.1-0.2,1.3-0.4,2.6-0.5
		c1.3-0.1,2.4-0.4,2.4-0.5c0-0.5,1.5-0.7,1.8-0.3c0.2,0.3,0.3,0.3,0.3,0c0-0.6,1.3-0.9,2.8-0.8c0.9,0.1,1.3,0,1.1-0.3
		c-0.1-0.3,0.3-0.4,1.4-0.4c2.4-0.1,2.6-0.1,3.4-0.5c0.4-0.2,1.7-0.6,3-0.8c1.5-0.3,2.2-0.6,2.1-0.8c-0.1-0.2,0-0.2,0.3,0
		c0.6,0.6,1,0.5,0.8-0.1c-0.2-0.4-0.1-0.5,0.7-0.2c0.6,0.2,1.1,0.2,1.6-0.2c0.4-0.3,1.1-0.5,1.6-0.4c0.9,0.2,4.3-0.6,5.3-1.1
		c0.3-0.2,0.9-0.3,1.4-0.3c0.4,0,0.9-0.1,1.1-0.3c0.2-0.2,1.2-0.4,2.3-0.4c1.1-0.1,2-0.2,2-0.4c0-0.1,0.5-0.3,1.1-0.3
		c0.6,0,1.3-0.2,1.5-0.4c0.2-0.2,1.3-0.4,2.4-0.5c1.1-0.1,2.1-0.3,2.2-0.4c0.1-0.1,0.8-0.4,1.5-0.5c0.8-0.1,1.8-0.6,2.4-1.3
		c0.6-0.6,1.4-1,1.8-1c0.4,0,0.9-0.2,1.1-0.5c0.2-0.3,0.8-0.5,1.4-0.4c0.7,0,1-0.1,0.9-0.4c-0.1-0.3,0.2-0.4,1.4-0.4
		c0.9,0,2-0.2,2.6-0.5c1.2-0.6,1.4-0.6,1.1-0.2c-0.3,0.5-0.1,0.4,1.3-0.2c0.7-0.3,1.4-0.4,1.6-0.3c0.2,0.1,0.3,0.1,0.3-0.2
		c0-0.2,0.3-0.4,0.7-0.4s0.7,0.2,0.7,0.3c0,0.2,0.2,0.3,0.4,0.3c0.2,0,0.3-0.2,0.2-0.5c-0.1-0.4,0.1-0.5,0.8-0.5
		c0.5,0,1.2-0.2,1.6-0.5c0.5-0.4,0.8-0.4,1.3-0.1c0.5,0.3,0.8,0.3,1.3,0c0.4-0.2,1.1-0.4,1.6-0.4c0.5,0,0.8-0.1,0.7-0.3
		c-0.3-0.5,1.3-0.7,1.8-0.3c0.3,0.3,0.4,0.3,0.3,0c-0.3-0.5,0.7-0.9,1.3-0.5c0.5,0.4,2,0.1,1.7-0.4c-0.1-0.1,0.3-0.3,0.8-0.3
		c0.5,0,1.5-0.1,2.2-0.2c0.7-0.1,1.7-0.2,2.2-0.3c0.6,0,1.2-0.3,1.5-0.5c0.2-0.2,0.8-0.4,1.2-0.5c1.3-0.1,2.5-0.2,2.8-0.3
		c0.2-0.1,0.6-0.1,0.9,0c0.3,0,0.6-0.1,0.6-0.3c0-0.3,0.1-0.3,0.5,0c0.3,0.3,0.9,0.3,2.1-0.1c0.9-0.3,1.6-0.3,1.6-0.2
		c0,0.2,0.3,0.2,0.8,0.1c1.1-0.3,4.4-1.1,5.1-1.1C488.5,151.1,488.7,151.2,488.6,151.4"/>
	<path style="clip-path:url(#SVGID_2_);fill:#DE5599;" d="M472.9,269.8c0.2,0.1,0.5,0.1,0.7,0c0.1-0.1-0.1-0.2-0.4-0.2
		C472.7,269.6,472.6,269.7,472.9,269.8"/>
	<path style="clip-path:url(#SVGID_2_);fill:#FFFFFF;" d="M467.4,179.9c-0.5,0.4-1.4,0.7-2,0.7c-0.6,0-1,0.1-1,0.3
		c0,0.2-0.2,0.3-0.5,0.3c-0.3,0-0.8,0.1-1.1,0.3c-1.6,0.9-3.2,1.4-3.5,1.2c-0.2-0.1-0.4,0-0.5,0.2c-0.1,0.2-0.6,0.3-1.1,0.3
		s-1.1,0.1-1.3,0.3c-0.3,0.3-3.2,1.1-3.8,1.1c-0.2,0-0.9-0.5-1.6-1.2c-1.2-1.1-1.9-1.3-2.8-0.8c-0.2,0.1-1.1,0.3-1.9,0.3
		c-1.6,0.1-2.1,0.4-2.3,1.5c-0.1,0.4-0.2,0.8-0.4,0.9c-0.1,0.1-0.3,0.4-0.3,0.7c0,1-0.4,2.2-0.7,2.4c-0.3,0.2-0.8,2.7-0.9,4.8
		c0,0.7-0.3,1.9-0.5,2.6c-0.2,0.8-0.3,1.8-0.2,2.2c0.1,0.5,0,1.3-0.2,1.8c-0.7,1.8-0.9,6.2-0.3,6.8c0.2,0.2,0.2,0.6,0,1.1
		c-0.3,0.7-0.2,0.9,0.4,1.2c0.4,0.2,1.1,1.3,1.6,2.3c0.5,1,1.1,1.9,1.3,1.9c0.9,0.1,2.5,0.7,3,1.2c0.6,0.5,3.3,0.6,7.9,0.3
		c1.9-0.1,4.2,0.1,4.7,0.5c0.5,0.4,0.5,0.6,0.1,2.9c-0.4,2.1-0.6,2.6-1.5,3.3c-0.6,0.5-1.1,1-1.1,1.2c0,0.7-2.3,2.7-2.5,2.2
		c-0.1-0.3-0.2-0.3-0.2,0.1c0,0.4-0.6,0.7-1.6,1c-0.9,0.2-1.5,0.5-1.5,0.6c0,0.2-2.8,0.2-3.1,0c-0.1-0.1-0.8-0.1-1.4-0.2
		c-1.7-0.1-1.9,0.7-0.6,3.3c0.3,0.5,0.3,0.8,0,1.1c-0.5,0.5-0.5,1,0,0.8c0.2-0.1,0.3,0,0.3,0.2c0,0.2,0.4,0.7,0.8,1.1
		c0.5,0.4,0.8,0.8,0.7,1.1c-0.1,0.3,0,0.5,0.2,0.5c0.2,0,0.8,0.3,1.3,0.7c1.3,1,4.8,1.5,5.7,0.9c0.4-0.3,1.4-0.7,2.2-0.9
		c0.8-0.2,1.4-0.6,1.4-0.9c0-0.2,0.1-0.4,0.3-0.4c0.7,0.1,1.8-0.5,1.8-0.9c0-0.3,0.1-0.5,0.3-0.5c0.2,0,0.9-0.5,1.5-1.1
		c0.7-0.6,1.5-1.4,1.8-1.7c1.5-1.4,2.4-2.6,2.8-3.8c0.2-0.7,0.5-1.3,0.7-1.3c0.4,0,1-2.7,0.8-3.3c-0.1-0.3,0-0.5,0.2-0.5
		c0.4,0,0.6-2.8,0.2-3.2c-0.1-0.1-0.3-0.6-0.3-1c-0.3-2.1-0.5-3.2-0.8-3.3c-0.2-0.1-0.3-0.3-0.3-0.6c0-0.2-0.5-0.8-1.1-1.2
		c-0.6-0.4-1-0.7-0.9-0.7c0.2,0,0-0.3-1.6-2.1c-0.3-0.3-0.5-0.7-0.5-0.9c0-0.4-1.6-1.6-2.4-1.7c-0.8-0.1-4.2-0.8-5.5-1.2
		c-1.6-0.4-2.7-0.4-2.1,0c0.6,0.4-0.7,0.7-2.1,0.5c-1.3-0.2-1.9-1.3-1.9-3.2c0-1.8,0.4-4.1,0.7-4.1c0.2,0,0.3-0.2,0.3-0.4
		c0-0.5,2.1-2,2.8-2c0.3,0,0.7-0.2,0.9-0.5c0.2-0.3,0.9-0.6,1.6-0.7s1.5-0.2,1.8-0.2c0.2,0,0.4-0.2,0.4-0.4c0-0.2,0.3-0.2,0.7-0.1
		c0.4,0.1,0.8,0,1-0.4c0.2-0.3,0.6-0.6,1-0.6s0.9-0.2,1.2-0.5c0.3-0.2,1.1-0.4,1.8-0.4c1.7,0,3.6-0.3,3.6-0.7c0-0.2,0.2-0.3,0.5-0.3
		c0.3,0,0.5-0.1,0.5-0.3c0-0.2,0.4-0.4,1-0.5c0.6-0.1,1,0,1,0.2c0,0.2,0.2,0.1,0.5-0.2c0.3-0.3,1-0.6,1.5-0.7c0.7-0.2,1-0.4,1-0.9
		c0-0.3,0.2-0.6,0.3-0.6c0.2,0,0.3-0.5,0.3-1s-0.2-1.1-0.3-1.2c-0.2-0.1-0.3-0.5-0.3-0.9c0-0.4-0.3-0.8-0.9-1
		c-1-0.4-2.9-2.2-2.9-2.9c0-0.2,0-0.7,0-1.1C469.6,178.9,468.7,178.9,467.4,179.9"/>
	<path style="clip-path:url(#SVGID_2_);fill:#FFFFFF;" d="M408.3,189c-0.6,0.6-0.7,1.1-0.6,1.8c0.1,0.5,0,1-0.2,1.1
		c-0.3,0.1-0.3,0.2,0,0.2c0.5,0,0.6,2.4,0.1,2.4c-0.2,0-0.3,0.4-0.3,0.9c0,0.8,0.1,0.9,0.3,0.3c0.3-0.6,0.3-0.6,0.3,0.2
		c0,0.5-0.1,1-0.3,1.1c-0.2,0.1-0.3,0.9-0.3,1.8c0,0.9-0.1,2.3-0.1,3.2c-0.1,0.9,0,1.7,0.2,2c0.2,0.3,0.2,0.4-0.1,0.4
		c-0.3,0-0.3,0.5-0.2,1.5c0.1,0.9,0.1,1.5-0.1,1.5c-0.2,0-0.3,0.7-0.4,1.6c0,1,0.1,1.4,0.3,1.1c0.2-0.3,0.3-0.3,0.3-0.1
		c0,0.2-0.1,0.5-0.3,0.6c-0.4,0.3-0.7,1.9-0.3,1.9c0.2,0,0.2,0.5,0.1,1.2c-0.1,0.8-0.1,1.3,0.2,1.5c0.2,0.1,0.5,0.9,0.6,1.7
		c0.2,1.2,0.1,1.4-0.4,1.4c-0.4,0-0.6,0.3-0.6,0.8c0,0.6,0.1,0.7,0.3,0.3c0.3-0.4,0.3-0.4,0.3,0.1c0,0.3-0.2,0.7-0.5,0.8
		c-0.3,0.1-0.4,0.3-0.2,0.4c0.2,0.1,0.2,1.6,0.1,3.2c-0.1,1.7-0.1,3.1,0.1,3.2c0.1,0.1,0.3,0.4,0.3,0.7c0,0.3-0.1,0.4-0.3,0.4
		c-0.1-0.1-0.3,0.5-0.3,1.3c0,2.4-0.3,4.3-0.6,4.1c-0.3-0.2,0.1,2,0.5,2.5c0.2,0.2,0.2,0.5,0.1,0.6c-0.6,0.6-0.1,2.3,1.3,3.7
		c0.8,0.8,1.6,1.5,1.8,1.4c0.2-0.1,0.3,0,0.3,0.2c0,0.2,0.3,0.3,0.6,0.3c0.3,0,1.2,0,1.8,0.1c0.7,0,1.6-0.2,2.1-0.4
		c0.4-0.2,0.9-0.4,1.1-0.4c0.2,0,0.2,0,0.2-0.2c-0.1-0.7,0.1-1.1,0.5-1.1c0.3,0,0.5-0.3,0.5-0.7c0-0.4-0.2-0.7-0.3-0.7
		c-0.2,0-0.3-0.1-0.3-0.3c0-0.2,0.2-0.3,0.5-0.3c0.4,0,0.4-0.2,0.2-0.5c-0.2-0.3-0.2-1.2-0.1-2.1c0.2-1.3,0.1-1.7-0.4-2.2
		c-0.4-0.4-0.5-0.6-0.2-0.6c0.3,0,0.3-0.1,0-0.3c-0.2-0.2-0.4-1.2-0.4-2.8c0-1.6-0.1-2.6-0.4-2.7c-0.2-0.1-0.4-0.4-0.4-0.7
		c0-0.5,0.1-0.5,0.4-0.1c0.3,0.4,0.3-0.1,0.1-1.5c-0.2-2.2-0.3-3-0.2-4.3c0-0.5,0-1.8,0-2.9c-0.1-2.2,0.3-4.4,0.8-5.3
		c0.2-0.4,0.2-0.6,0-0.6c-0.4,0-0.4-9.3,0-9.6c0.3-0.2,0.6-2.5,0.6-4.5c0-1.1,0.1-1.6,0.4-1.4c0.3,0.2,0.3,0,0.2-0.7
		c-0.1-0.5-0.1-0.9,0.1-0.9c0.2,0,0.3-0.2,0.3-0.4c0-0.2,0.1-0.7,0.2-1.1c0.2-0.5,0-1-0.7-1.7c-0.7-0.8-0.8-1-0.4-1.3
		c0.4-0.2,0.4-0.3,0-0.3c-0.2,0-0.3-0.2-0.2-0.3c0.1-0.2,0.1-0.3-0.1-0.3c-0.4,0.1-1.8-0.4-1.8-0.7c0-0.1-1.2-0.2-2.7-0.3
		C409.3,188.2,409,188.2,408.3,189"/>
	<path style="clip-path:url(#SVGID_2_);fill:#FFFFFF;" d="M364.9,202.4c-0.7,0.3-3.6,3.3-3.6,3.8c0,0.2-0.3,0.3-0.6,0.3
		c-0.5,0-0.5,0-0.1,0.3c0.4,0.3,0.4,0.3-0.1,0.3c-0.3,0-0.6,0.1-0.6,0.3c0,0.2,0.2,0.3,0.4,0.3s0.3,0.2,0.1,0.4
		c-0.1,0.2-0.4,0.3-0.7,0.2c-0.3-0.1-0.5,0-0.4,0.2c0.1,0.2-0.3,1-0.8,1.8c-0.8,1.3-1.6,3-1.9,4.5c-0.1,0.4-0.3,0.9-0.4,1.2
		c-0.1,0.3-0.2,1.2-0.3,2c-0.1,0.8-0.3,1.8-0.6,2c-0.2,0.3-0.4,1.1-0.5,1.9c0,0.8-0.1,1.9-0.2,2.6c-0.1,0.7,0,1.4,0.2,1.7
		c0.3,0.4,0.2,0.5-0.1,0.8c-0.4,0.2-0.4,0.4-0.1,0.7c0.2,0.2,0.4,0.8,0.4,1.2c0,0.4,0.1,0.8,0.3,0.9c0.5,0.2,1.7,4.4,1.3,4.4
		c-0.2,0-0.1,0.2,0.2,0.4c0.3,0.2,0.6,0.6,0.6,0.9c0,0.6,0.8,1.5,1.3,1.5c0.2,0,0.3,0.1,0.3,0.3c-0.2,0.5,2.2,3.1,2.9,3.1
		c0.3,0,0.6,0.2,0.5,0.4c-0.1,0.3,0.3,0.4,0.9,0.3c0.8-0.1,0.9,0,0.5,0.3c-0.4,0.3-0.3,0.4,0.4,0.4c0.5,0,0.9,0.2,0.9,0.3
		c0,0.2,0.4,0.3,0.8,0.3s0.9,0.1,1,0.3c0.1,0.2,0.8,0.3,1.5,0.2c0.7-0.1,2.3-0.2,3.7-0.3s2.5-0.4,2.5-0.5c0.1-0.2,0.5-0.3,0.9-0.3
		c0.4,0,0.9-0.2,1-0.5c0.1-0.3,0.5-0.5,0.9-0.5s0.9-0.2,1.2-0.5c0.3-0.3,0.7-0.5,0.9-0.5c0.2,0,0.4-0.2,0.4-0.4c0-0.2,0.5-1,1-1.6
		c1.3-1.5,1.4-1.7,2-2.7c0.2-0.5,0.8-1.5,1.3-2.2c0.5-0.8,0.8-1.6,0.7-1.8c-0.1-0.2,0-0.4,0.1-0.4c0.2,0,0.4-0.5,0.5-1.2
		s0.4-1.4,0.6-1.7c0.2-0.3,0.5-1,0.5-1.6c0.1-0.6,0.2-1.6,0.3-2.1c0.1-0.6,0.3-1.7,0.3-2.6c0.1-0.9,0.2-1.8,0.4-2.1
		c0.1-0.3,0.1-0.6-0.2-0.8c-0.2-0.1-0.3-0.4-0.2-0.5c0.1-0.2-0.1-0.3-0.3-0.3c-0.6,0-0.7-0.5-0.2-0.8c0.7-0.4,0.2-2.2-0.9-3.5
		c-0.2-0.3-0.4-0.7-0.4-1c0-0.3-0.4-0.9-0.9-1.3s-0.9-1.1-0.9-1.5c0-0.4-0.2-0.7-0.7-0.7c-0.3,0-0.7-0.2-0.8-0.5
		c-0.1-0.3-0.4-0.5-0.6-0.5c-0.2,0-1-0.5-1.8-1.2s-1.7-1.2-2.2-1.2c-0.4,0-0.8-0.2-0.9-0.3c-0.1-0.2-0.9-0.4-1.8-0.5
		c-2-0.2-4.4-0.9-4.7-1.3c-0.1-0.2-1-0.3-1.9-0.3s-2-0.1-2.4-0.3C365.9,202.3,365.3,202.3,364.9,202.4 M374.8,209.2
		c0.1,0.1,0.2,0.4,0.2,0.8c0,0.3,0.3,0.8,0.5,1.1c0.7,0.6,1.5,2.2,1.6,3.4c0.1,0.6,0.3,1.2,0.5,1.5c0.7,0.8,0.2,5.6-0.6,7.2
		c-0.4,0.7-0.9,1.4-1.1,1.6c-0.3,0.2-0.3,0.3,0,0.3c0.3,0,0.3,0.3-0.2,0.9c-0.4,0.5-0.8,1.3-0.9,1.8c-0.5,1.7-2.2,4.1-2.9,4.1
		c-0.2,0-0.7,0.3-1.1,0.7c-0.6,0.6-1.7,0.8-4.4,0.8c-0.5,0-1.2-0.5-2-1.3c-1.3-1.4-1.5-2-0.8-2.3c0.3-0.1,0.2-0.2-0.2-0.2
		c-0.6,0-0.9-1.5-0.3-1.9c0.2-0.1,0.2-1.2,0.2-2.5c-0.1-1.3,0.1-3.1,0.4-4.1c0.3-1,0.4-2,0.3-2.1c-0.1-0.2,0.1-0.6,0.5-0.9
		c0.4-0.3,0.7-0.9,0.7-1.2c0-0.3,0.3-1,0.6-1.4c0.3-0.5,0.9-1.5,1.3-2.4c0.8-1.8,1.5-2.7,2.1-2.7c0.2,0,0.5-0.2,0.7-0.5
		C370.6,208.9,373.6,208.5,374.8,209.2"/>
	<path style="clip-path:url(#SVGID_2_);fill:#FFFFFF;" d="M314.5,210.5c-0.2,0.3-0.8,0.5-1.3,0.5c-0.5,0-1,0.1-1.1,0.3
		c-0.1,0.2-0.5,0.3-0.8,0.3c-0.3,0-0.8,0.3-1,0.7c-0.2,0.4-0.7,0.7-1,0.7c-0.7,0-1.5,0.8-1.5,1.5c0,0.3-0.2,0.5-0.5,0.5
		c-0.8,0-1.4,0.8-3.1,4c-0.5,1-0.5,1.1,0,1.8c0.5,0.5,0.8,0.6,1.2,0.4c0.4-0.2,1.6-0.3,2.7-0.2c1.1,0.1,2,0,2-0.1
		c0-0.2,0.4-0.4,0.9-0.5c0.5-0.1,2-0.4,3.3-0.7c3.6-0.8,4.7-0.8,5.7-0.1c0.7,0.5,0.9,0.8,0.7,1.5c-0.1,0.5,0,0.8,0.2,0.7
		c0.2-0.1,0.2,0.5-0.1,1.6c-0.9,3.9-0.9,3.9-0.5,3.3c0.3-0.4,0.4-0.3,0.4,0.5c0,0.7-0.1,0.9-0.3,0.6c-0.2-0.3-0.4,0-0.5,1.1
		c-0.3,2-1.3,4.8-2,5.6c-0.3,0.3-0.6,1-0.8,1.6s-0.4,0.9-0.6,0.9c-0.2,0-0.3,0.3-0.2,0.6c0.1,0.4-0.1,0.9-0.7,1.5
		c-0.5,0.5-0.9,1.1-0.9,1.3c0,0.2-0.2,0.5-0.5,0.6c-0.3,0.1-0.5,0.5-0.5,0.9s-0.2,1-0.4,1.2c-0.4,0.4-0.3,0.4,0.2,0.2
		c0.6-0.2,0.6-0.2,0.2,0.4c-0.3,0.3-0.7,0.9-1.1,1.3c-0.3,0.4-0.6,0.9-0.6,1.3c0,0.3-0.3,0.9-0.7,1.3c-0.7,0.7-1.7,3.3-2.2,6.1
		c0,0.2-0.4,0.8-0.8,1.3c-0.4,0.5-0.7,1.2-0.7,1.5c0,0.3-0.1,0.7-0.3,0.8c-0.2,0.1-0.3,0.5-0.2,0.9c0.1,0.4-0.2,1.1-0.7,1.7
		s-0.8,1.2-0.8,1.5c0,0.3-0.1,0.5-0.3,0.5c-0.2,0-0.3,1-0.2,2.2c0.1,1.4-0.1,2.3-0.3,2.6c-1,0.8,0.8,3.8,2.3,3.8
		c0.4,0,1,0.3,1.2,0.7c0.3,0.4,0.7,0.7,0.9,0.7c0.4,0,1.8,0.7,2.2,1.1c0.4,0.4,4.9-0.3,5.3-0.9c0.2-0.3,0.6-0.5,0.8-0.5
		c0.2,0,0.5-0.2,0.8-0.5c0.2-0.3,0.9-0.5,1.5-0.5c0.6,0,1.2,0,1.3,0c0.4-0.1,0.9-0.2,1.3-0.3c0.2,0,0.5-0.2,0.8-0.5
		c0.3-0.2,0.9-0.6,1.5-0.9c0.6-0.3,1.3-0.6,1.6-0.8c0.3-0.2,0.8-0.3,1.1-0.3c0.3,0,0.5-0.1,0.6-0.3c0.1-0.3,4.8-1.4,6.6-1.6
		c1.2-0.1,3-0.3,7.6-0.7c2.4-0.2,3.3-0.4,3.8-0.9c0.4-0.4,0.8-0.7,1-0.7c0.4,0,0.8-1,0.6-1.4c-0.1-0.2,0-0.4,0.2-0.5
		c0.5-0.3,0.1-2.4-0.6-3.6c-0.4-0.8-0.8-1-2.5-1.2c-2-0.2-2.5-0.6-3.8-2.6c-0.1-0.2-0.6-0.4-1-0.5c-0.4-0.1-0.9-0.2-1-0.3
		c-0.1-0.1-1,0.3-2.1,0.8c-1.1,0.6-2.4,1-3,1c-0.6,0-1.9,0.2-2.9,0.5c-1.2,0.3-1.9,0.4-2.1,0.2c-0.1-0.2-0.4-0.1-0.7,0.2
		c-0.3,0.3-0.7,0.5-1,0.5c-0.7-0.1-2.9,0.3-4.9,1c-1.3,0.4-1.8,0.5-2.7,0.1c-0.5-0.2-1-0.5-1-0.6c0-0.1,0.4-1,0.9-2.1
		c0.5-1.1,0.9-2.5,0.9-3.2c0.1-1.2,1.3-3.1,2.1-3.1c0.5,0,1.2-1.6,1-2.2c-0.1-0.2,0.1-0.9,0.4-1.4s0.5-1.2,0.5-1.4
		c0-0.2,0.3-0.7,0.7-1c0.5-0.5,0.7-0.9,0.5-1.6c-0.1-0.5,0-1,0.1-1c0.5,0,1.7-2.3,1.8-3.6c0-0.7,0.2-1.2,0.3-1.2
		c0.3,0,1.3-2.8,1.3-3.7c0-0.4,0.3-0.9,0.6-1.1c0.3-0.2,0.6-0.8,0.6-1.3c0-0.5,0.2-0.9,0.4-0.9c0.2,0,0.3-0.9,0.3-2.3
		c0-1.3-0.2-2.4-0.3-2.4c-0.2,0-0.1-0.2,0.1-0.4c0.2-0.2,0.3-0.8,0.2-1.2c-0.1-0.4-0.1-0.7,0.1-0.6c0.3,0.2,0.4,0,0.6-3.3
		c0.1-1.5,0-1.9-0.3-1.8c-0.2,0.1-0.4,0-0.3-0.2c0.1-0.2-0.2-0.7-0.7-1.1s-0.9-0.8-0.9-1c0-0.6-1.5-1.6-2.6-1.7c-1,0-1,0-0.2-0.3
		c0.7-0.2,0.7-0.3-0.6-0.3c-0.8,0-1.5-0.2-1.6-0.3c-0.2-0.3-0.5-0.4-3.3-0.5c-1.1,0-2.1-0.2-2.2-0.3c-0.1-0.1-0.7-0.1-1.3,0
		c-0.9,0.2-1,0.1-0.8-0.4c0.2-0.5,0-0.6-1.1-0.6C315.4,210,314.7,210.2,314.5,210.5"/>
	<path style="clip-path:url(#SVGID_2_);fill:#DE5599;" d="M319.3,210.3c0.1,0.2,0.3,0.3,0.5,0.2c0.5-0.3,0.4-0.5-0.2-0.5
		C319.4,210,319.2,210.1,319.3,210.3"/>
	<path style="clip-path:url(#SVGID_2_);fill:#DE5599;" d="M496.3,217.7c0,0.4,0.1,0.5,0.2,0.2c0.1-0.2,0.1-0.5,0-0.7
		C496.4,217.1,496.3,217.4,496.3,217.7"/>
	<path style="clip-path:url(#SVGID_2_);fill:#DE5599;" d="M311.3,246.6c0,0.2,0.2,0.3,0.4,0.3c0.2,0,0.3-0.1,0.2-0.3
		c-0.1-0.2-0.3-0.3-0.4-0.3S311.3,246.4,311.3,246.6"/>
</g>
</svg>
